<?xml version="1.0" encoding="UTF-8"?>
<svg xmlns="http://www.w3.org/2000/svg" version="1.1" viewBox="0 0 200 200">
  <defs>
    <style>
      .cls-1 {
        fill: #3766ea;
      }

      .cls-1, .cls-2, .cls-3 {
        fill-rule: evenodd;
      }

      .cls-2 {
        fill: #1d4ed8;
      }

      .cls-3 {
        fill: #203fbd;
      }
    </style>
  </defs>
  <!-- Generator: Adobe Illustrator 28.7.1, SVG Export Plug-In . SVG Version: 1.2.0 Build 142)  -->
  <g>
    <g id="Layer_1">
      <g>
        <path class="cls-1" d="M12.9,101.1c1.5-1.2,3.1-2.4,4.6-3.5,4.3-3.2,8.7-6.4,13-9.6,3.4-2.4,6.8-4.8,10.2-7.2,2.4-1.7,4.9-3.4,7.3-5.1,12.9-8.9,28.8-17.7,44.8-18.9,13.3-1,26.7,2.7,39.3,8.1l-1.9-17.3c-.6-6.4-1.3-12.8-2.1-19.2-.3-2.6-1.1-6.7-1.7-9.3l-1-4.6-17.6-10.2c-4.4-2.7-11-4.1-15.7-1.3l-12.3,7.1L24.3,44l-4.8,2.8c-4.7,2.7-7,6.6-6.6,12.1h0v42.2h0Z"/>
        <path class="cls-3" d="M144.2,174.7c-1.8-.7-3.6-1.5-5.3-2.2-5-2.1-9.9-4.3-14.8-6.5-3.8-1.7-7.6-3.4-11.4-5.2-2.7-1.2-5.4-2.5-8.1-3.7-11.9-5.6-21.8-11.4-31.4-20.5-12.8-12.2-21.1-27.1-23.2-44.5l-11,8.1c-5.2,3.8-10.4,7.5-15.5,11.5-2.1,1.6-5.3,4.4-7.2,6.1l-3.4,3.2v20.4c0,5.2,2,11.6,6.8,14.3l12.3,7.1,57.1,30.8,4.8,2.8c4.7,2.7,9.2,2.7,13.8-.3h0s36.5-21.2,36.5-21.2h0Z"/>
        <path class="cls-2" d="M142.3,24.2c.3,1.9.5,3.8.7,5.7.7,5.3,1.2,10.7,1.7,16.1.4,4.1.8,8.3,1.2,12.4.3,3,.5,5.9.8,8.9,1.1,13.1,1,24.6-2.1,37.5-4.2,17.2-17,30-31,40.5l16.5,7.3c4.8,2.2,9.6,4.3,14.5,6.4,3,1.3,6.1,2.7,9.2,3.6l7.3,2.3,17.6-10.2c4.5-2.5,9-7.5,9-13V57.1c-.3-5.4-3.9-9.3-8.9-11.8h0s-36.5-21.1-36.5-21.1h0Z"/>
        <path class="cls-2" d="M99.6,129.3c-22.6-11.4-22-30.5-21.6-42.7,0-1.4,0-2.8,0-4,11.4-1.9,18.9-6.6,21.5-8.9h0c2.5,2.3,10.1,7,21.5,8.9,0,1.2,0,2.6,0,4,.4,12.1,1,31.3-21.6,42.7h0Z"/>
      </g>
    </g>
  </g>
</svg>