<svg xmlns="http://www.w3.org/2000/svg" version="1.1" xmlns:xlink="http://www.w3.org/1999/xlink" width="512" height="512" x="0" y="0" viewBox="0 0 682.667 682.667" style="enable-background:new 0 0 512 512" xml:space="preserve" class=""><rect width="682.667" height="682.667" rx="136.5334" ry="136.5334" fill="#e8edfb" shape="rounded"></rect><g transform="matrix(0.6,0,0,0.6,136.53299560546876,136.53380126953124)"><defs><clipPath id="b" clipPathUnits="userSpaceOnUse"><path d="M0 512h512V0H0Z" fill="#1c51db" opacity="1" data-original="#000000"></path></clipPath></defs><mask id="a"><rect width="100%" height="100%" fill="#ffffff" opacity="1" data-original="#ffffff"></rect><path d="M0 0c0-141.385-114.615-256-256-256S-512-141.385-512 0s114.615 256 256 256S0 141.385 0 0" style="fill-opacity:1;fill-rule:nonzero;stroke:none" transform="matrix(1.33333 0 0 -1.33333 682.667 341.333)" fill="#ffffff" data-original="#ffffff"></path><path d="M0 0c-36.997-43.179-93.574-68.482-154.54-63.159-46.671 4.075-87.697 25.381-117.36 57.102" style="stroke-width:30;stroke-linecap:butt;stroke-linejoin:miter;stroke-miterlimit:10;stroke-dasharray:none;stroke-opacity:1" transform="matrix(1.33333 0 0 -1.33333 526.222 499.495)" fill="none" stroke="#1c51db" stroke-width="30" stroke-linecap="butt" stroke-linejoin="miter" stroke-miterlimit="10" stroke-dasharray="none" stroke-opacity="" data-original="#000000" opacity="1"></path><path d="m0 0-.796 52.664 52.664 4.796" style="stroke-width:30;stroke-linecap:butt;stroke-linejoin:miter;stroke-miterlimit:10;stroke-dasharray:none;stroke-opacity:1" transform="matrix(1.33333 0 0 -1.33333 164.755 577.734)" fill="none" stroke="#1c51db" stroke-width="30" stroke-linecap="butt" stroke-linejoin="miter" stroke-miterlimit="10" stroke-dasharray="none" stroke-opacity="" data-original="#000000" opacity="1"></path><path d="M0 0c36.997 43.179 93.574 68.482 154.54 63.159 46.671-4.075 87.697-25.381 117.36-57.102" style="stroke-width:30;stroke-linecap:butt;stroke-linejoin:miter;stroke-miterlimit:10;stroke-dasharray:none;stroke-opacity:1" transform="matrix(1.33333 0 0 -1.33333 156.445 183.171)" fill="none" stroke="#1c51db" stroke-width="30" stroke-linecap="butt" stroke-linejoin="miter" stroke-miterlimit="10" stroke-dasharray="none" stroke-opacity="" data-original="#000000" opacity="1"></path><path d="m0 0 .796-52.664-52.664-4.796" style="stroke-width:30;stroke-linecap:butt;stroke-linejoin:miter;stroke-miterlimit:10;stroke-dasharray:none;stroke-opacity:1" transform="matrix(1.33333 0 0 -1.33333 517.912 104.933)" fill="none" stroke="#1c51db" stroke-width="30" stroke-linecap="butt" stroke-linejoin="miter" stroke-miterlimit="10" stroke-dasharray="none" stroke-opacity="" data-original="#000000" opacity="1"></path><path d="M0 0v-23.098h-80.181v18.243l38.546 36.044c8.239 7.651 9.416 12.359 9.416 16.625 0 6.621-4.414 10.593-13.241 10.593-7.503 0-14.271-3.384-18.391-10.004l-21.626 12.064c7.797 12.946 22.362 21.479 42.665 21.479 23.686 0 40.017-12.211 40.017-31.336 0-10.005-2.795-19.126-17.508-32.661L-39.723 0Z" style="fill-opacity:1;fill-rule:nonzero;stroke:none" transform="matrix(1.33333 0 0 -1.33333 219.608 383.312)" fill="#1c51db" data-original="#000000" opacity="1"></path><path d="M0 0h-15.3v-19.714h-28.395V0H-98.13v18.979l46.196 64.292h30.16l-41.93-60.173h20.892v17.507H-15.3V23.098H0Z" style="fill-opacity:1;fill-rule:nonzero;stroke:none" transform="matrix(1.33333 0 0 -1.33333 363.403 387.823)" fill="#1c51db" data-original="#000000" opacity="1"></path><path d="M0 0h24.863l-48.55-138.588h-24.864z" style="fill-opacity:1;fill-rule:nonzero;stroke:none" transform="matrix(1.33333 0 0 -1.33333 430.299 248.941)" fill="#1c51db" data-original="#000000" opacity="1"></path><path d="M0 0v-18.243l-36.338-84.742h-31.779l34.721 79.887h-27.07v-15.889H-85.33V0z" style="fill-opacity:1;fill-rule:nonzero;stroke:none" transform="matrix(1.33333 0 0 -1.33333 577.028 276.796)" fill="#1c51db" data-original="#000000" opacity="1"></path></mask><g mask="url(#a)"><g clip-path="url(#b)" transform="matrix(1.33333 0 0 -1.33333 0 682.667)"><path d="M0 0c0-141.385-114.615-256-256-256S-512-141.385-512 0s114.615 256 256 256S0 141.385 0 0" style="fill-opacity:1;fill-rule:nonzero;stroke:none" transform="translate(512 256)" fill="#1c51db" data-original="#000000" opacity="1"></path><path d="M0 0c-36.997-43.179-93.574-68.482-154.54-63.159-46.671 4.075-87.697 25.381-117.36 57.102" style="stroke-width:30;stroke-linecap:butt;stroke-linejoin:miter;stroke-miterlimit:10;stroke-dasharray:none;stroke-opacity:1" transform="translate(394.667 137.378)" fill="none" stroke="#ffffff" stroke-width="30" stroke-linecap="butt" stroke-linejoin="miter" stroke-miterlimit="10" stroke-dasharray="none" stroke-opacity="" data-original="#ffffff"></path><path d="m0 0-.796 52.664 52.664 4.796" style="stroke-width:30;stroke-linecap:butt;stroke-linejoin:miter;stroke-miterlimit:10;stroke-dasharray:none;stroke-opacity:1" transform="translate(123.566 78.7)" fill="none" stroke="#ffffff" stroke-width="30" stroke-linecap="butt" stroke-linejoin="miter" stroke-miterlimit="10" stroke-dasharray="none" stroke-opacity="" data-original="#ffffff"></path><path d="M0 0c36.997 43.179 93.574 68.482 154.54 63.159 46.671-4.075 87.697-25.381 117.36-57.102" style="stroke-width:30;stroke-linecap:butt;stroke-linejoin:miter;stroke-miterlimit:10;stroke-dasharray:none;stroke-opacity:1" transform="translate(117.333 374.622)" fill="none" stroke="#ffffff" stroke-width="30" stroke-linecap="butt" stroke-linejoin="miter" stroke-miterlimit="10" stroke-dasharray="none" stroke-opacity="" data-original="#ffffff"></path><path d="m0 0 .796-52.664-52.664-4.796" style="stroke-width:30;stroke-linecap:butt;stroke-linejoin:miter;stroke-miterlimit:10;stroke-dasharray:none;stroke-opacity:1" transform="translate(388.434 433.3)" fill="none" stroke="#ffffff" stroke-width="30" stroke-linecap="butt" stroke-linejoin="miter" stroke-miterlimit="10" stroke-dasharray="none" stroke-opacity="" data-original="#ffffff"></path><path d="M0 0v-23.098h-80.181v18.243l38.546 36.044c8.239 7.651 9.416 12.359 9.416 16.625 0 6.621-4.414 10.593-13.241 10.593-7.503 0-14.271-3.384-18.391-10.004l-21.626 12.064c7.797 12.946 22.362 21.479 42.665 21.479 23.686 0 40.017-12.211 40.017-31.336 0-10.005-2.795-19.126-17.508-32.661L-39.723 0Z" style="fill-opacity:1;fill-rule:nonzero;stroke:none" transform="translate(164.706 224.516)" fill="#ffffff" data-original="#ffffff"></path><path d="M0 0h-15.3v-19.714h-28.395V0H-98.13v18.979l46.196 64.292h30.16l-41.93-60.173h20.892v17.507H-15.3V23.098H0Z" style="fill-opacity:1;fill-rule:nonzero;stroke:none" transform="translate(272.552 221.132)" fill="#ffffff" data-original="#ffffff"></path><path d="M0 0h24.863l-48.55-138.588h-24.864z" style="fill-opacity:1;fill-rule:nonzero;stroke:none" transform="translate(322.724 325.294)" fill="#ffffff" data-original="#ffffff"></path><path d="M0 0v-18.243l-36.338-84.742h-31.779l34.721 79.887h-27.07v-15.889H-85.33V0z" style="fill-opacity:1;fill-rule:nonzero;stroke:none" transform="translate(432.771 304.403)" fill="#ffffff" data-original="#ffffff"></path></g></g></g></svg>