<?xml version="1.0" encoding="utf-8"?>
<!-- Generator: Adobe Illustrator 27.5.0, SVG Export Plug-In . SVG Version: 6.00 Build 0)  -->
<svg version="1.1" baseProfile="basic" id="Layer_1"
	 xmlns="http://www.w3.org/2000/svg" xmlns:xlink="http://www.w3.org/1999/xlink" x="0px" y="0px" viewBox="0 0 250.5877 66.248"
	 xml:space="preserve">
<style type="text/css">
	.st0{fill:#00589B;}
	.st1{fill:#509FD7;}
	.st2{clip-path:url(#SVGID_00000075151611096274705120000016372572270906133658_);}
	.st3{fill:#FFFFFF;}
	.st4{fill-rule:evenodd;clip-rule:evenodd;fill:#337CB7;}
</style>
<g id="Group_368" transform="translate(78.819 14.535)">
	<g>
		<path class="st0" d="M8.235,7.8361C8.109,7.4406,8.0367,7.3869,7.4967,7.3869H4.7779c-0.4502,0-0.5581,0.0537-0.6841,0.4316
			L3.4635,9.7091c-0.27,0.8105-0.396,1.2969-0.396,1.4941c0,0.2168,0.0898,0.3242,0.522,0.3604l0.5942,0.0537
			c0.126,0.0908,0.126,0.3789-0.0356,0.4502c-0.4683-0.0361-1.0264-0.0361-1.873-0.0537c-0.5938,0-1.2422,0.0361-1.7285,0.0537
			c-0.1079-0.0713-0.1436-0.3594-0.0356-0.4502l0.5942-0.0537c0.4321-0.0361,0.8281-0.2344,1.0801-0.8818
			c0.3242-0.8281,0.8281-1.999,1.5845-4.0156L5.606,1.8048c0.2524-0.6484,0.3604-0.9902,0.3062-1.2783
			c0.4321-0.126,0.7383-0.4502,0.9365-0.6846c0.1079,0,0.2339,0.0361,0.27,0.1621c0.2339,0.792,0.522,1.6211,0.792,2.4131
			l2.4668,7.2383c0.5225,1.5479,0.7563,1.8184,1.5308,1.9082l0.4858,0.0537c0.126,0.0908,0.0903,0.3789,0,0.4502
			c-0.7383-0.0361-1.3682-0.0537-2.1787-0.0537c-0.8643,0-1.5483,0.0361-2.0703,0.0537c-0.144-0.0713-0.1621-0.3594-0.0361-0.4502
			l0.522-0.0537c0.3784-0.0361,0.6304-0.1436,0.6304-0.3242c0-0.1982-0.0898-0.5225-0.2339-0.9541L8.235,7.8361z M4.67,6.2345
			C4.526,6.6486,4.544,6.6661,5.0479,6.6661h2.2148c0.522,0,0.5581-0.0723,0.396-0.5586L6.6866,3.173
			c-0.144-0.4316-0.3062-0.918-0.4141-1.1338H6.2364C6.1822,2.129,6.0025,2.5607,5.8043,3.1007L4.67,6.2345z"/>
	</g>
	<g>
		<path class="st0" d="M16.9078,8.5431c0.2993,0.6104,0.585,1.209,0.897,1.7803h0.0264c0.3506-0.6104,0.6758-1.2871,1.001-1.9502
			l1.2217-2.4824c0.585-1.1836,0.9624-1.8984,0.9883-2.4961c0.4419,0.0391,0.7148,0.0391,0.9751,0.0391
			c0.3247,0,0.7539-0.0137,1.1567-0.0391c0.0781,0.0518,0.0781,0.2725,0.0132,0.3252l-0.2729,0.0254
			c-0.8193,0.0781-0.9229,0.3252-0.9102,1.2354c0.0259,1.3779,0.0391,3.7832,0.1431,5.6553
			c0.0391,0.6494,0.0259,1.001,0.6372,1.0527l0.416,0.0391c0.0776,0.0781,0.0649,0.2734-0.0264,0.3252
			c-0.5327-0.0264-1.0659-0.0391-1.5337-0.0391c-0.4551,0-1.04,0.0127-1.5732,0.0391c-0.0908-0.0654-0.104-0.2471-0.0259-0.3252
			l0.377-0.0391c0.6367-0.0645,0.6367-0.2725,0.6367-1.1045l-0.0386-5.4219h-0.0264c-0.0908,0.1436-0.585,1.1836-0.8447,1.6904
			l-1.1572,2.2754c-0.585,1.1436-1.1699,2.3662-1.4038,2.9639c-0.0264,0.0391-0.0781,0.0518-0.1304,0.0518
			c-0.0259,0-0.0908-0.0127-0.1167-0.0518c-0.2212-0.6895-0.8452-1.9629-1.144-2.6006l-1.1704-2.5088
			c-0.2729-0.5977-0.5459-1.2744-0.832-1.8721h-0.0259c-0.0518,0.8057-0.0908,1.5605-0.1299,2.3145
			c-0.0391,0.793-0.0908,1.9502-0.0908,3.0547c0,0.9619,0.0776,1.1699,0.585,1.209l0.4937,0.0391
			c0.0913,0.0781,0.0781,0.2861-0.0127,0.3252c-0.4419-0.0264-0.9492-0.0391-1.4434-0.0391c-0.416,0-0.8838,0.0127-1.3257,0.0391
			c-0.0781-0.0654-0.104-0.2598-0.0259-0.3252l0.2856-0.0391c0.5464-0.0781,0.728-0.1562,0.8062-1.0654
			c0.0781-0.8584,0.1431-1.5732,0.2212-2.8604c0.0649-1.0791,0.1167-2.1846,0.1431-2.8994
			c0.0259-0.8193-0.0781-1.0137-0.8711-1.1182l-0.208-0.0254c-0.0654-0.0781-0.0522-0.2734,0.0518-0.3252
			c0.3901,0.0254,0.7021,0.0391,1.0273,0.0391c0.2988,0,0.6499,0,1.0786-0.0391c-0.0518,0.5068,0.2729,1.3125,0.6763,2.1445
			L16.9078,8.5431z"/>
		<path class="st0" d="M25.1754,5.3839c0-1.3525-0.0259-1.5479-0.793-1.6387l-0.208-0.0254
			c-0.0781-0.0527-0.0522-0.2861,0.0259-0.3252c0.5591,0.0254,1.001,0.0391,1.5342,0.0391h2.4438c0.832,0,1.5991,0,1.7554-0.0391
			c0.0781,0.2207,0.1558,1.1572,0.208,1.7285c-0.0522,0.0781-0.2603,0.1045-0.3252,0.0264
			c-0.1948-0.6113-0.312-1.0664-0.9878-1.2354c-0.2729-0.0645-0.689-0.0781-1.2612-0.0781h-0.936
			c-0.3901,0-0.3901,0.0264-0.3901,0.5205v2.5996c0,0.3643,0.0391,0.3643,0.4292,0.3643h0.7539c0.5459,0,0.9492-0.0254,1.105-0.0781
			c0.1562-0.0518,0.2471-0.1299,0.312-0.4551l0.104-0.5322c0.0649-0.0781,0.2861-0.0781,0.3379,0.0127
			c0,0.3115-0.0518,0.8193-0.0518,1.3125c0,0.4688,0.0518,0.9629,0.0518,1.248c-0.0518,0.0918-0.2729,0.0918-0.3379,0.0137
			l-0.1167-0.5068c-0.0522-0.2344-0.1431-0.4297-0.4033-0.4941c-0.1821-0.0527-0.4937-0.0654-1.001-0.0654h-0.7539
			c-0.3901,0-0.4292,0.0127-0.4292,0.3516v1.833c0,0.6885,0.0391,1.1309,0.2471,1.3516c0.1562,0.1562,0.4292,0.2988,1.5732,0.2988
			c1.001,0,1.3779-0.0518,1.6641-0.1943c0.2339-0.1309,0.585-0.585,0.9229-1.2617c0.0908-0.0645,0.2729-0.0254,0.3252,0.0918
			c-0.0913,0.4541-0.416,1.4551-0.585,1.8066c-1.1704-0.0264-2.3271-0.0391-3.4844-0.0391h-1.1699
			c-0.5591,0-1.001,0.0127-1.7681,0.0391c-0.0781-0.0391-0.104-0.2471-0.0259-0.3252l0.4287-0.0391
			c0.7412-0.0645,0.8062-0.2598,0.8062-1.625V5.3839z"/>
		<path class="st0" d="M32.5724,5.3966c0-1.2354-0.0391-1.4561-0.5723-1.5215l-0.416-0.0518
			c-0.0908-0.0645-0.0908-0.2725,0.0132-0.3252c0.728-0.0645,1.625-0.1035,2.8989-0.1035c0.8062,0,1.5732,0.0645,2.1714,0.3896
			c0.624,0.3252,1.0791,0.9102,1.0791,1.8203c0,1.2354-0.9751,1.9111-1.625,2.1709c-0.0649,0.0781,0,0.208,0.0649,0.3125
			c1.04,1.6768,1.729,2.7168,2.6128,3.458c0.2212,0.1943,0.5464,0.3379,0.897,0.3643c0.0654,0.0254,0.0781,0.1299,0.0132,0.1816
			c-0.1167,0.0391-0.3247,0.0645-0.5718,0.0645c-1.1055,0-1.7681-0.3242-2.6914-1.6377c-0.3379-0.4814-0.8711-1.3779-1.2739-1.9629
			c-0.1948-0.2861-0.4028-0.416-0.9229-0.416c-0.5854,0-0.6113,0.0127-0.6113,0.2861v1.6377c0,1.3652,0.0259,1.5215,0.7803,1.625
			l0.2729,0.0391c0.0781,0.0654,0.0518,0.2861-0.0259,0.3252c-0.5854-0.0264-1.0273-0.0391-1.5474-0.0391
			c-0.5459,0-1.0137,0.0127-1.625,0.0391c-0.0781-0.0391-0.104-0.2344-0.0259-0.3252l0.3247-0.0391
			c0.7544-0.0908,0.7803-0.2598,0.7803-1.625V5.3966z M33.6383,7.256c0,0.2334,0,0.377,0.0391,0.4287
			c0.0391,0.0391,0.2339,0.0654,0.897,0.0654c0.4683,0,0.9619-0.0527,1.3394-0.3389c0.3511-0.2725,0.6499-0.7275,0.6499-1.6113
			c0-1.0273-0.6372-2.0029-2.0801-2.0029c-0.8062,0-0.8452,0.0527-0.8452,0.416V7.256z"/>
		<path class="st0" d="M40.7623,5.4093c0-1.3779-0.0259-1.5986-0.793-1.6641l-0.3252-0.0254
			c-0.0776-0.0527-0.0518-0.2861,0.0259-0.3252c0.6504,0.0254,1.0923,0.0391,1.6382,0.0391c0.52,0,0.9624-0.0137,1.6123-0.0391
			c0.0776,0.0391,0.104,0.2725,0.0259,0.3252l-0.3252,0.0254c-0.7666,0.0654-0.793,0.2861-0.793,1.6641v4.6279
			c0,1.3789,0.0264,1.5605,0.793,1.6514l0.3252,0.0391c0.0781,0.0518,0.0518,0.2861-0.0259,0.3252
			c-0.6499-0.0264-1.0923-0.0391-1.6123-0.0391c-0.5459,0-0.9878,0.0127-1.6382,0.0391c-0.0776-0.0391-0.1035-0.2471-0.0259-0.3252
			l0.3252-0.0391c0.7671-0.0908,0.793-0.2725,0.793-1.6514V5.4093z"/>
		<path class="st0" d="M45.5074,4.3302c0.9497-0.7402,2.1587-1.1045,3.5103-1.1045c0.7021,0,1.6904,0.1426,2.3018,0.3115
			c0.1553,0.0391,0.2461,0.0654,0.3633,0.0527c0.0137,0.2988,0.0781,1.1172,0.1826,1.9102
			c-0.0654,0.0918-0.2607,0.1045-0.3516,0.0264c-0.1943-0.8838-0.7803-1.8984-2.665-1.8984c-1.9893,0-3.6792,1.2617-3.6792,3.9521
			c0,2.7305,1.729,4.2383,3.8618,4.2383c1.6768,0,2.418-1.0918,2.7168-1.8584c0.0908-0.0654,0.2861-0.0391,0.3379,0.0518
			c-0.0908,0.6758-0.4287,1.5342-0.624,1.7812c-0.1562,0.0254-0.3125,0.0781-0.4551,0.1299
			c-0.2861,0.1035-1.2217,0.2988-2.0537,0.2988c-1.1699,0-2.2881-0.2344-3.2378-0.8711c-1.04-0.7148-1.8462-1.8984-1.8462-3.5752
			C43.8692,6.3322,44.5196,5.0978,45.5074,4.3302z"/>
		<path class="st0" d="M57.4415,8.9982C57.3507,8.712,57.2989,8.673,56.9093,8.673h-1.9639c-0.3242,0-0.4023,0.0391-0.4932,0.3115
			l-0.4551,1.3652c-0.1953,0.585-0.2861,0.9355-0.2861,1.0791c0,0.1562,0.0645,0.2344,0.377,0.2598l0.4287,0.0391
			c0.0908,0.0654,0.0908,0.2734-0.0264,0.3252c-0.3379-0.0264-0.7402-0.0264-1.3516-0.0391c-0.4287,0-0.8975,0.0264-1.248,0.0391
			c-0.0781-0.0518-0.1045-0.2598-0.0264-0.3252l0.4297-0.0391c0.3115-0.0254,0.5977-0.1689,0.7793-0.6367
			c0.2344-0.5986,0.5986-1.4434,1.1445-2.8994l1.3262-3.5098c0.1816-0.4678,0.2598-0.7148,0.2207-0.9229
			c0.3125-0.0918,0.5332-0.3252,0.6758-0.4941c0.0781,0,0.1689,0.0254,0.1953,0.1172c0.1689,0.5713,0.377,1.1699,0.5723,1.7412
			l1.7812,5.2266c0.377,1.1182,0.5459,1.3135,1.1045,1.3779l0.3516,0.0391c0.0908,0.0654,0.0645,0.2734,0,0.3252
			c-0.5332-0.0264-0.9883-0.0391-1.5732-0.0391c-0.624,0-1.1182,0.0264-1.4951,0.0391c-0.1045-0.0518-0.1172-0.2598-0.0264-0.3252
			l0.377-0.0391c0.2734-0.0254,0.4551-0.1035,0.4551-0.2334c0-0.1436-0.0645-0.377-0.1689-0.6895L57.4415,8.9982z M54.8683,7.841
			c-0.1045,0.2988-0.0918,0.3115,0.2725,0.3115h1.5996c0.377,0,0.4023-0.0518,0.2852-0.4023L56.3243,5.631
			c-0.1045-0.3125-0.2217-0.6631-0.2998-0.8193h-0.0254c-0.0391,0.0645-0.1689,0.377-0.3125,0.7666L54.8683,7.841z"/>
		<path class="st0" d="M68.713,9.8038c0,0.3896,0,1.9365,0.0391,2.2754c-0.0264,0.0771-0.1045,0.1426-0.2471,0.1426
			c-0.1562-0.2207-0.5332-0.6758-1.6641-1.9629l-3.0166-3.4326c-0.3506-0.4023-1.2344-1.4688-1.5078-1.7549h-0.0264
			c-0.0518,0.1562-0.0645,0.4551-0.0645,0.8447v2.835c0,0.6104,0.0127,2.3008,0.2344,2.6904
			c0.0771,0.1436,0.3379,0.2217,0.6621,0.2471l0.4033,0.0391c0.0781,0.1045,0.0654,0.2598-0.0254,0.3252
			c-0.5859-0.0264-1.04-0.0391-1.5215-0.0391c-0.5459,0-0.8975,0.0127-1.3525,0.0391c-0.0908-0.0654-0.1035-0.2471-0.0254-0.3252
			l0.3506-0.0391c0.2988-0.0391,0.5068-0.1172,0.5723-0.2598c0.1816-0.4678,0.1689-2.0537,0.1689-2.6777V4.9933
			c0-0.3643-0.0127-0.6367-0.2861-0.9355c-0.1816-0.1826-0.4941-0.2734-0.8057-0.3125L60.38,3.7199
			c-0.0781-0.0781-0.0781-0.2734,0.0254-0.3252c0.5459,0.0391,1.2354,0.0391,1.4688,0.0391c0.208,0,0.4297-0.0137,0.5986-0.0391
			c0.2598,0.6631,1.7939,2.3789,2.2227,2.8604l1.2617,1.417c0.8965,1.001,1.5332,1.7285,2.1445,2.3525h0.0264
			c0.0518-0.0645,0.0518-0.2725,0.0518-0.5459V6.6964c0-0.6104-0.0127-2.3008-0.2598-2.6904
			c-0.0781-0.1172-0.2861-0.1953-0.8066-0.2607l-0.2207-0.0254c-0.0908-0.0781-0.0781-0.2861,0.0264-0.3252
			c0.5977,0.0254,1.04,0.0391,1.5342,0.0391c0.5586,0,0.8965-0.0137,1.3389-0.0391c0.1035,0.0645,0.1035,0.2471,0.0254,0.3252
			l-0.1816,0.0254c-0.416,0.0654-0.6758,0.1689-0.7275,0.2734c-0.2217,0.4678-0.1953,2.0801-0.1953,2.6777V9.8038z"/>
	</g>
	<g>
		<path class="st0" d="M80.6563,7.8361c-0.126-0.3955-0.1982-0.4492-0.7383-0.4492h-2.7188c-0.4502,0-0.5586,0.0537-0.6846,0.4316
			l-0.6299,1.8906c-0.2705,0.8105-0.3965,1.2969-0.3965,1.4941c0,0.2168,0.0898,0.3242,0.5225,0.3604l0.5938,0.0537
			c0.126,0.0908,0.126,0.3789-0.0352,0.4502c-0.4688-0.0361-1.0264-0.0361-1.873-0.0537c-0.5938,0-1.2422,0.0361-1.7285,0.0537
			c-0.1084-0.0713-0.1436-0.3594-0.0361-0.4502l0.5947-0.0537c0.4316-0.0361,0.8281-0.2344,1.0801-0.8818
			c0.3242-0.8281,0.8281-1.999,1.584-4.0156l1.8369-4.8613c0.252-0.6484,0.3604-0.9902,0.3057-1.2783
			c0.4326-0.126,0.7383-0.4502,0.9365-0.6846c0.1084,0,0.2344,0.0361,0.2705,0.1621c0.2334,0.792,0.5215,1.6211,0.792,2.4131
			l2.4668,7.2383c0.5225,1.5479,0.7559,1.8184,1.5303,1.9082l0.4863,0.0537c0.126,0.0908,0.0898,0.3789,0,0.4502
			c-0.7383-0.0361-1.3682-0.0537-2.1787-0.0537c-0.8643,0-1.5488,0.0361-2.0703,0.0537c-0.1445-0.0713-0.1621-0.3594-0.0361-0.4502
			l0.5215-0.0537c0.3789-0.0361,0.6309-0.1436,0.6309-0.3242c0-0.1982-0.0898-0.5225-0.2344-0.9541L80.6563,7.8361z M77.0909,6.2345
			c-0.1436,0.4141-0.126,0.4316,0.3779,0.4316h2.2148c0.5225,0,0.5586-0.0723,0.3965-0.5586L79.1075,3.173
			c-0.1436-0.4316-0.3057-0.918-0.4141-1.1338h-0.0361c-0.0537,0.0898-0.2334,0.5215-0.4316,1.0615L77.0909,6.2345z"/>
	</g>
	<g>
		<path class="st0" d="M87.1837,12.2218c-1.0918,0-1.7812-0.3379-2.0283-0.4814c-0.1553-0.2852-0.3242-1.209-0.3506-1.8193
			c0.0654-0.0908,0.2598-0.1172,0.3125-0.0391c0.1943,0.6631,0.7275,1.9365,2.2354,1.9365c1.0928,0,1.625-0.7148,1.625-1.4951
			c0-0.5713-0.1162-1.209-1.0654-1.8193l-1.2354-0.8066c-0.6504-0.4287-1.4043-1.1699-1.4043-2.2363
			c0-1.2344,0.9619-2.2354,2.6523-2.2354c0.4033,0,0.8711,0.0781,1.209,0.1689c0.1689,0.0518,0.3516,0.0781,0.4551,0.0781
			c0.1172,0.3115,0.2344,1.04,0.2344,1.5859c-0.0527,0.0781-0.2607,0.1172-0.3252,0.0391c-0.1689-0.624-0.5205-1.4697-1.7686-1.4697
			c-1.2734,0-1.5469,0.8457-1.5469,1.4434c0,0.7539,0.624,1.2998,1.1055,1.5996l1.04,0.6494
			c0.8184,0.5068,1.625,1.2617,1.625,2.4961C89.9532,11.2472,88.8741,12.2218,87.1837,12.2218z"/>
		<path class="st0" d="M93.3458,12.2218c-1.0918,0-1.7812-0.3379-2.0283-0.4814c-0.1553-0.2852-0.3242-1.209-0.3506-1.8193
			c0.0654-0.0908,0.2598-0.1172,0.3125-0.0391c0.1943,0.6631,0.7275,1.9365,2.2354,1.9365c1.0928,0,1.625-0.7148,1.625-1.4951
			c0-0.5713-0.1162-1.209-1.0654-1.8193L92.839,7.6974c-0.6504-0.4287-1.4043-1.1699-1.4043-2.2363
			c0-1.2344,0.9619-2.2354,2.6523-2.2354c0.4033,0,0.8711,0.0781,1.209,0.1689c0.1689,0.0518,0.3516,0.0781,0.4551,0.0781
			c0.1172,0.3115,0.2344,1.04,0.2344,1.5859c-0.0527,0.0781-0.2607,0.1172-0.3252,0.0391c-0.1689-0.624-0.5205-1.4697-1.7686-1.4697
			c-1.2734,0-1.5469,0.8457-1.5469,1.4434c0,0.7539,0.624,1.2998,1.1055,1.5996l1.04,0.6494
			c0.8184,0.5068,1.625,1.2617,1.625,2.4961C96.1153,11.2472,95.0362,12.2218,93.3458,12.2218z"/>
		<path class="st0" d="M97.1935,7.8146c0-2.5996,1.9502-4.5889,4.6279-4.5889c3.0039,0,4.5117,2.1709,4.5117,4.459
			c0,2.626-2.002,4.5371-4.5117,4.5371C98.9356,12.2218,97.1935,10.1544,97.1935,7.8146z M105.0333,8.088
			c0-2.1455-0.9492-4.46-3.4326-4.46c-1.3516,0-3.1074,0.9238-3.1074,3.7705c0,1.9238,0.9365,4.4199,3.4971,4.4199
			C103.5509,11.8185,105.0333,10.6486,105.0333,8.088z"/>
		<path class="st0" d="M108.9454,4.3302c0.9492-0.7402,2.1582-1.1045,3.5107-1.1045c0.7021,0,1.6895,0.1426,2.3008,0.3115
			c0.1562,0.0391,0.2471,0.0654,0.3643,0.0527c0.0127,0.2988,0.0781,1.1172,0.1816,1.9102
			c-0.0645,0.0918-0.2598,0.1045-0.3506,0.0264c-0.1953-0.8838-0.7803-1.8984-2.665-1.8984c-1.9893,0-3.6797,1.2617-3.6797,3.9521
			c0,2.7305,1.7295,4.2383,3.8613,4.2383c1.6768,0,2.418-1.0918,2.7168-1.8584c0.0918-0.0654,0.2861-0.0391,0.3379,0.0518
			c-0.0908,0.6758-0.4287,1.5342-0.624,1.7812c-0.1553,0.0254-0.3115,0.0781-0.4541,0.1299
			c-0.2861,0.1035-1.2227,0.2988-2.0547,0.2988c-1.1699,0-2.2881-0.2344-3.2373-0.8711c-1.04-0.7148-1.8457-1.8984-1.8457-3.5752
			C107.3077,6.3322,107.9581,5.0978,108.9454,4.3302z"/>
		<path class="st0" d="M117.253,5.4093c0-1.3779-0.0264-1.5986-0.793-1.6641l-0.3252-0.0254
			c-0.0781-0.0527-0.0518-0.2861,0.0254-0.3252c0.6504,0.0254,1.0928,0.0391,1.6387,0.0391c0.5195,0,0.9619-0.0137,1.6123-0.0391
			c0.0771,0.0391,0.1035,0.2725,0.0254,0.3252l-0.3252,0.0254c-0.7666,0.0654-0.793,0.2861-0.793,1.6641v4.6279
			c0,1.3789,0.0264,1.5605,0.793,1.6514l0.3252,0.0391c0.0781,0.0518,0.0518,0.2861-0.0254,0.3252
			c-0.6504-0.0264-1.0928-0.0391-1.6123-0.0391c-0.5459,0-0.9883,0.0127-1.6387,0.0391c-0.0771-0.0391-0.1035-0.2471-0.0254-0.3252
			l0.3252-0.0391c0.7666-0.0908,0.793-0.2725,0.793-1.6514V5.4093z"/>
		<path class="st0" d="M125.0792,8.9982c-0.0908-0.2861-0.1436-0.3252-0.5332-0.3252h-1.9629c-0.3252,0-0.4033,0.0391-0.4941,0.3115
			l-0.4551,1.3652c-0.1953,0.585-0.2861,0.9355-0.2861,1.0791c0,0.1562,0.0654,0.2344,0.377,0.2598l0.4297,0.0391
			c0.0908,0.0654,0.0908,0.2734-0.0264,0.3252c-0.3379-0.0264-0.7412-0.0264-1.3525-0.0391c-0.4287,0-0.8965,0.0264-1.248,0.0391
			c-0.0771-0.0518-0.1035-0.2598-0.0254-0.3252l0.4287-0.0391c0.3125-0.0254,0.5986-0.1689,0.7803-0.6367
			c0.2344-0.5986,0.5977-1.4434,1.1436-2.8994l1.3262-3.5098c0.1826-0.4678,0.2607-0.7148,0.2217-0.9229
			c0.3115-0.0918,0.5322-0.3252,0.6758-0.4941c0.0781,0,0.1689,0.0254,0.1953,0.1172c0.1689,0.5713,0.377,1.1699,0.5713,1.7412
			l1.7812,5.2266c0.377,1.1182,0.5459,1.3135,1.1055,1.3779l0.3506,0.0391c0.0908,0.0654,0.0654,0.2734,0,0.3252
			c-0.5332-0.0264-0.9883-0.0391-1.5732-0.0391c-0.624,0-1.1182,0.0264-1.4951,0.0391c-0.1035-0.0518-0.1162-0.2598-0.0254-0.3252
			l0.377-0.0391c0.2725-0.0254,0.4551-0.1035,0.4551-0.2334c0-0.1436-0.0654-0.377-0.1689-0.6895L125.0792,8.9982z M122.505,7.841
			c-0.1035,0.2988-0.0908,0.3115,0.2734,0.3115h1.5986c0.377,0,0.4033-0.0518,0.2861-0.4023L123.961,5.631
			c-0.1035-0.3125-0.2207-0.6631-0.2988-0.8193h-0.0264c-0.0391,0.0645-0.1689,0.377-0.3115,0.7666L122.505,7.841z"/>
		<path class="st0" d="M131.5655,10.0636c0,1.3652,0.0264,1.5605,0.7803,1.625l0.416,0.0391
			c0.0781,0.0518,0.0518,0.2861-0.0264,0.3252c-0.7402-0.0264-1.1826-0.0391-1.7031-0.0391c-0.5195,0-0.9746,0.0127-1.8066,0.0391
			c-0.0781-0.0391-0.1045-0.2598,0-0.3252l0.4678-0.0391c0.7412-0.0645,0.8066-0.2598,0.8066-1.625V4.2521
			c0-0.4023,0-0.416-0.3906-0.416h-0.7148c-0.5586,0-1.2744,0.0264-1.5986,0.3252c-0.3125,0.2861-0.4424,0.5723-0.585,0.8975
			c-0.1045,0.0781-0.2861,0.0127-0.3389-0.0908c0.208-0.585,0.4033-1.417,0.4941-1.9375c0.0391-0.0264,0.208-0.0391,0.2471,0
			c0.0781,0.416,0.5068,0.4033,1.1055,0.4033h5.2646c0.7021,0,0.8193-0.0264,1.0146-0.3643
			c0.0645-0.0264,0.208-0.0127,0.2334,0.0391c-0.1426,0.5332-0.2334,1.5859-0.1943,1.9756
			c-0.0527,0.1045-0.2734,0.1045-0.3379,0.0264c-0.0391-0.3252-0.1309-0.8057-0.3252-0.9492
			c-0.2988-0.2207-0.793-0.3252-1.5088-0.3252h-0.9229c-0.3896,0-0.377,0.0137-0.377,0.4424V10.0636z"/>
		<path class="st0" d="M136.8302,5.4093c0-1.3779-0.0254-1.5986-0.793-1.6641l-0.3252-0.0254
			c-0.0781-0.0527-0.0518-0.2861,0.0264-0.3252c0.6504,0.0254,1.0918,0.0391,1.6377,0.0391c0.5205,0,0.9619-0.0137,1.6123-0.0391
			c0.0781,0.0391,0.1045,0.2725,0.0264,0.3252l-0.3252,0.0254c-0.7676,0.0654-0.793,0.2861-0.793,1.6641v4.6279
			c0,1.3789,0.0254,1.5605,0.793,1.6514l0.3252,0.0391c0.0781,0.0518,0.0518,0.2861-0.0264,0.3252
			c-0.6504-0.0264-1.0918-0.0391-1.6123-0.0391c-0.5459,0-0.9873,0.0127-1.6377,0.0391c-0.0781-0.0391-0.1045-0.2471-0.0264-0.3252
			l0.3252-0.0391c0.7676-0.0908,0.793-0.2725,0.793-1.6514V5.4093z"/>
		<path class="st0" d="M139.964,7.8146c0-2.5996,1.9492-4.5889,4.6279-4.5889c3.0029,0,4.5107,2.1709,4.5107,4.459
			c0,2.626-2.002,4.5371-4.5107,4.5371C141.7052,12.2218,139.964,10.1544,139.964,7.8146z M147.8028,8.088
			c0-2.1455-0.9492-4.46-3.4316-4.46c-1.3525,0-3.1074,0.9238-3.1074,3.7705c0,1.9238,0.9355,4.4199,3.4971,4.4199
			C146.3204,11.8185,147.8028,10.6486,147.8028,8.088z"/>
		<path class="st0" d="M158.1632,9.8038c0,0.3896,0,1.9365,0.0391,2.2754c-0.0254,0.0771-0.1035,0.1426-0.2471,0.1426
			c-0.1553-0.2207-0.5322-0.6758-1.6641-1.9629l-3.0156-3.4326c-0.3516-0.4023-1.2354-1.4688-1.5078-1.7549h-0.0264
			c-0.0518,0.1562-0.0654,0.4551-0.0654,0.8447v2.835c0,0.6104,0.0137,2.3008,0.2344,2.6904
			c0.0781,0.1436,0.3379,0.2217,0.6631,0.2471l0.4033,0.0391c0.0781,0.1045,0.0645,0.2598-0.0264,0.3252
			c-0.585-0.0264-1.04-0.0391-1.5215-0.0391c-0.5459,0-0.8965,0.0127-1.3516,0.0391c-0.0908-0.0654-0.1045-0.2471-0.0264-0.3252
			l0.3516-0.0391c0.2988-0.0391,0.5068-0.1172,0.5723-0.2598c0.1816-0.4678,0.1689-2.0537,0.1689-2.6777V4.9933
			c0-0.3643-0.0137-0.6367-0.2861-0.9355c-0.1826-0.1826-0.4941-0.2734-0.8066-0.3125l-0.2207-0.0254
			c-0.0781-0.0781-0.0781-0.2734,0.0264-0.3252c0.5459,0.0391,1.2344,0.0391,1.4688,0.0391c0.208,0,0.4287-0.0137,0.5977-0.0391
			c0.2607,0.6631,1.7939,2.3789,2.2236,2.8604l1.2607,1.417c0.8975,1.001,1.5342,1.7285,2.1455,2.3525h0.0254
			c0.0527-0.0645,0.0527-0.2725,0.0527-0.5459V6.6964c0-0.6104-0.0137-2.3008-0.2607-2.6904
			c-0.0781-0.1172-0.2861-0.1953-0.8057-0.2607l-0.2207-0.0254c-0.0918-0.0781-0.0781-0.2861,0.0254-0.3252
			c0.5986,0.0254,1.04,0.0391,1.5342,0.0391c0.5596,0,0.8975-0.0137,1.3389-0.0391c0.1045,0.0645,0.1045,0.2471,0.0264,0.3252
			l-0.1816,0.0254c-0.416,0.0654-0.6768,0.1689-0.7285,0.2734c-0.2207,0.4678-0.1953,2.0801-0.1953,2.6777V9.8038z"/>
	</g>
	<g>
		<path class="st0" d="M1.505,29.8146c0-2.5996,1.9497-4.5889,4.6279-4.5889c3.0034,0,4.5112,2.1709,4.5112,4.459
			c0,2.626-2.002,4.5371-4.5112,4.5371C3.2467,34.2218,1.505,32.1544,1.505,29.8146z M9.3443,30.088
			c0-2.1455-0.9492-4.46-3.4321-4.46c-1.3521,0-3.1074,0.9238-3.1074,3.7705c0,1.9238,0.936,4.4199,3.4971,4.4199
			C7.8619,33.8185,9.3443,32.6486,9.3443,30.088z"/>
		<path class="st0" d="M13.7769,29.0997c0,0.3506,0.0391,0.3506,0.4292,0.3506h0.8838c0.5332,0,0.9492-0.0254,1.105-0.0781
			c0.1431-0.0518,0.2471-0.1162,0.3252-0.4541l0.1172-0.5205c0.0649-0.0781,0.2861-0.0781,0.3379,0
			c0,0.3115-0.0518,0.832-0.0518,1.3135c0,0.4678,0.0518,0.9619,0.0518,1.2607c-0.0518,0.0781-0.2471,0.0781-0.3379,0
			l-0.1299-0.5068c-0.0654-0.2344-0.1694-0.416-0.416-0.4941c-0.1821-0.0518-0.5073-0.0654-1.0015-0.0654h-0.8838
			c-0.3901,0-0.4292,0.0137-0.4292,0.3516v1.8066c0,1.3652,0.0264,1.5605,0.793,1.625l0.4424,0.0391
			c0.0776,0.0518,0.0518,0.2861-0.0264,0.3252c-0.7666-0.0264-1.209-0.0391-1.729-0.0391c-0.5718,0-1.0142,0.0127-1.625,0.0391
			c-0.0781-0.0391-0.104-0.2471-0.0259-0.3252l0.3252-0.0391c0.7539-0.0908,0.7798-0.2598,0.7798-1.625v-4.6797
			c0-1.3652-0.0259-1.5479-0.7798-1.6387l-0.208-0.0254c-0.0781-0.0527-0.0522-0.2861,0.0259-0.3252
			c0.5459,0.0254,0.9878,0.0391,1.5078,0.0391h2.3921c0.832,0,1.5859,0,1.7554-0.0391c0,0.5977,0.0127,1.2217,0.0386,1.7158
			c-0.0386,0.0781-0.2207,0.1172-0.3115,0.0391c-0.1045-0.585-0.2603-1.0664-0.9102-1.2354
			c-0.2861-0.0781-0.7153-0.0781-1.2612-0.0781h-0.793c-0.3901,0-0.3901,0.0264-0.3901,0.5205V29.0997z"/>
	</g>
	<g>
		<path class="st0" d="M28.464,29.8361c-0.126-0.3955-0.1982-0.4492-0.7383-0.4492h-2.7188c-0.4502,0-0.5581,0.0537-0.6841,0.4316
			l-0.6304,1.8906c-0.27,0.8105-0.396,1.2969-0.396,1.4941c0,0.2168,0.0898,0.3242,0.522,0.3604l0.5942,0.0537
			c0.126,0.0908,0.126,0.3789-0.0356,0.4502c-0.4683-0.0361-1.0264-0.0361-1.873-0.0537c-0.5938,0-1.2422,0.0361-1.7285,0.0537
			c-0.1079-0.0713-0.1436-0.3594-0.0356-0.4502l0.5942-0.0537c0.4321-0.0361,0.8281-0.2344,1.0801-0.8818
			c0.3242-0.8281,0.8281-1.999,1.5845-4.0156l1.8364-4.8613c0.2524-0.6484,0.3604-0.9902,0.3062-1.2783
			c0.4321-0.126,0.7383-0.4502,0.9365-0.6846c0.1079,0,0.2339,0.0361,0.27,0.1621c0.2339,0.792,0.522,1.6211,0.792,2.4131
			l2.4668,7.2383c0.5225,1.5479,0.7563,1.8184,1.5308,1.9082l0.4858,0.0537c0.126,0.0908,0.0903,0.3789,0,0.4502
			c-0.7383-0.0361-1.3682-0.0537-2.1787-0.0537c-0.8643,0-1.5483,0.0361-2.0703,0.0537c-0.144-0.0713-0.1621-0.3594-0.0361-0.4502
			l0.522-0.0537c0.3784-0.0361,0.6304-0.1436,0.6304-0.3242c0-0.1982-0.0898-0.5225-0.2339-0.9541L28.464,29.8361z M24.899,28.2345
			c-0.144,0.4141-0.126,0.4316,0.3779,0.4316h2.2148c0.522,0,0.5581-0.0723,0.396-0.5586l-0.9722-2.9346
			c-0.144-0.4316-0.3062-0.918-0.4141-1.1338h-0.0361c-0.0542,0.0898-0.2339,0.5215-0.4321,1.0615L24.899,28.2345z"/>
	</g>
	<g>
		<path class="st0" d="M33.7437,27.4093c0-1.3779-0.0259-1.5986-0.793-1.6641l-0.3252-0.0254
			c-0.0781-0.0527-0.0518-0.2861,0.0264-0.3252c0.6499,0.0254,1.0918,0.0391,1.6377,0.0391c0.52,0,0.9619-0.0137,1.6123-0.0391
			c0.0781,0.0391,0.104,0.2725,0.0259,0.3252l-0.3252,0.0254c-0.7671,0.0654-0.793,0.2861-0.793,1.6641v4.6279
			c0,1.3789,0.0259,1.5605,0.793,1.6514l0.3252,0.0391c0.0781,0.0518,0.0522,0.2861-0.0259,0.3252
			c-0.6504-0.0264-1.0923-0.0391-1.6123-0.0391c-0.5459,0-0.9878,0.0127-1.6377,0.0391c-0.0781-0.0391-0.1045-0.2471-0.0264-0.3252
			l0.3252-0.0391c0.7671-0.0908,0.793-0.2725,0.793-1.6514V27.4093z"/>
		<path class="st0" d="M37.9425,27.3966c0-1.2354-0.0391-1.4561-0.5718-1.5215l-0.416-0.0518
			c-0.0913-0.0645-0.0913-0.2725,0.0127-0.3252c0.728-0.0645,1.625-0.1035,2.8994-0.1035c0.8057,0,1.5728,0.0645,2.1709,0.3896
			c0.624,0.3252,1.0791,0.9102,1.0791,1.8203c0,1.2354-0.9751,1.9111-1.625,2.1709c-0.0654,0.0781,0,0.208,0.0649,0.3125
			c1.04,1.6768,1.729,2.7168,2.6128,3.458c0.2212,0.1943,0.5464,0.3379,0.8975,0.3643c0.0649,0.0254,0.0776,0.1299,0.0127,0.1816
			c-0.1172,0.0391-0.3252,0.0645-0.5718,0.0645c-1.105,0-1.7681-0.3242-2.6914-1.6377c-0.3379-0.4814-0.8711-1.3779-1.2739-1.9629
			c-0.1948-0.2861-0.4028-0.416-0.9229-0.416c-0.585,0-0.6113,0.0127-0.6113,0.2861v1.6377c0,1.3652,0.0264,1.5215,0.7803,1.625
			l0.2729,0.0391c0.0781,0.0654,0.0518,0.2861-0.0259,0.3252c-0.585-0.0264-1.0273-0.0391-1.5474-0.0391
			c-0.5459,0-1.0142,0.0127-1.625,0.0391c-0.0781-0.0391-0.104-0.2344-0.0259-0.3252l0.3252-0.0391
			c0.7539-0.0908,0.7798-0.2598,0.7798-1.625V27.3966z M39.0084,29.256c0,0.2334,0,0.377,0.0391,0.4287
			c0.0391,0.0391,0.2339,0.0654,0.897,0.0654c0.4683,0,0.9624-0.0527,1.3394-0.3389c0.3506-0.2725,0.6499-0.7275,0.6499-1.6113
			c0-1.0273-0.6372-2.0029-2.0801-2.0029c-0.8062,0-0.8452,0.0527-0.8452,0.416V29.256z"/>
		<path class="st0" d="M47.1983,32.0636c0,1.3652,0.0254,1.5342,0.8574,1.625l0.3516,0.0391
			c0.0781,0.0654,0.0518,0.2861-0.0264,0.3252c-0.7412-0.0264-1.1699-0.0391-1.6895-0.0391c-0.5459,0-1.0142,0.0127-1.5859,0.0391
			c-0.0781-0.0391-0.104-0.2471-0.0264-0.3252l0.2729-0.0391c0.7544-0.1035,0.7803-0.2598,0.7803-1.625v-4.7969
			c0-1.1055-0.0259-1.3262-0.6108-1.3916l-0.4683-0.0518c-0.0908-0.0781-0.0781-0.2725,0.0259-0.3252
			c0.689-0.0908,1.4951-0.1035,2.5742-0.1035s1.8848,0.1426,2.4961,0.5195c0.5977,0.377,1.04,1.0537,1.04,1.9502
			c0,1.1963-0.7412,1.7939-1.2998,2.0674c-0.5723,0.2725-1.2617,0.3896-1.7949,0.3896c-0.0908-0.0391-0.0908-0.2334-0.0127-0.2598
			c1.4043-0.2598,1.9111-1.0527,1.9111-2.1846c0-1.2607-0.7412-2.0801-2.0928-2.0801c-0.6895,0-0.7021,0.0527-0.7021,0.4688V32.0636
			z"/>
		<path class="st0" d="M52.0079,29.8146c0-2.5996,1.9502-4.5889,4.6279-4.5889c3.0039,0,4.5117,2.1709,4.5117,4.459
			c0,2.626-2.002,4.5371-4.5117,4.5371C53.7501,34.2218,52.0079,32.1544,52.0079,29.8146z M59.8477,30.088
			c0-2.1455-0.9492-4.46-3.4326-4.46c-1.3516,0-3.1074,0.9238-3.1074,3.7705c0,1.9238,0.9365,4.4199,3.4971,4.4199
			C58.3653,33.8185,59.8477,32.6486,59.8477,30.088z"/>
		<path class="st0" d="M63.214,27.3966c0-1.2354-0.0391-1.4561-0.5723-1.5215l-0.416-0.0518
			c-0.0908-0.0645-0.0908-0.2725,0.0137-0.3252c0.7275-0.0645,1.625-0.1035,2.8984-0.1035c0.8066,0,1.5732,0.0645,2.1719,0.3896
			c0.624,0.3252,1.0791,0.9102,1.0791,1.8203c0,1.2354-0.9756,1.9111-1.625,2.1709c-0.0654,0.0781,0,0.208,0.0645,0.3125
			c1.04,1.6768,1.7295,2.7168,2.6133,3.458c0.2207,0.1943,0.5459,0.3379,0.8965,0.3643c0.0654,0.0254,0.0781,0.1299,0.0137,0.1816
			c-0.1172,0.0391-0.3252,0.0645-0.5723,0.0645c-1.1055,0-1.7676-0.3242-2.6914-1.6377c-0.3379-0.4814-0.8711-1.3779-1.2734-1.9629
			c-0.1953-0.2861-0.4033-0.416-0.9229-0.416c-0.5859,0-0.6113,0.0127-0.6113,0.2861v1.6377c0,1.3652,0.0254,1.5215,0.7803,1.625
			l0.2725,0.0391c0.0781,0.0654,0.0518,0.2861-0.0254,0.3252c-0.5859-0.0264-1.0273-0.0391-1.5479-0.0391
			c-0.5459,0-1.0137,0.0127-1.625,0.0391c-0.0781-0.0391-0.1035-0.2344-0.0254-0.3252l0.3242-0.0391
			c0.7549-0.0908,0.7803-0.2598,0.7803-1.625V27.3966z M64.2804,29.256c0,0.2334,0,0.377,0.0391,0.4287
			c0.0391,0.0391,0.2334,0.0654,0.8965,0.0654c0.4688,0,0.9619-0.0527,1.3398-0.3389c0.3506-0.2725,0.6494-0.7275,0.6494-1.6113
			c0-1.0273-0.6367-2.0029-2.0801-2.0029c-0.8057,0-0.8447,0.0527-0.8447,0.416V29.256z"/>
		<path class="st0" d="M73.9395,32.0636c0,1.3652,0.0254,1.5605,0.7793,1.625l0.416,0.0391
			c0.0781,0.0518,0.0527,0.2861-0.0254,0.3252c-0.7412-0.0264-1.1836-0.0391-1.7031-0.0391c-0.5205,0-0.9756,0.0127-1.8076,0.0391
			c-0.0771-0.0391-0.1035-0.2598,0-0.3252l0.4688-0.0391c0.7412-0.0645,0.8057-0.2598,0.8057-1.625v-5.8115
			c0-0.4023,0-0.416-0.3896-0.416h-0.7148c-0.5596,0-1.2744,0.0264-1.5996,0.3252c-0.3115,0.2861-0.4424,0.5723-0.585,0.8975
			c-0.1035,0.0781-0.2861,0.0127-0.3379-0.0908c0.208-0.585,0.4033-1.417,0.4941-1.9375c0.0391-0.0264,0.208-0.0391,0.2471,0
			c0.0781,0.416,0.5068,0.4033,1.1045,0.4033h5.2656c0.7021,0,0.8193-0.0264,1.0137-0.3643
			c0.0654-0.0264,0.208-0.0127,0.2344,0.0391c-0.1436,0.5332-0.2344,1.5859-0.1953,1.9756
			c-0.0518,0.1045-0.2725,0.1045-0.3379,0.0264c-0.0391-0.3252-0.1299-0.8057-0.3252-0.9492
			c-0.2988-0.2207-0.793-0.3252-1.5078-0.3252h-0.9229c-0.3906,0-0.377,0.0137-0.377,0.4424V32.0636z"/>
	</g>
	<g>
		<path class="st0" d="M83.1349,24.8312c0-1.873-0.0361-2.1426-1.0986-2.2686l-0.2881-0.0361
			c-0.1084-0.0723-0.0723-0.3965,0.0361-0.4502c0.7744,0.0361,1.3867,0.0537,2.125,0.0537h3.3848c1.1523,0,2.2148,0,2.4307-0.0537
			c0.1084,0.3057,0.2158,1.6025,0.2881,2.3945c-0.0723,0.1084-0.3604,0.1445-0.4502,0.0361
			c-0.2705-0.8467-0.4326-1.4766-1.3682-1.7109c-0.3779-0.0898-0.9541-0.1074-1.7471-0.1074h-1.2959
			c-0.54,0-0.54,0.0361-0.54,0.7197v3.6016c0,0.5039,0.0537,0.5039,0.5938,0.5039h1.0439c0.7568,0,1.3145-0.0361,1.5312-0.1084
			c0.2158-0.0713,0.3418-0.1797,0.4316-0.6299l0.1445-0.7383c0.0898-0.1074,0.3955-0.1074,0.4678,0.0186
			c0,0.4316-0.0723,1.1338-0.0723,1.8184c0,0.6484,0.0723,1.332,0.0723,1.7285c-0.0723,0.126-0.3779,0.126-0.4678,0.0176
			l-0.1621-0.7021c-0.0723-0.3242-0.1982-0.5938-0.5586-0.6836c-0.252-0.0723-0.6836-0.0908-1.3867-0.0908h-1.0439
			c-0.54,0-0.5938,0.0186-0.5938,0.4863v2.5391c0,0.9541,0.0537,1.5664,0.3418,1.8721c0.2158,0.2168,0.5938,0.4141,2.1787,0.4141
			c1.3867,0,1.9082-0.0713,2.3047-0.2695c0.3242-0.1797,0.8105-0.8105,1.2783-1.7471c0.126-0.0898,0.3779-0.0352,0.4502,0.126
			c-0.126,0.6309-0.5762,2.0176-0.8105,2.5029c-1.6201-0.0361-3.2227-0.0537-4.8252-0.0537h-1.6201
			c-0.7744,0-1.3867,0.0176-2.4492,0.0537c-0.1084-0.0537-0.1436-0.3418-0.0361-0.4502l0.5947-0.0537
			c1.0264-0.0898,1.1162-0.3604,1.1162-2.251V24.8312z"/>
	</g>
	<g>
		<path class="st0" d="M99.7306,33.7277c0.0908,0.0781,0.0781,0.2598-0.0127,0.3252c-0.5986-0.0264-1.1055-0.0391-1.6387-0.0391
			c-0.585,0-1.209,0.0127-1.6768,0.0391c-0.0781-0.0781-0.0908-0.2471-0.0264-0.3252l0.377-0.0391
			c0.2998-0.0254,0.4424-0.0781,0.4424-0.1689c0-0.0781-0.0264-0.208-0.2861-0.5723c-0.5586-0.793-1.2871-1.8721-1.8594-2.6123
			c-0.3506,0.4414-1.3125,1.8584-1.833,2.7686c-0.1035,0.1816-0.1689,0.3252-0.1689,0.416c0,0.0781,0.1172,0.1436,0.377,0.1689
			l0.3516,0.0391c0.0908,0.0781,0.0645,0.2598-0.0137,0.3252c-0.4678-0.0264-0.9619-0.0391-1.4033-0.0391
			c-0.4424,0-0.9229,0.0127-1.3389,0.0391c-0.1172-0.0518-0.1309-0.2471-0.0391-0.3252l0.3242-0.0391
			c0.7021-0.0781,1.1572-0.6367,1.5479-1.1572c0.1553-0.208,1.0527-1.3516,1.7676-2.3916c0.0908-0.1299,0.1172-0.2207,0.1172-0.2598
			s-0.0518-0.1562-0.1562-0.2998l-1.9502-2.7949c-0.4287-0.6104-0.6758-0.8711-1.1309-0.9746l-0.416-0.0908
			c-0.0645-0.0781-0.0518-0.2861,0.0264-0.3252c0.6104,0.0254,1.04,0.0391,1.5078,0.0391c0.5068,0,1.0918-0.0137,1.4688-0.0391
			c0.0908,0.0391,0.1045,0.2334,0.0264,0.3252l-0.3643,0.0254c-0.2334,0.0137-0.3896,0.0908-0.3896,0.1689
			c0,0.1172,0.1299,0.3379,0.3896,0.7148c0.4287,0.625,1.1963,1.7949,1.6641,2.3799c0.3379-0.416,1.5078-2.2627,1.7422-2.6523
			c0.1045-0.1689,0.1816-0.3379,0.1816-0.4287c0-0.0654-0.1943-0.1436-0.4287-0.1689l-0.3379-0.0391
			c-0.0781-0.0918-0.0781-0.2734,0.0264-0.3252c0.4551,0.0254,0.8711,0.0391,1.3779,0.0391c0.4805,0,0.8447-0.0137,1.248-0.0391
			c0.0908,0.0645,0.1035,0.2471,0.0254,0.3252l-0.3115,0.0254c-0.3906,0.0391-0.8584,0.4297-1.3916,1.1055
			c-0.5068,0.6494-1.0654,1.4297-1.6895,2.3008c-0.0781,0.1172-0.1299,0.208-0.1299,0.2471s0.0127,0.1299,0.1689,0.3379
			l2.1973,3.0947c0.4414,0.6104,0.7793,0.8184,1.1826,0.8574L99.7306,33.7277z"/>
		<path class="st0" d="M100.9005,27.3839c0-1.3525-0.0264-1.5479-0.793-1.6387l-0.208-0.0254
			c-0.0781-0.0527-0.0527-0.2861,0.0254-0.3252c0.5596,0.0254,1.001,0.0391,1.5342,0.0391h2.4443c0.832,0,1.5986,0,1.7549-0.0391
			c0.0781,0.2207,0.1562,1.1572,0.208,1.7285c-0.0518,0.0781-0.2598,0.1045-0.3252,0.0264
			c-0.1943-0.6113-0.3115-1.0664-0.9873-1.2354c-0.2734-0.0645-0.6895-0.0781-1.2617-0.0781h-0.9355
			c-0.3906,0-0.3906,0.0264-0.3906,0.5205v2.5996c0,0.3643,0.0391,0.3643,0.4297,0.3643h0.7539
			c0.5459,0,0.9492-0.0254,1.1045-0.0781c0.1562-0.0518,0.2471-0.1299,0.3125-0.4551l0.1035-0.5322
			c0.0654-0.0781,0.2861-0.0781,0.3389,0.0127c0,0.3115-0.0527,0.8193-0.0527,1.3125c0,0.4688,0.0527,0.9629,0.0527,1.248
			c-0.0527,0.0918-0.2734,0.0918-0.3389,0.0137l-0.1162-0.5068c-0.0527-0.2344-0.1436-0.4297-0.4033-0.4941
			c-0.1816-0.0527-0.4941-0.0654-1.001-0.0654h-0.7539c-0.3906,0-0.4297,0.0127-0.4297,0.3516v1.833
			c0,0.6885,0.0391,1.1309,0.2471,1.3516c0.1562,0.1562,0.4297,0.2988,1.5732,0.2988c1.001,0,1.3779-0.0518,1.6641-0.1943
			c0.2344-0.1309,0.585-0.585,0.9229-1.2617c0.0918-0.0645,0.2734-0.0254,0.3252,0.0918c-0.0908,0.4541-0.416,1.4551-0.585,1.8066
			c-1.1699-0.0264-2.3271-0.0391-3.4844-0.0391h-1.1699c-0.5586,0-1.001,0.0127-1.7676,0.0391
			c-0.0781-0.0391-0.1045-0.2471-0.0264-0.3252l0.4287-0.0391c0.7412-0.0645,0.8066-0.2598,0.8066-1.625V27.3839z"/>
		<path class="st0" d="M108.8429,26.3302c0.9492-0.7402,2.1582-1.1045,3.5107-1.1045c0.7021,0,1.6895,0.1426,2.3008,0.3115
			c0.1562,0.0391,0.2471,0.0654,0.3643,0.0527c0.0127,0.2988,0.0781,1.1172,0.1816,1.9102
			c-0.0645,0.0918-0.2598,0.1045-0.3506,0.0264c-0.1953-0.8838-0.7803-1.8984-2.665-1.8984c-1.9893,0-3.6797,1.2617-3.6797,3.9521
			c0,2.7305,1.7295,4.2383,3.8613,4.2383c1.6768,0,2.418-1.0918,2.7168-1.8584c0.0918-0.0654,0.2861-0.0391,0.3389,0.0518
			c-0.0918,0.6758-0.4297,1.5342-0.624,1.7812c-0.1562,0.0254-0.3125,0.0781-0.4551,0.1299
			c-0.2861,0.1035-1.2227,0.2988-2.0547,0.2988c-1.1699,0-2.2881-0.2344-3.2373-0.8711c-1.04-0.7148-1.8457-1.8984-1.8457-3.5752
			C107.2052,28.3322,107.8556,27.0978,108.8429,26.3302z"/>
		<path class="st0" d="M123.3517,28.6964c0-0.8057-0.0264-2.3008-0.2471-2.6904c-0.0908-0.1562-0.3252-0.2471-0.6504-0.2734
			l-0.3252-0.0264c-0.0771-0.0908-0.0518-0.2598,0.0264-0.3115c0.4941,0.0254,0.9756,0.0391,1.4824,0.0391
			c0.5459,0,0.8965-0.0137,1.3652-0.0391c0.1035,0.0645,0.0908,0.2334,0.0254,0.3115l-0.3115,0.0264
			c-0.3252,0.0264-0.5723,0.1426-0.6504,0.3115c-0.1816,0.4297-0.1816,1.9248-0.1816,2.6523v1.4697
			c0,1.1309-0.1826,2.3262-0.9102,3.1064c-0.5596,0.6113-1.5215,0.9492-2.4834,0.9492c-0.8965,0-1.7939-0.1689-2.4307-0.7148
			c-0.6895-0.5723-1.0146-1.5215-1.0146-3.0684v-3.0684c0-1.3516-0.0254-1.5732-0.7793-1.6377l-0.3252-0.0264
			c-0.0781-0.0518-0.0527-0.2725,0.0254-0.3115c0.6504,0.0254,1.0928,0.0391,1.6123,0.0391c0.5332,0,0.9619-0.0137,1.5996-0.0391
			c0.0771,0.0391,0.1035,0.2598,0.0254,0.3115l-0.3115,0.0264c-0.7539,0.0645-0.7803,0.2861-0.7803,1.6377v2.8086
			c0,2.0928,0.6504,3.4707,2.6387,3.4707c1.8857,0,2.6006-1.4814,2.6006-3.458V28.6964z"/>
		<path class="st0" d="M129.7726,32.0636c0,1.3652,0.0264,1.5605,0.7803,1.625l0.416,0.0391
			c0.0781,0.0518,0.0518,0.2861-0.0264,0.3252c-0.7402-0.0264-1.1826-0.0391-1.7031-0.0391c-0.5195,0-0.9746,0.0127-1.8066,0.0391
			c-0.0781-0.0391-0.1035-0.2598,0-0.3252l0.4678-0.0391c0.7412-0.0645,0.8066-0.2598,0.8066-1.625v-5.8115
			c0-0.4023,0-0.416-0.3906-0.416h-0.7148c-0.5586,0-1.2744,0.0264-1.5986,0.3252c-0.3125,0.2861-0.4424,0.5723-0.585,0.8975
			c-0.1045,0.0781-0.2861,0.0127-0.3389-0.0908c0.208-0.585,0.4033-1.417,0.4941-1.9375c0.0391-0.0264,0.208-0.0391,0.2471,0
			c0.0781,0.416,0.5068,0.4033,1.1055,0.4033h5.2646c0.7021,0,0.8193-0.0264,1.0146-0.3643
			c0.0645-0.0264,0.208-0.0127,0.2334,0.0391c-0.1426,0.5332-0.2334,1.5859-0.1943,1.9756
			c-0.0527,0.1045-0.2734,0.1045-0.3379,0.0264c-0.0391-0.3252-0.1309-0.8057-0.3252-0.9492
			c-0.2988-0.2207-0.793-0.3252-1.5078-0.3252h-0.9238c-0.3896,0-0.377,0.0137-0.377,0.4424V32.0636z"/>
		<path class="st0" d="M135.0382,27.4093c0-1.3779-0.0264-1.5986-0.793-1.6641l-0.3252-0.0254
			c-0.0781-0.0527-0.0518-0.2861,0.0264-0.3252c0.6494,0.0254,1.0918,0.0391,1.6377,0.0391c0.5195,0,0.9619-0.0137,1.6123-0.0391
			c0.0781,0.0391,0.1035,0.2725,0.0254,0.3252l-0.3252,0.0254c-0.7666,0.0654-0.793,0.2861-0.793,1.6641v4.6279
			c0,1.3789,0.0264,1.5605,0.793,1.6514l0.3252,0.0391c0.0781,0.0518,0.0527,0.2861-0.0254,0.3252
			c-0.6504-0.0264-1.0928-0.0391-1.6123-0.0391c-0.5459,0-0.9883,0.0127-1.6377,0.0391c-0.0781-0.0391-0.1045-0.2471-0.0264-0.3252
			l0.3252-0.0391c0.7666-0.0908,0.793-0.2725,0.793-1.6514V27.4093z"/>
		<path class="st0" d="M138.8731,26.8117c-0.2998-0.7285-0.4941-1.001-1.0537-1.0664l-0.2334-0.0254
			c-0.0918-0.0781-0.0781-0.2607,0.0254-0.3252c0.377,0.0254,0.793,0.0391,1.3525,0.0391c0.5713,0,1.0264-0.0137,1.5732-0.0391
			c0.0908,0.0518,0.1162,0.2471,0.0254,0.3252l-0.1953,0.0254c-0.4932,0.0654-0.5977,0.1436-0.6104,0.2471
			c0.0254,0.1299,0.2471,0.832,0.6494,1.8203c0.5986,1.5078,1.1963,3.0029,1.8467,4.4854c0.4023-0.8584,0.9492-2.1973,1.248-2.8867
			c0.377-0.8838,0.9883-2.3525,1.209-2.9121c0.1035-0.2725,0.1172-0.416,0.1172-0.5068s-0.1299-0.1953-0.585-0.2471l-0.2344-0.0254
			c-0.0908-0.0781-0.0654-0.2734,0.0264-0.3252c0.3633,0.0254,0.8574,0.0391,1.3516,0.0391c0.4287,0,0.832-0.0137,1.2607-0.0391
			c0.0918,0.0518,0.0918,0.2598,0.0264,0.3252l-0.3896,0.0254c-0.3125,0.0264-0.5078,0.1826-0.6768,0.4551
			c-0.3633,0.6113-0.8711,1.6641-1.4561,2.9902l-0.7012,1.5986c-0.5205,1.1963-1.1318,2.7051-1.3525,3.3936
			c-0.0391,0.0264-0.0908,0.0391-0.1426,0.0391c-0.0654,0-0.1309-0.0127-0.1953-0.0391c-0.1436-0.5459-0.377-1.1826-0.5977-1.7295
			L138.8731,26.8117z"/>
		<path class="st0" d="M147.8292,27.3839c0-1.3525-0.0254-1.5479-0.793-1.6387l-0.208-0.0254
			c-0.0781-0.0527-0.0518-0.2861,0.0264-0.3252c0.5586,0.0254,1.001,0.0391,1.5342,0.0391h2.4434c0.832,0,1.5996,0,1.7559-0.0391
			c0.0781,0.2207,0.1553,1.1572,0.208,1.7285c-0.0527,0.0781-0.2607,0.1045-0.3252,0.0264
			c-0.1953-0.6113-0.3125-1.0664-0.9883-1.2354c-0.2725-0.0645-0.6885-0.0781-1.2607-0.0781h-0.9365
			c-0.3896,0-0.3896,0.0264-0.3896,0.5205v2.5996c0,0.3643,0.0391,0.3643,0.4287,0.3643h0.7539
			c0.5459,0,0.9492-0.0254,1.1055-0.0781c0.1562-0.0518,0.2471-0.1299,0.3115-0.4551l0.1045-0.5322
			c0.0645-0.0781,0.2861-0.0781,0.3379,0.0127c0,0.3115-0.0518,0.8193-0.0518,1.3125c0,0.4688,0.0518,0.9629,0.0518,1.248
			c-0.0518,0.0918-0.2734,0.0918-0.3379,0.0137l-0.1172-0.5068c-0.0518-0.2344-0.1426-0.4297-0.4033-0.4941
			c-0.1816-0.0527-0.4932-0.0654-1.001-0.0654h-0.7539c-0.3896,0-0.4287,0.0127-0.4287,0.3516v1.833
			c0,0.6885,0.0391,1.1309,0.2471,1.3516c0.1562,0.1562,0.4287,0.2988,1.5732,0.2988c1.001,0,1.3779-0.0518,1.6641-0.1943
			c0.2334-0.1309,0.585-0.585,0.9229-1.2617c0.0908-0.0645,0.2725-0.0254,0.3252,0.0918c-0.0918,0.4541-0.416,1.4551-0.585,1.8066
			c-1.1709-0.0264-2.3271-0.0391-3.4844-0.0391h-1.1699c-0.5596,0-1.001,0.0127-1.7686,0.0391
			c-0.0781-0.0391-0.1035-0.2471-0.0254-0.3252l0.4287-0.0391c0.7412-0.0645,0.8057-0.2598,0.8057-1.625V27.3839z"/>
		<path class="st0" d="M156.4747,34.2218c-1.0918,0-1.7812-0.3379-2.0283-0.4814c-0.1562-0.2852-0.3252-1.209-0.3506-1.8193
			c0.0645-0.0908,0.2598-0.1172,0.3115-0.0391c0.1953,0.6631,0.7285,1.9365,2.2363,1.9365c1.0918,0,1.625-0.7148,1.625-1.4951
			c0-0.5713-0.1172-1.209-1.0664-1.8193l-1.2344-0.8066c-0.6504-0.4287-1.4043-1.1699-1.4043-2.2363
			c0-1.2344,0.9619-2.2354,2.6523-2.2354c0.4023,0,0.8711,0.0781,1.209,0.1689c0.1689,0.0518,0.3506,0.0781,0.4551,0.0781
			c0.1162,0.3115,0.2334,1.04,0.2334,1.5859c-0.0518,0.0781-0.2598,0.1172-0.3252,0.0391c-0.1689-0.624-0.5195-1.4697-1.7676-1.4697
			c-1.2744,0-1.5469,0.8457-1.5469,1.4434c0,0.7539,0.624,1.2998,1.1045,1.5996l1.04,0.6494
			c0.8193,0.5068,1.625,1.2617,1.625,2.4961C159.2433,33.2472,158.1642,34.2218,156.4747,34.2218z"/>
	</g>
</g>
<g id="Group_372" transform="translate(0)">
	<rect id="Rectangle_240" class="st0" width="33.12" height="33.124"/>
	<rect id="Rectangle_241" x="33.12" class="st1" width="33.125" height="33.124"/>
	<rect id="Rectangle_242" y="33.124" class="st1" width="33.12" height="33.124"/>
	<rect id="Rectangle_243" x="33.12" y="33.124" class="st0" width="33.125" height="33.124"/>
	<g id="Group_371" transform="translate(0)">
		<g>
			<defs>
				<rect id="SVGID_1_" width="66.246" height="66.248"/>
			</defs>
			<clipPath id="SVGID_00000022523887521045343630000016178033255008928694_">
				<use xlink:href="#SVGID_1_"  style="overflow:visible;"/>
			</clipPath>
			<g id="Group_370" style="clip-path:url(#SVGID_00000022523887521045343630000016178033255008928694_);">
				<path id="Path_73" class="st3" d="M60.632,64.047H36.74c-0.078,0-0.078-0.163,0-0.163h3.625c0.2,0,0.282-0.035,0.282-0.159
					v-27.93c0-0.12-0.078-0.156-0.282-0.156H36.74c-0.078,0-0.078-0.163,0-0.163h21.713c0.12,0,0.12,0.082,0.12,0.121v8.295
					c0,0.088-0.161,0.088-0.161,0c0-3.738-2.739-8.253-7.893-8.253h-4.064c-0.206,0-0.29,0.036-0.29,0.156v13.5h1.048
					c3.0711,0.0476,5.6155-2.3714,5.723-5.441c0-0.0334,0.0271-0.0605,0.0605-0.0605s0.0605,0.0271,0.0605,0.0605v11.04
					c0,0.0334-0.0271,0.0605-0.0605,0.0605s-0.0605-0.0271-0.0605-0.0605c-0.1247-3.0612-2.6594-5.4693-5.723-5.437h-1.05v14.265
					c0,0.124,0.084,0.159,0.29,0.159h4.187c6.765,0,9.948-4.911,9.948-9.065c0-0.085,0.155-0.085,0.155,0v9.108
					c0,0.077-0.031,0.121-0.113,0.121"/>
				<path id="Path_74" class="st3" d="M50.279,20.822h-8.746L46.01,8.655L50.279,20.822z M63.452,30.891
					c0.082,0,0.082-0.156,0-0.156h-3.427c-0.1275,0.0073-0.249-0.0546-0.318-0.162L48.543,1.766c-0.038-0.123-0.162-0.123-0.2,0
					l-9.994,27.27c-0.562,1.58-0.647,1.7-1.015,1.7h-3.049c-0.082,0-0.082,0.156,0,0.156h7.613c0.077,0,0.077-0.156,0-0.156h-3.71
					c-0.24,0-0.195-0.247,0.325-1.7l2.981-8.051h8.864l3.427,9.589c0,0.081-0.046,0.162-0.2,0.162h-3.83
					c-0.127,0-0.127,0.156,0,0.156L63.452,30.891z"/>
				<path id="Path_75" class="st3" d="M17.161,20.822H8.416L12.89,8.655L17.161,20.822z M30.335,30.891c0.083,0,0.083-0.156,0-0.156
					h-3.427c-0.1283,0.0075-0.2508-0.0543-0.321-0.162L15.426,1.766c-0.04-0.123-0.159-0.123-0.2,0l-9.99,27.269
					c-0.564,1.58-0.647,1.7-1.009,1.7H1.164c-0.079,0-0.079,0.156,0,0.156h7.614c0.08,0,0.08-0.156,0-0.156h-3.7
					c-0.24,0-0.2-0.247,0.321-1.7l2.979-8.05h8.867l3.423,9.589c0,0.081-0.039,0.162-0.2,0.162h-3.83
					c-0.0431-0.0069-0.0836,0.0224-0.0905,0.0655c-0.0069,0.0431,0.0224,0.0836,0.0655,0.0905c0.0083,0.0013,0.0168,0.0013,0.0251,0
					L30.335,30.891z"/>
				<path id="Path_76" class="st3" d="M17.161,53.97H8.416L12.89,41.8L17.161,53.97z M30.335,64.039c0.083,0,0.083-0.163,0-0.163
					h-3.427c-0.1278,0.0086-0.2504-0.0521-0.321-0.159L15.426,34.915c-0.04-0.123-0.159-0.123-0.2,0l-9.99,27.277
					c-0.564,1.572-0.647,1.689-1.009,1.689H1.164c-0.079,0-0.079,0.163,0,0.163h7.614c0.08,0,0.08-0.163,0-0.163h-3.7
					c-0.24,0-0.2-0.233,0.321-1.689l2.979-8.055h8.867l3.423,9.584c0,0.081-0.039,0.159-0.2,0.159h-3.83
					c-0.045-0.005-0.0855,0.0275-0.0905,0.0725c-0.005,0.045,0.0275,0.0855,0.0725,0.0905c0.006,0.0007,0.0121,0.0007,0.0181,0
					L30.335,64.039z"/>
				<path id="Path_77" class="st4" d="M37.663,33.258c0.0011,2.6118-2.1152,4.7299-4.727,4.731
					c-2.6118,0.0011-4.7299-2.1153-4.731-4.727c-0.0011-2.6118,2.1153-4.7299,4.727-4.731c0.002,0,0.004,0,0.006,0
					C35.5472,28.5338,37.6613,30.6488,37.663,33.258"/>
				<path id="Path_78" class="st3" d="M31.349,32.563l0.468,1.967h-1.062L31.349,32.563z M28.385,34.53h1.543l1.352-2.819
					l1.513,2.819h4.524l-1.469-0.982h-2.524l-0.611-0.749h2.018l-0.922-0.626h-1.6l-0.4-0.484h1.282l-0.449-0.29h-1.7L28.385,34.53z
					"/>
			</g>
		</g>
	</g>
</g>
</svg>
