<?xml version="1.0" encoding="utf-8"?>
<!-- Generator: Adobe Illustrator 25.0.1, SVG Export Plug-In . SVG Version: 6.00 Build 0)  -->
<svg version="1.1" id="Layer_1" xmlns="http://www.w3.org/2000/svg" xmlns:xlink="http://www.w3.org/1999/xlink" x="0px" y="0px"
	 viewBox="0 0 100 27" style="enable-background:new 0 0 100 27;" xml:space="preserve">
<style type="text/css">
	.st0{fill:#1E1E1C;}
	.st1{fill:#FDDD07;}
	.st2{fill:#181817;}
	.st3{fill:#FFFFFF;}
	.st4{fill:#E5372B;}
	.st5{fill:#242118;}
	.st6{fill:#1D201D;}
</style>
<g>
	<path class="st0" d="M34,15h-1.4l-3.8,9.2h1.9l0.9-2.3H35l0.9,2.3h1.9L34,15z M32.1,20.6l0.7-1.8c0.3-0.7,0.4-1.1,0.5-1.4h0
		c0.1,0.3,0.2,0.7,0.5,1.4l0.7,1.8L32.1,20.6L32.1,20.6z"/>
	<path class="st0" d="M52.7,17.5c-2,0-3.1,1.5-3.1,3.5c0,1.8,1,3.4,3.6,3.4c0.9,0,1.7-0.2,2.5-0.6L55,22.6c-0.5,0.3-1,0.4-1.7,0.4
		c-1.2,0-1.9-0.7-2-1.7h4.5V21C55.7,18.8,54.6,17.5,52.7,17.5 M51.3,20.2c0-0.8,0.5-1.5,1.4-1.5c0.9,0,1.3,0.7,1.3,1.5H51.3z"/>
	<path class="st0" d="M83.1,17.5c-2,0-3.1,1.5-3.1,3.5c0,1.8,1,3.4,3.6,3.4c0.9,0,1.7-0.2,2.5-0.6l-0.5-1.1
		c-0.5,0.3-1.1,0.4-1.8,0.4c-1.2,0-1.9-0.7-2-1.7h4.5V21C86.2,18.8,85,17.5,83.1,17.5 M81.7,20.2c0-0.8,0.5-1.5,1.4-1.5
		c0.9,0,1.3,0.7,1.4,1.5H81.7z"/>
	<path class="st0" d="M97.1,15.6l-1.7,0.5v1.5h-1.2v1.3h1.2v3.6c0,1.1,0.7,1.8,2,1.8c0.7,0,1.5-0.2,2-0.5l-0.5-1.1
		c-0.3,0.2-0.7,0.3-1,0.3c-0.5,0-0.7-0.2-0.7-0.8v-3.3h0.1l0,0h0.6c0.8,0,1-0.4,1.1-0.6l0.4-0.7l0,0l0,0h-2l0,0h-0.1L97.1,15.6
		L97.1,15.6z"/>
	<path class="st0" d="M46.4,17.5c-1.6,0-2.6,0.8-2.6,2c0,2.2,3.3,1.8,3.3,2.9c0,0.5-0.5,0.7-1.2,0.7c-0.7,0-1.4-0.2-1.9-0.6
		l-0.1,0.2l-0.3,1.1c0.6,0.3,1.4,0.6,2.4,0.6c1.5,0,2.8-0.6,2.8-2c0-2.3-3.3-1.9-3.3-2.9c0-0.4,0.4-0.6,1-0.6s1.1,0.1,1.7,0.3
		l0.3-1.2v-0.1C47.9,17.6,47.2,17.5,46.4,17.5"/>
	<path class="st0" d="M59.2,17.5c-1.6,0-2.7,0.8-2.7,2c0,2.2,3.3,1.8,3.3,2.9c0,0.5-0.5,0.7-1.2,0.7c-0.7,0-1.3-0.2-1.8-0.5
		l-0.4,1.3c0.6,0.3,1.4,0.5,2.3,0.5c1.5,0,2.8-0.6,2.8-2c0-2.3-3.3-1.9-3.3-2.9c0-0.4,0.4-0.6,1-0.6c0.6,0,1.1,0.1,1.6,0.3l0.3-1.2
		v-0.1C60.7,17.6,60,17.5,59.2,17.5"/>
	<path class="st0" d="M65.1,17.5c-1.6,0-2.7,0.8-2.7,2c0,2.2,3.3,1.8,3.3,2.9c0,0.5-0.5,0.7-1.2,0.7c-0.7,0-1.3-0.2-1.9-0.5
		l-0.4,1.3c0.6,0.3,1.4,0.5,2.3,0.5c1.5,0,2.8-0.6,2.8-2c0-2.3-3.3-1.9-3.3-2.9c0-0.4,0.4-0.6,1-0.6c0.6,0,1.1,0.1,1.6,0.3l0.3-1.2
		v0C66.5,17.6,65.8,17.5,65.1,17.5"/>
	<path class="st0" d="M40.6,17.5c-1.6,0-2.6,0.8-2.6,2c0,2.2,3.3,1.8,3.3,2.9c0,0.5-0.5,0.7-1.2,0.7c-0.7,0-1.4-0.2-1.9-0.6l0,0
		l0.7,1.7c0.4,0.1,0.9,0.2,1.4,0.2c1.5,0,2.8-0.6,2.8-2c0-2.3-3.3-1.9-3.3-2.9c0-0.4,0.4-0.6,1-0.6s1.1,0.1,1.6,0.3l0.3-1.2v-0.1
		C42.1,17.6,41.4,17.5,40.6,17.5"/>
	<path class="st0" d="M68.3,17.4L68.3,17.4l0,3.8v3.1h1.7v-4.6c0.5-0.4,1.1-0.7,1.7-0.7c0.9,0,1,0.6,1,1.4v3.9h1.8v-4.4l0-0.2
		c0.5-0.4,1.1-0.7,1.7-0.7c0.9,0,1.1,0.6,1.1,1.4v3.9H79v-4.4c0-1.7-1.1-2.4-2.3-2.4c-0.8,0-1.7,0.4-2.5,1c-0.3-0.7-1-1-1.9-1
		c-0.9,0-1.7,0.4-2.3,0.9h-0.1c-0.2-0.4-0.5-0.5-0.6-0.6L68.3,17.4L68.3,17.4z"/>
	<path class="st0" d="M87.2,17.4L87.2,17.4l0,3.8v3.1h1.7v-4.6c0.5-0.4,1.1-0.7,1.7-0.7c0.9,0,1.1,0.7,1.1,1.5v3.8h1.8v-4.4
		c0-1.9-1.1-2.4-2.2-2.4c-0.9,0-1.7,0.4-2.4,0.9h-0.1c-0.2-0.4-0.5-0.5-0.6-0.6L87.2,17.4L87.2,17.4z"/>
	<path class="st0" d="M33.3,1.8c-3.1,0-5.1,2.1-5.1,4.8c0,2.7,1.7,4.6,4.9,4.6c0.9,0,2-0.2,3-0.7c-0.2-0.4-0.4-0.8-0.4-1.4
		c-0.7,0.4-1.4,0.6-2.4,0.6c-2,0-3.2-1.3-3.2-3.3c0-1.8,1.1-3.3,3.3-3.3c0.9,0,1.7,0.2,2.5,0.6V2.2C35.3,1.9,34.4,1.8,33.3,1.8"/>
	<path class="st0" d="M57.3,1.1h-1.8v9.5c0.6,0.3,1.4,0.5,2.3,0.5c2.4,0,4.2-1.3,4.2-3.6c0-2.1-1.5-3.2-3.3-3.2
		c-0.6,0-1,0.1-1.4,0.2V1.1z M58.1,9.7c-0.2,0-0.5,0-0.8-0.1V5.8c0.2-0.1,0.5-0.2,1-0.2c1.2,0,1.8,0.8,1.8,2
		C60.2,8.8,59.4,9.7,58.1,9.7"/>
	<path class="st0" d="M77.8,1.1h-1.8v3.2c-0.3-0.1-0.7-0.1-0.9-0.1c-2.2,0-3.8,1.4-3.8,3.5c0,2.2,1.7,3.4,3.9,3.4
		c0.9,0,1.9-0.2,2.6-0.5L77.8,1.1L77.8,1.1z M75.2,9.8c-1.3,0-2.1-0.7-2.1-2c0-1.4,0.9-2.1,2.1-2.1c0.4,0,0.6,0,0.8,0.1v3.9
		C75.8,9.7,75.5,9.8,75.2,9.8"/>
	<path class="st0" d="M88.8,4.3c-2,0-3.1,1.5-3.1,3.5c0,1.8,1,3.4,3.6,3.4c0.9,0,1.7-0.2,2.5-0.6l-0.5-1.1c-0.5,0.3-1,0.4-1.8,0.4
		c-1.2,0-1.9-0.7-2-1.7h4.5V7.8C91.9,5.6,90.8,4.3,88.8,4.3 M87.5,7c0-0.8,0.5-1.5,1.4-1.5c0.9,0,1.3,0.7,1.4,1.5H87.5z"/>
	<path class="st0" d="M39.5,4.3c-1,0-1.9,0.2-2.7,0.7L37.4,6c0.5-0.2,1.1-0.5,1.8-0.5c0.8,0,1.4,0.3,1.4,1.1v0.2l-1.2,0
		c-0.7,0-1.3,0.1-1.8,0.4c-0.7,0.3-1.2,0.9-1.2,1.8c0,1.3,1,2.1,2.3,2.1c0.9,0,1.5-0.3,2-0.8h0.1c0.2,0.2,0.4,0.3,0.5,0.4l0.9,0.4
		l0,0l0,0V7.3l0,0V6.6C42.3,5.1,41.4,4.3,39.5,4.3 M39.2,9.8c-0.6,0-1-0.3-1-0.9c0-0.3,0.1-0.6,0.4-0.7c0.2-0.1,0.6-0.2,1-0.2l0.9,0
		v1.4v0.1C40.3,9.6,39.8,9.8,39.2,9.8"/>
	<path class="st0" d="M43.7,4.1L43.7,4.1l0,1V11h1.8V7.9V6.3c0.5-0.4,1.1-0.7,1.7-0.7c0.9,0,1,0.6,1,1.4V11h1.8V6.6V6.3
		c0.5-0.4,1.1-0.7,1.7-0.7c0.9,0,1,0.6,1,1.4v3.9h1.7V6.6c0-1.7-1.1-2.4-2.3-2.4c-0.8,0-1.7,0.4-2.5,1c-0.3-0.7-1-1-1.9-1
		c-0.9,0-1.7,0.4-2.3,0.9h-0.1c-0.2-0.4-0.5-0.5-0.6-0.6L43.7,4.1L43.7,4.1z"/>
	<path class="st0" d="M66.6,4.3c-0.8,0-1.5,0.4-1.9,0.9l-0.2-0.7H63V11h1.8V6.4c0.6-0.6,1.1-0.8,1.5-0.8c0.6,0,1.1,0.4,1.1,0.4V4.4
		C67.1,4.3,66.9,4.3,66.6,4.3"/>
	<path class="st0" d="M69.3,1.4c-0.6,0-1.1,0.4-1.1,1s0.5,1,1.1,1c0.6,0,1.1-0.4,1.1-1C70.4,1.8,69.9,1.4,69.3,1.4 M70.2,4.4h-1.8
		V11h1.8V4.4z"/>
	<path class="st0" d="M85.6,4h-1.3h-1.4h0l0,0h-1.1C79.9,4,79,5.2,79,6.4c0,0.9,0.4,1.6,1.2,2c-0.6,0.4-0.8,0.9-0.8,1.2
		c0,0.4,0.2,0.7,0.5,0.8c-0.7,0.3-1.2,0.9-1.2,1.6c0,1.1,1.2,1.9,3.2,1.9c2.4,0,3.7-1,3.7-2.2c0-2.5-4.6-1.4-4.6-2.5
		c0-0.1,0.1-0.3,0.2-0.5C81.3,8.9,81.5,9,81.9,9c1.7,0,2.9-1,2.9-2.4c0-0.5-0.2-1-0.5-1.4h0.1h0.1l0,0c0.6-0.1,0.7-0.3,0.8-0.5
		L85.6,4L85.6,4L85.6,4z M81.9,7.7c-0.8,0-1.2-0.6-1.2-1.2c0-0.8,0.5-1.2,1.2-1.2c0.8,0,1.2,0.6,1.2,1.2C83.1,7.3,82.6,7.7,81.9,7.7
		 M82,12.9c-1.2,0-1.9-0.4-1.9-1c0-0.4,0.3-0.7,0.6-0.9c0.9,0.4,3.1,0.2,3.1,1.1C83.8,12.6,83.1,12.9,82,12.9"/>
	<path class="st1" d="M22.8,14.8c-0.1,1.1-0.2,2.2-0.5,3c-0.3,0.9-0.7,1.6-1.2,2.3c-1,1.2-2.2,1.8-3,2.2c-0.1,0-0.5,0.2-2.8,1.3
		l0,0.1h0.1v-8.9L22.8,14.8L22.8,14.8l-7.5,0v9.1l0.1-0.1c2.3-1,2.7-1.3,2.8-1.3c0.8-0.4,2-1,3-2.3c0.5-0.7,0.9-1.4,1.2-2.3
		c0.3-0.9,0.5-1.9,0.5-3.1L22.8,14.8z"/>
	<path class="st1" d="M9.5,14.8v8.9h0.1l0-0.1c-2.3-1-2.7-1.3-2.8-1.3c-0.8-0.4-2-1-3-2.2c-0.5-0.7-0.9-1.4-1.2-2.3
		c-0.3-0.9-0.5-1.9-0.5-3H2.1v0.1L9.5,14.8L9.5,14.8L2,14.7v0.1c0.1,1.1,0.2,2.2,0.5,3.1c0.3,0.9,0.7,1.7,1.2,2.3
		c1,1.2,2.2,1.9,3,2.3c0.1,0,0.6,0.2,2.8,1.3l0.1,0.1v-9L9.5,14.8L9.5,14.8z"/>
	<polygon class="st2" points="22.9,2.1 22.9,2 15.3,2 15.3,9.4 22.9,9.4 22.9,2 22.9,2 22.9,2.1 22.8,2.1 22.8,9.3 15.4,9.3 
		15.4,2.1 22.9,2.1 22.9,2.1 22.8,2.1 	"/>
	<polygon class="st2" points="9.6,2.1 9.6,2 2,2 2,9.4 9.6,9.4 9.6,2 9.6,2 9.6,2.1 9.5,2.1 9.5,9.3 2.1,9.3 2.1,2.1 9.6,2.1 
		9.6,2.1 9.5,2.1 	"/>
	<path class="st0" d="M12.4,26.2l-0.2-0.1c-0.3-0.2-5.6-2.7-5.9-2.8C4.6,22.4,1,20.5,1,14.1v-13h22.9v13c0,6.4-3.6,8.2-5.3,9.1
		c-0.3,0.2-5.6,2.7-5.9,2.8L12.4,26.2z"/>
	<path class="st3" d="M14.8,9.9V1.6h-4.7v8.3H1.5v4.3v0.1h8.6v10.3c1.2,0.6,2.3,1.1,2.3,1.1l0,0l0,0c0,0,1.1-0.5,2.3-1.1V14.3h8.6
		v-0.1V9.9H14.8z"/>
	<rect x="1.5" y="1.6" class="st4" width="8.6" height="8.3"/>
	<rect x="14.8" y="1.6" class="st4" width="8.6" height="8.3"/>
	<path class="st4" d="M10.1,14.3H1.5c0.1,6,3.3,7.7,5,8.6c0.2,0.1,2,1,3.6,1.7L10.1,14.3L10.1,14.3z"/>
	<path class="st4" d="M14.8,14.3v10.3c1.6-0.7,3.4-1.6,3.6-1.7c1.7-0.9,5-2.6,5-8.6L14.8,14.3L14.8,14.3z"/>
	<path class="st0" d="M17.7,12.1l0.2-0.2l-0.2-0.2l-0.2,0.2L17.7,12.1c-0.1,0.1-0.1,1-0.6,1.3c0,0,0.2,0,0.4,0c0,0,0,0.2,0.2,0.5
		c0.1-0.3,0.2-0.5,0.2-0.5c0.2,0.1,0.4,0,0.4,0C17.7,13.1,17.7,12.2,17.7,12.1"/>
	<path class="st0" d="M19.2,10.6l0.2-0.2l-0.2-0.2l-0.2,0.2L19.2,10.6c-0.1,0.1-0.1,1-0.6,1.3c0,0,0.2,0,0.4,0c0,0,0.1,0.2,0.2,0.5
		c0.1-0.3,0.2-0.5,0.2-0.5c0.2,0.1,0.4,0,0.4,0C19.2,11.6,19.2,10.7,19.2,10.6"/>
	<path class="st0" d="M20.6,12.1l0.2-0.2l-0.2-0.2l-0.2,0.2l0.2,0.2c0,0.1,0,1-0.6,1.3c0,0,0.2,0,0.4,0c0,0,0.1,0.2,0.2,0.5
		c0.1-0.3,0.2-0.5,0.2-0.5c0.2,0.1,0.4,0,0.4,0C20.5,13.1,20.6,12.2,20.6,12.1"/>
	<path class="st0" d="M22,10.6l0.2-0.2l-0.2-0.2l-0.2,0.2l0.2,0.2c0,0.1,0,1-0.6,1.3c0,0,0.2,0,0.4,0c0,0,0.1,0.2,0.2,0.5
		c0.1-0.3,0.2-0.5,0.2-0.5c0.2,0.1,0.4,0,0.4,0C21.9,11.6,22,10.7,22,10.6"/>
	<path class="st0" d="M16.3,10.6l0.2-0.2l-0.2-0.2l-0.2,0.2L16.3,10.6c-0.1,0.1-0.1,1-0.6,1.3c0,0,0.2,0,0.4,0c0,0,0.1,0.2,0.2,0.5
		c0.1-0.3,0.2-0.5,0.2-0.5c0.2,0.1,0.4,0,0.4,0C16.3,11.6,16.3,10.7,16.3,10.6"/>
	<path class="st0" d="M4.4,12.1l0.2-0.2l-0.2-0.2l-0.2,0.2l0.2,0.2c0,0.1,0,1-0.6,1.3c0,0,0.2,0,0.4,0c0,0,0.1,0.2,0.2,0.5
		c0.1-0.3,0.2-0.5,0.2-0.5c0.2,0.1,0.4,0,0.4,0C4.4,13.1,4.4,12.2,4.4,12.1"/>
	<path class="st0" d="M5.8,10.6L6,10.4l-0.2-0.2l-0.2,0.2L5.8,10.6c-0.1,0.1-0.1,1-0.6,1.3c0,0,0.2,0,0.4,0c0,0,0.1,0.2,0.2,0.5
		C5.9,12.1,6,11.9,6,11.9c0.2,0.1,0.4,0,0.4,0C5.8,11.6,5.8,10.7,5.8,10.6"/>
	<path class="st0" d="M7.2,12.1l0.2-0.2l-0.2-0.2L7,11.9l0.2,0.2c0,0.1,0,1-0.6,1.3c0,0,0.2,0,0.4,0c0,0,0.1,0.2,0.2,0.5
		c0.1-0.3,0.2-0.5,0.2-0.5c0.2,0.1,0.4,0,0.4,0C7.2,13.1,7.2,12.2,7.2,12.1"/>
	<path class="st0" d="M8.7,10.6l0.2-0.2l-0.2-0.2l-0.2,0.2L8.7,10.6c-0.1,0.1-0.1,1-0.6,1.3c0,0,0.2,0,0.4,0c0,0,0.1,0.2,0.2,0.5
		c0.1-0.3,0.2-0.5,0.2-0.5c0.2,0.1,0.4,0,0.4,0C8.7,11.6,8.7,10.7,8.7,10.6"/>
	<path class="st0" d="M3,10.6l0.2-0.2L3,10.2l-0.2,0.2l0.2,0.2c0,0.1,0,1-0.6,1.3c0,0,0.2,0,0.4,0c0,0,0.1,0.2,0.2,0.5
		c0.1-0.3,0.2-0.5,0.2-0.5c0.2,0.1,0.4,0,0.4,0C3,11.6,3,10.7,3,10.6"/>
	<path class="st0" d="M12.5,15.5l0.2-0.2l-0.2-0.2l-0.2,0.2l0.2,0.2c0,0.1,0,1-0.6,1.3c0,0,0.2,0,0.4,0c0,0,0.1,0.2,0.2,0.5
		c0.1-0.2,0.2-0.5,0.2-0.5c0.2,0.1,0.4,0,0.4,0C12.5,16.5,12.5,15.6,12.5,15.5"/>
	<path class="st0" d="M12.5,20l0.2-0.2l-0.2-0.2l-0.2,0.2l0.2,0.2c0,0.1,0,1-0.6,1.3c0,0,0.2,0,0.4,0c0,0,0.1,0.2,0.2,0.5
		c0.1-0.2,0.2-0.5,0.2-0.5c0.2,0.1,0.4,0,0.4,0C12.5,21,12.5,20.1,12.5,20"/>
	<path class="st0" d="M13.8,17.7l0.2-0.2l-0.2-0.2l-0.2,0.2L13.8,17.7c-0.1,0.1-0.1,1-0.6,1.3c0,0,0.2,0,0.4,0c0,0,0.1,0.2,0.2,0.5
		C13.9,19.3,14,19,14,19c0.2,0,0.4,0,0.4,0C13.8,18.7,13.8,17.9,13.8,17.7"/>
	<path class="st0" d="M11.2,17.7l0.2-0.2l-0.2-0.2l-0.2,0.2L11.2,17.7c-0.1,0.1-0.1,1-0.6,1.3c0,0,0.2,0,0.4,0c0,0,0.1,0.2,0.2,0.5
		c0.1-0.3,0.2-0.5,0.2-0.5c0.2,0,0.4,0,0.4,0C11.2,18.7,11.2,17.9,11.2,17.7"/>
	<path class="st0" d="M13.8,22.2l0.2-0.2l-0.2-0.2l-0.2,0.2L13.8,22.2c-0.1,0.1-0.1,1-0.6,1.3c0,0,0.2,0,0.4,0c0,0,0.1,0.2,0.2,0.5
		c0.1-0.2,0.2-0.5,0.2-0.5c0.2,0.1,0.4,0,0.4,0C13.8,23.2,13.8,22.4,13.8,22.2"/>
	<path class="st0" d="M11.2,22.2l0.2-0.2l-0.2-0.2l-0.2,0.2L11.2,22.2c-0.1,0.1-0.1,1-0.6,1.3c0,0,0.2,0,0.4,0c0,0,0.1,0.2,0.2,0.5
		c0.1-0.2,0.2-0.5,0.2-0.5c0.2,0.1,0.4,0,0.4,0C11.2,23.2,11.2,22.4,11.2,22.2"/>
	<path class="st0" d="M12.5,5.2L12.7,5l-0.2-0.2L12.2,5l0.2,0.2c0,0.1,0,1-0.6,1.3c0,0,0.2,0,0.4,0c0,0,0.1,0.2,0.2,0.5
		c0.1-0.2,0.2-0.5,0.2-0.5c0.2,0.1,0.4,0,0.4,0C12.5,6.2,12.5,5.3,12.5,5.2"/>
	<path class="st0" d="M13.8,3L14,2.8l-0.2-0.2l-0.2,0.2L13.8,3c-0.1,0.1-0.1,1-0.6,1.3c0,0,0.2,0,0.4,0c0,0,0.1,0.2,0.2,0.5
		C13.9,4.5,14,4.3,14,4.3c0.2,0.1,0.4,0,0.4,0C13.8,4,13.8,3.1,13.8,3"/>
	<path class="st0" d="M11.2,3l0.2-0.2l-0.2-0.2l-0.2,0.2L11.2,3c-0.1,0.1-0.1,1-0.6,1.3c0,0,0.2,0,0.4,0c0,0,0.1,0.2,0.2,0.5
		c0.1-0.3,0.2-0.5,0.2-0.5c0.2,0.1,0.4,0,0.4,0C11.2,4,11.2,3.1,11.2,3"/>
	<path class="st0" d="M13.8,7.5L14,7.3l-0.2-0.2l-0.2,0.2L13.8,7.5c-0.1,0.1-0.1,1-0.6,1.3c0,0,0.2,0,0.4,0c0,0,0.1,0.2,0.2,0.5
		C13.9,9,14,8.8,14,8.8c0.2,0.1,0.4,0,0.4,0C13.8,8.5,13.8,7.6,13.8,7.5"/>
	<path class="st0" d="M11.2,7.5l0.2-0.2l-0.2-0.2l-0.2,0.2L11.2,7.5c-0.1,0.1-0.1,1-0.6,1.3c0,0,0.2,0,0.4,0c0,0,0.1,0.2,0.2,0.5
		c0.1-0.2,0.2-0.5,0.2-0.5c0.2,0.1,0.4,0,0.4,0C11.2,8.5,11.2,7.6,11.2,7.5"/>
	<path class="st0" d="M8.3,5.6l0,0.1L8.4,6c0.1,0.4,0.2,0.5,0.4,0.5c0.1,0,0.2-0.1,0.2-0.1L9,6.2l0.1-0.1c0.1,0,0.1,0.1,0.1,0.2
		c0,0.1,0,0.2,0.1,0.3c0,0.1,0,0.2,0,0.3L9.2,7.3c0,0.1,0.1,0.3,0.1,0.4c0,0.2,0,0.3-0.1,0.4c0,0.1,0,0.2,0,0.2l0,0.2
		c0,0.2,0,0.2,0,0.2l0,0.1l0,0.1l0,0L9,8.9L8.9,8.9L8.7,8.7C8.6,8.9,8.5,8.9,8.2,9L8,9L7.9,9.1C7.8,9.1,7.8,9,7.8,8.8
		c0-0.1,0-0.3,0-0.4c-0.1,0-0.2-0.1-0.3-0.1H7.4h0l0-0.1l0.1-0.1L7.5,8l0.2-0.2l0.2-0.1l0.3-0.1c0.2,0,0.2-0.1,0.2-0.2
		c0-0.1-0.1-0.2-0.2-0.2L7.9,7.1L7.6,6.9C7.4,6.8,7.4,6.8,7.4,6.8L7.3,6.9c0,0.1,0.1,0.2,0.2,0.2h0.1l0.1,0l0.1,0.1v0l0,0.1
		c0,0.1-0.1,0.2-0.2,0.4L7.4,7.8C7.3,8,7.2,8.2,7,8.4L6.9,8.4L6.8,8.5L6.7,8.7L6.5,8.8L6.4,9L6.3,9.1l-0.1,0C6.2,9.1,6.1,9,6.1,8.9
		L5.9,8.8l-0.1,0H5.7H5.5c-0.1,0-0.3,0-0.4,0.1L5,9L4.9,8.9l0-0.1c0-0.1,0.1-0.4,0.2-0.6c0.1-0.1,0.1-0.1,0.2-0.2
		c0-0.1-0.1-0.2-0.2-0.2L5,7.8l0,0c0,0,0.1-0.1,0.2-0.1c0.1-0.1,0.3-0.1,0.4-0.1s0.2,0.1,0.4,0.1c0.2,0.1,0.2,0.2,0.4,0.2
		c0.2,0,0.3-0.1,0.3-0.3c0-0.1-0.1-0.2-0.2-0.4C6.1,6.9,6.1,6.8,6.1,6.6c0-0.1,0-0.2,0.1-0.3l0.1-0.1l0-0.1L6.1,6.1
		C6,6.1,5.8,6.1,5.6,6.3L5.5,6.4l0,0.1l0.1,0.1v0l0,0.1L5.4,6.8C5.3,6.9,5.2,7,5.1,7.1L5,7.2L5,7.3C4.9,7.4,4.8,7.5,4.6,7.6L4.5,7.7
		L4.5,7.7L4.3,7.9L4.2,8.1L4,8.3C3.9,8.4,3.9,8.5,3.8,8.7C3.7,8.9,3.7,9,3.7,9L3.6,8.9C3.5,8.8,3.3,8.7,3.3,8.7l-0.1,0L3,8.8
		L2.7,8.9c-0.2,0-0.3,0.1-0.4,0.2L2.2,9.1l0-0.1V9l0-0.2c0-0.2,0.1-0.3,0.1-0.4l0.1-0.2l0-0.1c0-0.2-0.2-0.3-0.4-0.3L2.1,7.6
		l0.1-0.2c0.1-0.1,0.3-0.2,0.5-0.2c0.1,0,0.2,0,0.3,0.1l0.2,0.1l0.2,0c0.2,0,0.3-0.1,0.5-0.5C3.9,6.8,4,6.8,4,6.6
		c0-0.2-0.1-0.3-0.2-0.3c-0.1,0-0.2,0.1-0.3,0.1L3.3,6.7v0.1v0L3.3,6.9c-0.1,0-0.2-0.1-0.4-0.4C2.6,6.3,2.6,6.2,2.6,6
		C2.3,5.6,2.2,5.5,2.2,5.3V5.2C2.1,5,2,4.9,2,4.7l0.1-0.2C2,4.4,2,4.4,1.9,4.2l0-0.1L1.8,3.9L1.7,3.7c0-0.1,0.1-0.1,0.3-0.2l0-0.1
		l0-0.2L2.1,3c0-0.1,0-0.2,0-0.2c0-0.1,0-0.1-0.1-0.2L2,2.4L1.9,2.3L2,2.3c0.1,0,0.3,0.1,0.5,0.3C2.9,2.9,3,3,3,3.4l0,0.1
		C3.2,3.7,3.4,3.8,3.4,4c0,0.1-0.1,0.3-0.1,0.4L3.1,4.7L3,4.9C3,5,3,5.2,3.2,5.3c0.1,0.2,0.2,0.2,0.3,0.2c0.2,0,0.4-0.3,0.4-0.7V4.8
		V4.7l0-0.2c0-0.1,0-0.2,0-0.2V4.1V4L3.8,3.9L3.7,3.7C3.4,3.5,3.3,3.2,3.3,3.1c0-0.2,0.2-0.4,0.4-0.4l0.2,0V2.7
		c0-0.3,0.1-0.5,0.2-0.5h0l0.1,0.1l0.2,0.1l0.1,0l0.1-0.2l0.1-0.1L4.7,2l0.1-0.1l0.1-0.1L4.8,2C4.9,2,4.9,2,5,2.1l0.1,0.1l0.1,0.1
		l0,0.1l0.1-0.1l0.1-0.1l0.1,0l0,0l0.1,0.1c0.1,0.1,0.1,0.2,0.1,0.2v0.1v0.1C5.9,2.8,6,2.9,6,3.2c0,0.2-0.1,0.4-0.3,0.6
		C5.6,3.9,5.6,3.9,5.6,4c0,0.5,0.4,0.8,1,0.8h0.5c0.3,0,0.5,0,0.8,0.1C8.3,5,8.4,5.1,8.5,5.1l0.1,0l0-0.1c0-0.1-0.2-0.2-0.8-0.3
		C6.6,4.3,6.1,3.9,6.1,3.1c0-0.6,0.5-1,1.2-1c0.2,0,0.6,0.1,0.7,0.1l0.3,0.1l0.2,0c0.1,0,0.2-0.1,0.2-0.2L8.7,2C8.8,2,9,2.1,9.1,2.2
		c0.1,0.2,0.2,0.3,0.2,0.4C9.3,2.8,9.2,2.9,9,3C8.8,3.3,8.7,3.4,8.4,3.4c-0.2,0-0.5-0.1-1-0.4C7.2,2.9,7.1,2.8,7,2.8
		C6.9,2.8,6.8,2.9,6.8,3c0,0.1,0.1,0.2,0.3,0.2c0.3,0.1,0.4,0.1,0.5,0.3C8,3.6,8.2,3.7,8.4,3.9c0.6,0.2,1,0.6,1,1.1
		c0,0.5-0.3,0.8-0.8,0.8C8.5,5.7,8.4,5.7,8.3,5.6"/>
	<path class="st1" d="M9,8.7l0-0.2V8.5l0-0.1V8.3L8.9,8.1L8.8,7.9L8.8,7.8l0-0.1l0.1-0.1l0.1,0l0.1,0C9,7.7,9,7.7,9,7.6S9,7.3,9,7.3
		L8.8,7.2L8.8,7.1l0-0.1L8.8,7L9,7h0L9,7v0l0-0.1L9,6.6L8.9,6.6h0l-0.2,0h0c-0.2,0-0.5-0.2-0.6-0.4L7.9,5.7C7.9,5.6,7.8,5.5,7.6,5.3
		L7.4,5.2H7.3l0,0l0.1,0l0.2,0c0.1,0,0.2,0,0.4,0.1c0.2,0.1,0.4,0.1,0.5,0.1c0.4,0,0.6-0.2,0.6-0.5c0-0.2-0.1-0.4-0.3-0.6L8.5,4.2
		l0,0v0.1l0,0L8.4,4.4L8.3,4.2C8.2,3.9,7.9,3.8,7.7,3.8l-0.1,0l0,0.1L7.7,4l0,0.1l0,0L7.6,4.1L7.5,4L7.4,3.8
		C7.4,3.7,7.3,3.7,7.1,3.6L7,3.5l-0.1,0l0,0l0,0.1L7,3.7l0,0c-0.1,0-0.2-0.1-0.3-0.2C6.6,3.4,6.5,3.2,6.5,3.1c0-0.3,0.2-0.5,0.6-0.5
		c0.2,0,0.4,0.1,0.6,0.2L8,2.9C8.1,3,8.3,3.1,8.4,3.1l0.2,0l0.1,0l0-0.1l0,0H8.6l-0.2,0L8.2,2.8C8,2.7,7.9,2.7,7.9,2.7
		C7.8,2.6,7.7,2.6,7.6,2.5L7.5,2.5l0,0l0.1,0l0.3,0.1l0.3,0.1c0.2,0.1,0.4,0.1,0.5,0.1C8.8,2.8,9,2.7,9,2.6L8.8,2.3l-0.1,0L8.7,2.3
		v0.1v0.1L8.6,2.6l-0.1,0L8,2.4C7.6,2.3,7.4,2.3,7.2,2.3c-0.6,0-1,0.4-1,0.9c0,0.6,0.4,0.9,1.4,1.2c1,0.3,1.1,0.4,1.1,0.6
		c0,0.1-0.2,0.2-0.3,0.2H8.3c0,0-0.2-0.1-0.5-0.1C7.5,5.1,7.2,5,6.9,5C6.2,5,5.8,5.2,5.4,5.5L5.2,5.6H5.1H5l0,0L4.8,5.7
		C4.8,5.8,4.7,5.9,4.7,5.9l-0.1,0c-0.1,0-0.1-0.1-0.2-0.2L4.3,5.5L4.1,5.4l0-0.1l0-0.1l0.1-0.2L4.3,5C4.4,5,4.4,5,4.4,5.2l0.1,0.2
		l0.1,0.2l0.1,0c0.1,0,0.2-0.2,0.2-0.4c0-0.1,0-0.2,0.1-0.2l0,0l0.1,0.1L5,5.3l0.1,0.1l0,0c0.1,0,0.1,0,0.1-0.2V5.1l0-0.1V4.9l0-0.1
		l0.1,0L5.3,5L5.5,5L5.5,5L5.5,4.8L5.4,4.7C5.4,4.6,5.3,4.6,5.3,4.6H5.2l-0.1,0L5,4.6l0,0c0-0.1,0.1-0.2,0.1-0.3
		C5.2,4.2,5.2,4,5.2,3.8c0-0.4,0.1-0.6,0.1-0.6l0.1,0.1v0.1v0.1l0,0.1c0.1,0,0.1-0.1,0.2-0.2l0-0.1v0L5.5,2.9L5.4,2.8l-0.1,0V2.7
		V2.6l0-0.1l0-0.1l0-0.1C5.1,2.5,5,2.5,5,2.6L4.8,2.7l0,0l0-0.1v0c0-0.1-0.1-0.3-0.2-0.4L4.5,2.2L4.5,2.3L4.4,2.4L4.3,2.5v0.1l0,0v0
		l0,0.1h0L4.2,2.6L4.1,2.5L4,2.4L3.9,2.4l0,0.1l0,0.1v0.1v0.1v0L3.8,2.9l-0.1,0l-0.1,0C3.5,2.8,3.4,2.9,3.4,3c0,0.1,0,0.3,0.1,0.4
		l0.1,0.1l0.1,0l0-0.1l0-0.1V3.2l0-0.1c0,0,0.1,0,0.1,0.2l0.1,0.2l0.1,0.3L4,4.2c0.1,0.1,0.1,0.2,0.1,0.2l0.1,0.1l0,0l-0.1,0L4,4.5
		H4c-0.1,0-0.1,0.1-0.1,0.6c0,0.3,0.1,0.7,0.1,0.9l0.2,0.4l0,0.2c0,0.5-0.7,1.3-1.5,1.7C2.4,8.2,2.3,8.4,2.3,8.7v0.1
		c0.1-0.1,0.2-0.1,0.2-0.1c0.2-0.1,0.2-0.1,0.3-0.2l0-0.1c0,0,0-0.1,0.2-0.1l0.1-0.1l0.1-0.1l0,0v0L3.2,8.3v0.1
		c0,0.1,0.1,0.3,0.2,0.3c0-0.2,0.1-0.2,0.1-0.3l0.1-0.2c0.1-0.1,0.1-0.2,0.1-0.3l0-0.2V7.6l0.1-0.1l0.1,0l0,0.1l0.1,0.1
		c0.1,0,0.2-0.1,0.2-0.2l0.1-0.2V7.3l0-0.1v0l0.1-0.1h0l0.1,0.2l0.1,0.1l0.2-0.2C4.7,7.1,4.7,7,4.7,6.9c0-0.1,0-0.2,0.1-0.2l0,0
		l0,0.1l0.1,0.1L5,6.7l0-0.1L5,6.5L4.9,6.3c0-0.1,0-0.1,0.1-0.2l0.1-0.2c0.1-0.2,0.1-0.2,0.2-0.2l0.1,0.1l0,0.1l0,0.1L5.3,6l0.1,0
		c0,0,0.1,0,0.2-0.1l0.2-0.1l0.1,0h0.1l0.2,0l0.1-0.1L6.3,5.4l0-0.1v0l0,0c0.1,0,0.2,0.1,0.3,0.3c0.6,0.9,0.9,1.2,1.3,1.3
		C8.3,7,8.4,7.1,8.4,7.3c0,0.1-0.1,0.3-0.2,0.5C7.9,8.2,7.8,8.4,7.8,8.7v0.1l0.1,0L8,8.7l0.2,0l0.1-0.1v0l0-0.1v0l0.1-0.1l0.1,0
		l0.1,0.1l0.1,0.2C8.8,8.6,8.8,8.6,9,8.7"/>
	<path class="st1" d="M3.1,3.7L3,3.8v0.1C3,4,3,4.1,3,4.1L3,4.3l0.2-0.2l0-0.2l0-0.2L3.1,3.7z"/>
	<path class="st1" d="M2.5,2.7l0.1,0.1c0.2,0.2,0.2,0.4,0.2,0.8c0,0.1,0,0.1,0,0.4c0,0.1,0,0.2,0,0.3c0,0.9,0.3,1.5,0.7,1.5
		c0.1,0,0.2-0.1,0.3-0.2l0.1-0.1l0,0.1v0.1l0,0.1v0.1l0,0.1v0L3.9,6.1l-0.1,0L3.5,6.3C3.4,6.3,3.4,6.4,3.4,6.4L3.3,6.6l-0.1,0
		C3.2,6.6,3.1,6.5,3,6.4C3,6.3,2.9,6.2,2.9,6.2l0.1,0h0h0.1h0.1h0.1l0.1-0.1l0,0L2.9,5.9c-0.1,0-0.2-0.1-0.2-0.2
		C2.6,5.5,2.5,5.4,2.5,5.4l0.1-0.1l0.1,0l0.1,0l0.1-0.1L2.7,5.2C2.4,5,2.2,4.8,2.2,4.7l0.1-0.1h0.1h0.1l0,0l0.1-0.1L2.4,4.5L2.3,4.4
		L2.2,4.3c0,0-0.1-0.1-0.1-0.2L2,3.9L1.9,3.8L1.9,3.7l0.2-0.1c0.1,0,0.2,0.1,0.2,0.2C2.4,4,2.4,4,2.5,4l0-0.1l0-0.2l0-0.2V3.5
		l-0.1,0L2.3,3.4L2.2,3.2l0-0.1c0.1-0.2,0.1-0.4,0.1-0.4V2.6L2.5,2.7z"/>
	<path class="st1" d="M3.4,7.6L3.1,7.6L3,7.5C2.9,7.5,2.8,7.4,2.7,7.4c-0.1,0-0.2,0-0.3,0.1l0.1,0.1l0.1,0.1l0.1,0.1l0.1,0.1
		C3,7.9,3.2,7.8,3.4,7.6"/>
	<path class="st1" d="M6.2,8.9l0.1-0.2c0.2-0.2,0.3-0.3,0.3-0.4V8.2V8.2l0.1-0.1l0.1,0l0,0.1l0.1,0l0.1-0.1L7,8l0.1-0.1l0-0.1L7,7.7
		l0-0.1L7,7.5l0.1,0l0.1,0.1l0.1,0l0.1-0.1l0.1-0.1l0-0.1L7.3,7.3l-0.1,0C7.1,7.3,7,7.1,7,6.9l0-0.1l0.1-0.1l0-0.1L7,6.3L6.9,6.2
		C6.9,6.1,6.9,6.1,6.8,6.1h0l-0.1,0l-0.1,0L6.6,6.2L6.4,6.3L6.3,6.5c0,0.2,0,0.2,0.3,0.6c0.1,0.2,0.1,0.3,0.1,0.4
		c0,0.3-0.3,0.5-0.8,0.6L5.6,8.2C5.4,8.3,5.2,8.5,5.2,8.7c0.1-0.1,0.1-0.1,0.3-0.1h0.1h0l0.2-0.1l0.2-0.2l0.1-0.1l0.1-0.1h0l0,0
		L6.2,8.4C6.1,8.5,6.1,8.6,6.1,8.7L6.2,8.9z"/>
	<path class="st1" d="M5.3,7.8L5.5,8l0.1,0.1h0.1h0.1c0.1,0,0.2,0,0.2-0.1l0-0.1L5.8,7.9L5.8,7.9L5.5,7.8C5.4,7.7,5.4,7.7,5.3,7.8"
		/>
	<path class="st1" d="M7.6,8.2L7.6,8.2h0.1h0.1h0c0.2,0,0.3-0.1,0.3-0.3L8,7.9C7.8,7.9,7.7,8,7.6,8.2"/>
	<path class="st5" d="M4.9,3.4L5,3.5c0,0,0.1-0.1,0.1-0.2C5.2,3.2,5.3,3,5.3,2.9l0-0.1l0,0L5.2,2.9C5.1,3,5.1,3,5,3.1L4.8,3.2v0.1
		L4.9,3.4L4.9,3.4z"/>
	<path class="st5" d="M4.5,3.1l0.1,0.1l0.1,0.1v0v0.1c0,0.1-0.1,0.1-0.1,0.1L4.4,3.4L4.3,3.2C4.2,3.2,4.2,3.1,4.2,2.9v0l0.1-0.1
		l0.1,0L4.5,3.1z"/>
	<path class="st5" d="M4.7,3.8L4.7,3.8H4.6L4.5,3.7l-0.1,0L4.3,3.8c0,0.1,0,0.2,0.1,0.3l0.1,0.2c0.1,0.2,0.2,0.3,0.3,0.3
		c0.1,0,0.1-0.1,0.2-0.2C5.1,4,5.2,4,5.2,3.8L5.1,3.7L5,3.7L4.9,3.8L4.7,3.8z"/>
	<polygon class="st1" points="4.8,4 4.7,4 4.6,4 4.6,4 4.6,4 4.6,4.2 4.7,4.4 4.8,4.5 4.9,4.3 4.9,4.2 4.9,4 4.9,4 	"/>
	<path class="st0" d="M21.9,5.6l0,0.1L22,6c0.1,0.4,0.2,0.5,0.4,0.5c0.1,0,0.2-0.1,0.2-0.1l0.1-0.1l0.1-0.1c0.1,0,0.1,0.1,0.1,0.2
		c0,0.1,0,0.2,0,0.3c0,0.1,0,0.2,0,0.3l-0.1,0.2l0,0.1c0,0.1,0,0.2,0,0.2c0,0.3,0,0.4-0.1,0.5c0,0.1,0,0.2,0,0.2c0,0.1,0,0.1,0,0.2
		l0,0.2v0.1l0,0.1l0,0l-0.1-0.1l-0.2-0.1l-0.2-0.1c-0.1,0.1-0.2,0.1-0.3,0.2C21.7,9,21.7,9,21.6,9l-0.1,0.1c-0.1,0-0.1-0.1-0.1-0.2
		c0-0.2,0-0.3,0.1-0.4c-0.1-0.1-0.2-0.1-0.3-0.1h-0.1h0l0-0.1c0-0.1,0.1-0.2,0.1-0.3c0.1-0.2,0.2-0.3,0.4-0.3l0.3-0.1
		c0.2,0,0.2-0.1,0.2-0.2c0-0.1-0.1-0.2-0.2-0.2l-0.3-0.1l-0.3-0.1L21,6.9l-0.1,0l-0.1,0.1c0,0.1,0.1,0.2,0.2,0.2h0.1l0.1,0l0.1,0.1
		c0,0.1-0.1,0.3-0.2,0.4L21,7.8l-0.1,0.1c0,0.2-0.2,0.4-0.4,0.6l-0.1,0.1l-0.1,0.1l-0.1,0.2l-0.2,0.2L19.9,9l-0.1,0.1l-0.1,0
		c-0.1,0-0.1-0.1-0.2-0.2l-0.1-0.1l-0.1,0h-0.1H19c-0.1,0-0.3,0-0.4,0.1l-0.1,0l-0.1-0.1c0-0.2,0.2-0.6,0.4-0.8
		c0-0.1-0.1-0.2-0.2-0.2l-0.1,0l0,0c0,0,0.1-0.1,0.2-0.1c0.2-0.1,0.3-0.1,0.4-0.1c0.1,0,0.2,0.1,0.4,0.1c0.2,0.1,0.2,0.2,0.4,0.2
		c0.2,0,0.3-0.1,0.3-0.3c0-0.1-0.1-0.2-0.2-0.4c-0.2-0.2-0.3-0.4-0.3-0.6c0-0.1,0-0.2,0.2-0.4l0-0.1l-0.1-0.1c-0.1,0-0.2,0-0.3,0.1
		C19.2,6.3,19,6.4,19,6.4l0,0.1l0.1,0.1l0,0l0,0.1c0,0-0.1,0.1-0.1,0.2c-0.1,0.1-0.2,0.2-0.3,0.3l-0.1,0.1l-0.1,0.1
		c-0.1,0.1-0.2,0.2-0.3,0.3l-0.1,0.1l-0.1,0.1c-0.1,0.1-0.2,0.3-0.3,0.4l-0.2,0.2c-0.1,0.1-0.1,0.2-0.2,0.4C17.4,8.9,17.3,9,17.3,9
		L17.2,9c-0.1-0.1-0.3-0.2-0.3-0.2l-0.1,0l-0.2,0.1l-0.3,0.1c-0.2,0-0.3,0.1-0.4,0.2l-0.1,0.1l-0.1-0.1V9c0,0,0-0.1,0-0.2
		c0-0.2,0.1-0.4,0.1-0.4l0.1-0.2l0-0.1c0-0.2-0.2-0.3-0.4-0.3l-0.1-0.1l0.1-0.2c0.1-0.1,0.3-0.2,0.4-0.2c0.1,0,0.2,0,0.3,0.1
		l0.2,0.1l0.2,0c0.2,0,0.3-0.1,0.5-0.5c0.1-0.2,0.1-0.2,0.1-0.4c0-0.2-0.1-0.3-0.2-0.3c-0.1,0-0.2,0.1-0.3,0.1L17,6.8v0.1v0
		l-0.1,0.1c-0.1,0-0.1-0.1-0.2-0.2l-0.2-0.2c-0.2-0.2-0.3-0.3-0.3-0.6c-0.2-0.3-0.3-0.5-0.3-0.6V5.2c-0.2-0.2-0.2-0.3-0.2-0.5l0-0.2
		c-0.1-0.1-0.1-0.2-0.1-0.3l0-0.1l-0.1-0.2l-0.1-0.1c0-0.1,0.1-0.1,0.2-0.2l0.1,0V3.4l0-0.2L15.7,3l0-0.2c0-0.1,0-0.1-0.1-0.2
		l-0.1-0.2l-0.1-0.1l0.1-0.1l0.1,0c0.2,0.1,0.5,0.3,0.7,0.5c0.2,0.2,0.2,0.3,0.2,0.7C16.9,3.7,17,3.8,17,4c0,0.1-0.1,0.2-0.1,0.4
		c-0.1,0.1-0.1,0.2-0.1,0.2l-0.1,0.2c0,0.1,0.1,0.2,0.1,0.4c0.1,0.2,0.2,0.2,0.3,0.2c0.2,0,0.4-0.3,0.4-0.7V4.8V4.6l0-0.2V4.3l0-0.2
		V4c0-0.1,0-0.1-0.2-0.3c-0.2-0.2-0.4-0.5-0.4-0.7s0.2-0.3,0.4-0.3l0.1,0V2.7V2.5l0.1-0.2c0-0.1,0.1-0.2,0.1-0.2h0l0.1,0.1l0.2,0.1
		l0.1,0l0.1-0.2l0.1-0.1L18.3,2l0.1-0.1l0.1-0.1L18.4,2l0.1,0.1l0.1,0.1c0.1,0.1,0.1,0.2,0.2,0.3l0.1-0.1L19,2.3l0.1,0l0,0l0.1,0.1
		c0.1,0.1,0.1,0.2,0.1,0.2v0.1v0.1c0.2,0.1,0.3,0.2,0.3,0.4c0,0.2-0.1,0.4-0.3,0.6c-0.1,0.1-0.1,0.2-0.1,0.3c0,0.5,0.4,0.8,1,0.8
		h0.5c0.3,0,0.5,0,0.8,0.1c0.3,0.1,0.4,0.1,0.6,0.1L22.2,5c0-0.1-0.2-0.2-0.8-0.3c-1.2-0.3-1.7-0.8-1.7-1.5c0-0.6,0.5-1,1.2-1
		c0.2,0,0.6,0.1,0.7,0.1l0.3,0.1l0.2,0c0.1,0,0.1-0.1,0.2-0.2L22.4,2c0.1,0,0.2,0.1,0.3,0.2s0.2,0.3,0.2,0.5c0,0.1-0.1,0.2-0.2,0.4
		c-0.2,0.2-0.4,0.3-0.6,0.3c-0.2,0-0.6-0.1-1-0.4c-0.2-0.1-0.2-0.1-0.3-0.1c-0.1,0-0.2,0.1-0.2,0.2c0,0.1,0.1,0.2,0.3,0.2
		c0.3,0.1,0.4,0.1,0.5,0.3c0.4,0.1,0.5,0.1,0.8,0.3c0.7,0.2,1,0.6,1,1.1c0,0.5-0.3,0.8-0.8,0.8C22.1,5.7,22.1,5.7,21.9,5.6"/>
	<path class="st1" d="M22.6,8.7l0-0.1V8.5c0-0.1,0-0.2,0-0.3l-0.1-0.1l-0.1-0.1l-0.1-0.2l0-0.1h0l0.1,0l0.1,0c0.1,0,0.1-0.1,0.1-0.2
		c0-0.2,0-0.3-0.1-0.4l-0.1-0.1l0-0.1L22.4,7l0.1,0l0.1,0h0l0-0.1v0l0-0.1c0-0.2-0.1-0.2-0.1-0.2h0l-0.2,0h0c-0.2,0-0.5-0.2-0.6-0.4
		l-0.1-0.4c0-0.1-0.2-0.3-0.4-0.4l-0.1-0.1h-0.1l0,0l0.1,0c0.2,0,0.4,0,0.6,0.1c0.2,0.1,0.4,0.1,0.5,0.1c0.4,0,0.6-0.2,0.6-0.5
		c0-0.1-0.1-0.3-0.1-0.5c-0.1-0.1-0.2-0.2-0.3-0.3l-0.1,0l0,0v0.1l0,0l-0.1,0.1L22,4.2c-0.1-0.3-0.4-0.4-0.6-0.4l-0.1,0.1l0,0.1
		L21.4,4l0,0.1l0,0L21.3,4l-0.1-0.1l-0.1-0.1c-0.1-0.1-0.2-0.2-0.3-0.2l-0.2-0.1l-0.1,0l0,0l0,0.1l0.1,0.1l0,0
		c-0.1,0-0.1-0.1-0.3-0.2c-0.1-0.1-0.1-0.2-0.1-0.4c0-0.3,0.2-0.5,0.6-0.5c0.2,0,0.4,0.1,0.6,0.2l0.4,0.2C21.7,3,21.9,3,22,3
		c0.1,0,0.1,0,0.2,0l0.1,0l0-0.1l-0.1,0c-0.2,0-0.5-0.1-0.7-0.3c-0.1-0.1-0.2-0.1-0.2-0.1l-0.1-0.1l0,0h0.1l0.3,0.1l0.3,0.1
		c0.1,0.1,0.4,0.1,0.5,0.1c0.1,0,0.2-0.1,0.2-0.2l-0.1-0.2l-0.1-0.1l-0.1,0.1v0v0.1l-0.1,0.1l-0.1,0l-0.5-0.1
		c-0.4-0.1-0.6-0.2-0.8-0.2c-0.6,0-1,0.4-1,0.9c0,0.6,0.4,0.9,1.4,1.2c1,0.3,1.1,0.4,1.1,0.7c0,0.1-0.1,0.2-0.3,0.2h-0.2
		c-0.1,0-0.2-0.1-0.5-0.1s-0.6-0.1-0.9-0.1c-0.7,0-1.1,0.1-1.5,0.4l-0.2,0.1h-0.1h-0.1l-0.2,0.1l-0.1,0.2l-0.1,0
		c-0.1,0-0.1-0.1-0.2-0.2l-0.1-0.2l-0.2-0.1l0-0.1l0-0.1L17.8,5l0-0.1V4.9l0.1,0c0.1,0,0.1,0,0.1,0.2L18,5.3l0.1,0.2l0.1,0
		c0.1,0,0.2-0.2,0.2-0.4c0-0.1,0-0.2,0.1-0.2c0,0,0,0,0.1,0.1l0.1,0.1l0.1,0.1l0,0c0.1,0,0.1,0,0.1-0.2V5l0-0.1V4.8l0-0.1l0.1,0
		L19,4.8l0.1,0.1l0.1-0.1l-0.1-0.2l-0.1-0.1C19,4.5,19,4.5,18.9,4.5h-0.1l-0.1,0l-0.1,0l0,0c0-0.1,0-0.2,0.1-0.3
		c0.1-0.1,0.1-0.2,0.1-0.6l0-0.3c0-0.2,0-0.3,0.1-0.3l0,0l0,0.1v0.1l0,0.2l0.1-0.1l0.1-0.1l0-0.2c0-0.2-0.1-0.2-0.3-0.3l-0.1,0V2.7
		V2.6l0-0.1l0-0.1l0-0.1l-0.1,0c-0.1,0.1-0.2,0.1-0.2,0.2l-0.1,0.1l0,0l0-0.1v0c0-0.2-0.1-0.3-0.2-0.4l-0.1,0.1l-0.1,0.1L18,2.3
		l-0.1,0.2v0v0l0,0.1h0l-0.1-0.1l-0.1-0.1l-0.1-0.1l-0.1-0.1c-0.1,0.1-0.1,0.2-0.1,0.4v0.1l-0.1,0.1l-0.1,0l-0.1,0
		C17.1,2.8,17,2.9,17,3c0,0.1,0,0.2,0.1,0.4l0.2,0.2l0-0.1l0-0.1V3.2l0.1-0.1c0,0,0.1,0,0.1,0.2l0.1,0.2l0.1,0.3l0.1,0.3
		c0.1,0.1,0.1,0.2,0.1,0.2l0.1,0.1l0,0l-0.1,0l-0.1,0h-0.1c-0.1,0-0.1,0.1-0.1,0.6c0,0.3,0.1,0.7,0.1,0.9l0.2,0.4l0,0.2
		c0,0.5-0.7,1.3-1.5,1.7c-0.3,0.1-0.4,0.3-0.4,0.7c0.1-0.1,0.2-0.1,0.2-0.1c0.2-0.1,0.2-0.1,0.3-0.2l0-0.1c0,0,0.1-0.1,0.2-0.1
		l0.1-0.1l0.1-0.1l0,0l0,0l-0.1,0.2v0.1c0,0.1,0.1,0.3,0.2,0.3l0-0.1c0-0.1,0.1-0.2,0.1-0.2l0.1-0.2c0.1-0.1,0.1-0.1,0.1-0.3V7.7
		V7.6l0.1-0.1l0.1,0l0,0.1l0.1,0.1c0.1,0,0.2-0.1,0.2-0.2l0.1-0.2l0-0.2v0l0.1-0.1h0L18,7.2L18,7.3c0.1,0,0.2-0.2,0.2-0.4
		c0-0.1,0-0.2,0.1-0.2l0,0l0,0.1l0.1,0.1l0.1-0.1l0.1-0.1l0-0.1l-0.1-0.1l-0.1-0.1c0-0.1,0.1-0.2,0.2-0.4s0.1-0.2,0.2-0.2l0.1,0.1
		v0.1l0,0.1L19,6l0.1,0l0.2-0.1c0.1-0.1,0.2-0.1,0.2-0.1l0.1,0h0.1l0.2,0l0.1-0.1L20,5.6L20,5.5l-0.1-0.1v0l0.1,0
		c0.1,0,0.2,0.1,0.3,0.3c0.6,0.9,0.9,1.2,1.3,1.3C22,7,22.1,7.1,22.1,7.4c0,0.1-0.1,0.3-0.2,0.5c-0.3,0.4-0.4,0.6-0.4,0.9v0.1l0.1,0
		l0.1-0.1l0.2,0l0.1-0.1l0,0V8.4v0l0.1-0.2l0.1,0l0.1,0.2C22.4,8.6,22.5,8.6,22.6,8.7"/>
	<path class="st1" d="M16.6,3.9V4v0.1c0,0.1,0,0.2,0.1,0.2l0.2-0.2l0-0.2l0-0.1l-0.1-0.1C16.7,3.7,16.6,3.7,16.6,3.9"/>
	<path class="st1" d="M16.1,2.7l0.1,0.1c0.1,0.1,0.2,0.4,0.2,0.7v0.1l0,0.3v0.3c0,0.9,0.3,1.5,0.7,1.5c0.1,0,0.2-0.1,0.3-0.2
		l0.1-0.1l0.1,0.1v0.1v0.1l0,0.1l0,0.1c0,0.1,0,0.1-0.2,0.1l-0.2,0.1c-0.1,0.1-0.2,0.1-0.2,0.1L17,6.6l-0.1,0
		c-0.1,0-0.1-0.1-0.2-0.2c-0.1-0.1-0.1-0.2-0.1-0.2l0.1,0l0,0h0.1h0.1h0.1l0-0.1l0,0l-0.3-0.1c-0.1,0-0.2-0.1-0.2-0.2
		c-0.1-0.1-0.1-0.2-0.1-0.3l0.1-0.1l0.1,0l0.1,0h0l0,0l-0.1-0.1c-0.3-0.2-0.4-0.4-0.4-0.6l0-0.1H16h0.1l0.1-0.1l0-0.1
		C16,4.4,15.9,4.3,15.8,4c-0.1-0.2-0.1-0.3-0.2-0.4l0.2-0.1c0.1,0,0.2,0.1,0.2,0.2C16.1,4,16.1,4,16.2,4l0-0.1l0-0.2V3.6V3.5l-0.1,0
		l-0.1-0.2V3.1L16,2.9C16,2.8,16.1,2.7,16.1,2.7L16.1,2.7L16.1,2.7z"/>
	<path class="st1" d="M17,7.6c-0.2,0-0.2,0-0.4-0.1c-0.1-0.1-0.2-0.1-0.3-0.1c-0.1,0-0.2,0-0.3,0.1l0.1,0.1l0.1,0.1l0.1,0.1l0.1,0.1
		C16.7,7.9,16.8,7.8,17,7.6"/>
	<path class="st1" d="M19.8,8.9L20,8.7c0.2-0.2,0.3-0.3,0.3-0.4V8.2V8.2l0.1-0.1l0.1,0l0,0.1l0.1,0c0.1,0,0.1,0,0.2-0.2l0.1-0.1
		l0-0.1l-0.1-0.1l0-0.1l0.1-0.1l0.1,0l0.1,0.1l0,0l0.1-0.1l0.1-0.1l0-0.1l-0.1-0.1l-0.1,0c-0.1-0.1-0.2-0.2-0.2-0.4l0-0.1l0.1-0.1
		l0-0.1l-0.1-0.2l-0.1-0.1c-0.1-0.1-0.1-0.1-0.1-0.1l-0.1,0l-0.1,0l-0.1,0.1L20,6.3c-0.1,0-0.1,0.2-0.1,0.2c0,0.1,0,0.2,0.3,0.6
		c0.1,0.2,0.1,0.3,0.1,0.4c0,0.3-0.3,0.5-0.8,0.6c-0.6,0.1-0.7,0.2-0.8,0.6c0.1-0.1,0.1-0.1,0.3-0.1h0.1h0l0.2-0.1l0.2-0.2l0.1-0.1
		l0.1-0.1h0l0,0l-0.1,0.1l-0.1,0.2L19.8,8.9z"/>
	<path class="st1" d="M18.9,7.8L19.1,8l0.2,0.1h0.1h0.1c0.1,0,0.2,0,0.2-0.1l0-0.1l-0.1-0.1l-0.1-0.1l-0.2-0.1
		C19.1,7.7,19,7.8,18.9,7.8"/>
	<path class="st1" d="M21.3,8.2L21.3,8.2h0.1h0.1h0l0.1,0L21.7,8l0-0.1l-0.1-0.1C21.5,7.9,21.3,8,21.3,8.2"/>
	<path class="st5" d="M18.5,3.4l0.1,0.1c0,0,0.1-0.1,0.2-0.2C18.9,3.2,19,3,19,2.9l0-0.1l0,0l-0.1,0.1l-0.2,0.1l-0.1,0.1v0.1
		l0.1,0.1L18.5,3.4z"/>
	<path class="st5" d="M17.9,2.9L17.9,2.9l-0.1,0v0l0,0.1c0,0.1,0.1,0.2,0.1,0.2L18,3.4l0.2,0.1l0,0l0,0l0-0.1l0-0.1v0l-0.1-0.1
		L18,3.1L17.9,2.9z"/>
	<path class="st5" d="M18.4,3.8L18.4,3.8h-0.1l-0.1-0.1l-0.1,0L18,3.8C18,3.9,18,4,18,4.1l0.1,0.2c0.1,0.2,0.2,0.3,0.3,0.3
		c0.1,0,0.2-0.1,0.2-0.2l0.1-0.3l0.1-0.2l-0.2-0.2h0l-0.1,0.1L18.4,3.8z"/>
	<polygon class="st1" points="18.5,4 18.4,4 18.3,4 18.2,4 18.2,4 18.3,4.2 18.3,4.4 18.4,4.5 18.5,4.3 18.5,4.2 18.5,4 18.5,4 	"/>
	<path class="st0" d="M8.4,18.7c0.1,0.1,0.1,0.2,0.1,0.3l0,0.3c0,0.3,0.1,0.4,0.3,0.4L9,19.7L9,19.6h0l0.1,0.1v0.1
		c0,0.1,0,0.2,0,0.3l0,0.3c0,0.1,0,0.2-0.1,0.3c0.1,0.1,0.1,0.3,0.1,0.4c0,0.2,0,0.2-0.1,0.3c0,0.1,0,0.2,0,0.2c0,0.1,0,0.2,0,0.2
		c0,0.1,0,0.2,0,0.3v0l-0.1,0.1L9,22.3l-0.1-0.1c-0.1,0-0.1,0-0.1,0.2c0,0.1-0.1,0.1-0.2,0.2l-0.1,0.2L8.4,23l0,0l0,0
		c-0.1,0-0.2-0.2-0.4-0.7c-0.1-0.1-0.1-0.2-0.2-0.2l-0.1,0.1l-0.1,0.1l0,0c-0.1,0-0.1-0.1-0.2-0.2s-0.1-0.2-0.1-0.3
		c0-0.2,0.2-0.4,0.7-0.6c0.2-0.1,0.3-0.3,0.3-0.5c0-0.2-0.1-0.3-0.3-0.5C7.9,20.1,7.8,20,7.7,20l-0.1,0.1l0.1,0.1
		c0.1,0,0.2,0.1,0.2,0.1c0,0.1-0.1,0.1-0.1,0.2c-0.1,0.1-0.1,0.2-0.2,0.2c0,0.2-0.1,0.3-0.4,0.4c-0.1,0.1-0.1,0.2-0.1,0.2l-0.2,0.2
		L6.7,22c0,0.1,0,0.1-0.1,0.1c-0.1,0-0.2-0.1-0.3-0.2l-0.1-0.2c-0.1,0.1-0.1,0.1-0.2,0.1l-0.2,0.1c-0.1,0.1-0.1,0.1-0.2,0.1l0-0.1
		v-0.1c0-0.2,0.1-0.4,0.2-0.6c-0.1-0.1-0.2-0.2-0.4-0.2l-0.1,0l0.1-0.1l0.1-0.1c0.1-0.1,0.3-0.1,0.4-0.1c0.1,0,0.2,0,0.4,0.1l0.2,0
		l0.1-0.1c0-0.1-0.1-0.3-0.2-0.6c-0.1-0.2-0.1-0.4-0.1-0.4c0-0.2,0.1-0.5,0.3-0.6l-0.2-0.1l-0.2,0.1l-0.2,0.1L6.2,19l0.1,0.1
		c0,0.2-0.1,0.4-0.4,0.6c-0.1,0.2-0.2,0.4-0.4,0.5c0,0.1-0.1,0.2-0.2,0.3C5.1,20.7,5.1,20.8,5,21L5,21.1L4.8,21l-0.1-0.1
		c0-0.1-0.1-0.1-0.1-0.2l-0.1,0H4.4H4.3c-0.2,0-0.3,0-0.4,0.1l-0.1,0c-0.1,0-0.1-0.1-0.1-0.2c0-0.2,0.1-0.5,0.2-0.7l-0.1-0.1
		l-0.1-0.1l-0.1,0l0-0.1c0,0,0.1-0.1,0.2-0.2c0.1-0.1,0.2-0.1,0.4-0.1s0.2,0,0.3,0.2l0.2,0.1L5,19.4L5,19.3c0-0.1-0.2-0.4-0.4-0.5
		c-0.1-0.1-0.3-0.1-0.4-0.1c-0.2,0-0.4,0.1-0.5,0.2l-0.1,0.2l-0.1,0.1c-0.1,0-0.1,0-0.2-0.2l-0.2-0.2l-0.1-0.2l0-0.1L3,18.5
		c-0.1-0.1-0.2-0.3-0.3-0.6l0-0.1c-0.2-0.2-0.3-0.5-0.3-0.7V17c-0.1-0.1-0.1-0.1-0.2-0.4c-0.1-0.2-0.1-0.3-0.2-0.4l0-0.1l0.2-0.1
		l0.1,0h0.1v-0.2c0-0.1,0-0.2,0-0.3l0-0.1l0-0.1l0-0.1l0-0.1l0.1,0l0.1,0c0.1,0.1,0.2,0.1,0.3,0.2c0.2,0.2,0.4,0.5,0.4,0.7v0.1v0.1
		l0.1,0.1l0.1,0.1l0.1,0.3c0,0.1,0,0.1-0.1,0.2c-0.1,0.1-0.1,0.2-0.1,0.3c0,0.1,0.1,0.3,0.1,0.4c0.1,0.1,0.2,0.2,0.3,0.2
		c0.2,0,0.2-0.1,0.2-0.5c0-0.2,0-0.4,0.1-0.5v-0.1l-0.1-0.1l-0.2-0.2c-0.2-0.2-0.3-0.4-0.3-0.5c0-0.2,0.1-0.3,0.3-0.3h0.1v-0.1
		l0-0.2C3.9,15.2,4,15.1,4,15.1l0.1,0l0.1,0.1l0.1,0.1c0-0.1,0.1-0.2,0.1-0.2c0.1-0.1,0.2-0.2,0.2-0.2l0.1,0.1L5,15L5,15.1l0,0.1
		l0.1-0.1l0.1-0.1L5.4,15l0.1,0c0,0,0.1,0,0.1,0.3c0,0.2,0,0.2,0.1,0.3c0.2,0,0.3,0.2,0.3,0.4c0,0.2-0.1,0.4-0.4,0.7l-0.1,0.2
		c0,0.6,0.2,0.8,1,0.9c0.5,0.1,0.6,0.1,1.2,0.2c0.3,0.1,0.5,0.1,0.6,0.1c0.1,0,0.2-0.1,0.2-0.1c0-0.1-0.1-0.2-0.7-0.3
		C6.6,17.4,6,16.9,6,16.1c0-0.6,0.5-1,1.1-1c0.3,0,0.5,0.1,0.9,0.3c0.4,0.2,0.4,0.2,0.5,0.2c0.1,0,0.1-0.1,0.1-0.2l0.1-0.1L9,15.4
		c0.1,0.1,0.2,0.2,0.2,0.4c0,0.2-0.1,0.4-0.4,0.5l-0.1,0.1c-0.1,0.2-0.3,0.2-0.5,0.2c-0.2,0-0.5-0.1-0.7-0.2l-0.3-0.2
		C7.1,16,6.9,16,6.9,16c-0.2,0-0.2,0.1-0.2,0.2s0.1,0.2,0.2,0.3l0.3,0.1c0.1,0,0.2,0.1,0.3,0.1l0.2,0c0.2,0,0.4,0.1,0.6,0.1l0.1,0.1
		L8.6,17c0.4,0.1,0.7,0.6,0.7,1C9.3,18.5,9,18.8,8.4,18.7L8.4,18.7z"/>
	<path class="st1" d="M8.3,22.8L8.3,22.8l0.2-0.2c0.1-0.1,0.1-0.2,0.1-0.4l0-0.2l0-0.1l0.1-0.1l0.1,0L8.8,22l0.2,0.1V22v-0.1
		c0-0.2-0.1-0.4-0.2-0.5l-0.1-0.1l0-0.1l0,0l0.1,0.1l0.1-0.2c0-0.1-0.1-0.3-0.1-0.4l-0.1-0.1v0l0.1-0.1l0.1,0l0.1,0
		C9,20.6,9,20.5,9,20.3v-0.1v-0.1C9,20,9,20,8.9,20H8.8c-0.4,0-0.5-0.2-0.6-0.8c-0.1-0.4-0.2-0.7-0.4-0.8c-0.1,0-0.2-0.1-0.2-0.1
		l0.1,0l0.1,0c0.3,0.1,0.5,0.2,0.7,0.2c0.4,0,0.6-0.2,0.6-0.6c0-0.2-0.1-0.5-0.3-0.7l-0.2-0.1l0,0h0l0,0.1l0,0.1v0l0,0l-0.1,0
		l-0.1-0.2c-0.1-0.1-0.3-0.3-0.5-0.3L7.9,17l0.1,0.1L8,17.2v0l0,0l0,0c0,0-0.1,0-0.2-0.2c-0.1-0.1-0.4-0.3-0.5-0.3l-0.1,0l0,0
		l0.1,0.1L7.3,17l-0.1,0c-0.1,0-0.1-0.1-0.3-0.2c-0.3-0.2-0.4-0.4-0.4-0.6c0-0.3,0.2-0.5,0.5-0.5c0.2,0,0.4,0.1,0.5,0.2l0.4,0.2
		c0.2,0.1,0.4,0.2,0.6,0.2l0.1,0l0.1-0.1l-0.1,0c-0.1,0-0.2-0.1-0.3-0.1l-0.4-0.3c-0.1-0.1-0.2-0.2-0.3-0.2
		c-0.2-0.1-0.2-0.1-0.2-0.1l0.1,0h0.1l0.2,0.1c0.1,0,0.2,0.1,0.3,0.2c0.4,0.2,0.6,0.3,0.8,0.3c0.2,0,0.4-0.1,0.4-0.4l0-0.1l0-0.1
		l-0.1,0l0,0l0,0.1l0,0.1l-0.1,0.1l-0.1,0.1c-0.1,0-0.2-0.1-0.6-0.2c-0.3-0.2-0.7-0.3-0.9-0.3c-0.5,0-0.9,0.4-0.9,0.9
		c0,0.7,0.4,1,1.9,1.3C8.7,17.6,9,17.7,9,18c0,0.2-0.2,0.3-0.4,0.3H8.4c-0.1,0-0.3-0.1-0.7-0.2C7.3,18,6.9,18,6.6,18
		c-0.6,0-0.9,0.2-1.2,0.5l-0.1,0.1l-0.1,0l-0.1-0.1l-0.3-0.1l-0.2,0.1l-0.1,0.1c-0.1,0-0.1-0.1-0.2-0.2c-0.1-0.2-0.1-0.3-0.1-0.5
		l0.1-0.1l0.1,0.1l0.1,0.2c0,0.1,0.1,0.2,0.1,0.2L4.8,18l0.1-0.1c0.1-0.1,0.1-0.1,0.1-0.1c0.1,0,0.1,0,0.1,0.2l0.1,0.1l0.1,0.1
		l0.1,0c0.1,0,0.1-0.1,0.1-0.2v0v-0.1l0-0.1l0.1,0l0.1,0.1l0.1,0l0.1,0l0-0.1l-0.1-0.1c0-0.1-0.1-0.1-0.1-0.3l-0.1-0.1l-0.1,0
		l-0.1,0l-0.1,0h0l-0.1-0.1l0.1-0.2L5.4,17c0-0.1,0-0.2,0.1-0.2l0-0.2c0-0.1,0.1-0.4,0.1-0.5l0-0.1l0.1,0.1v0v0.1l0,0.1l0.1-0.1
		l0.1-0.2l0-0.1c0-0.1-0.1-0.2-0.2-0.2H5.6l-0.1,0l-0.1-0.1v-0.1v-0.1l0-0.1v-0.1l-0.1,0l-0.1,0.1l-0.1,0.1l-0.1,0.1l-0.1,0
		c-0.1,0-0.1,0-0.1-0.1v0c0-0.1,0-0.2-0.2-0.3l0,0l0,0.1l-0.1,0.1l-0.1,0.2l0,0.1l0,0.1l-0.1-0.1c-0.1-0.1-0.1-0.1-0.3-0.2v0.1
		l-0.1,0.1v0.1v0.1v0.1l0,0.1l0,0l-0.1,0l-0.1,0c-0.1,0-0.2,0.1-0.2,0.2c0,0.1,0,0.1,0.2,0.3L4,16.4l0-0.1v-0.1l0-0.1l0-0.1
		c0.1,0,0.1,0.2,0.2,0.4l0,0.2L4.3,17c0.1,0.1,0.1,0.2,0.2,0.2l0.1,0.1l0,0.1l-0.1-0.1H4.4c-0.1,0-0.2,0.1-0.2,0.3
		c0,0.3,0.2,0.7,0.4,0.9L5,18.8c0.2,0.1,0.3,0.3,0.3,0.5c0,0.2-0.2,0.4-0.6,0.6l-0.2,0.1c-0.2,0.1-0.2,0.2-0.3,0.5l0.2,0h0h0.1
		l0.2-0.1v-0.1l0.1-0.1l0.1-0.1L4.8,20l0,0l0,0l0,0.1l0,0.2c0,0.2,0,0.2,0.1,0.4l0-0.1l0.1-0.2c0.1-0.1,0.2-0.3,0.2-0.4v0l0-0.2
		l0-0.1l0.1,0l0.1,0.1l0.1,0.1l0.1-0.1l0-0.1l0-0.1l0-0.1l0-0.1l0,0l0,0l0.1,0l0.1,0l0.1-0.1L6,19.1L6,19c-0.1-0.1-0.2-0.2-0.2-0.4
		l0-0.1l0.1-0.2l0.1-0.1h0L6,18.3l0,0.1l0,0.1L6,18.6l0.1,0c0.2-0.1,0.4-0.1,0.5-0.1l0.3,0.1l0.1,0l0,0l0,0l-0.1-0.1l-0.1-0.1l0,0
		c0.1,0,0.3,0.3,0.5,0.9c0.1,0.4,0.2,0.5,0.6,0.7c0.4,0.2,0.5,0.4,0.5,0.7c0,0.3-0.1,0.7-0.3,1.2c-0.1,0.2-0.1,0.3-0.1,0.4
		c0,0.1,0,0.1,0.1,0.3l0.1,0.2L8.3,22.8z"/>
	<path class="st1" d="M6.6,21.8c0.1-0.1,0.1-0.1,0.1-0.2c0.1-0.2,0.2-0.2,0.2-0.3v-0.1c0-0.1,0-0.1,0.1-0.1l0,0l0,0.1l0.1,0l0.1-0.1
		l0.1-0.2v-0.1v-0.1l0.1-0.1l0.1,0.1l0.1,0.1l0.1,0l0.1-0.1l0.1-0.1v0l-0.1-0.1c-0.1-0.1-0.2-0.2-0.2-0.5c0-0.2,0-0.3,0-0.4
		c0,0-0.1-0.1-0.1-0.3L7.1,19L7,19c-0.2,0-0.4,0.2-0.4,0.4c0,0.1,0.1,0.3,0.2,0.6c0.1,0.3,0.2,0.5,0.2,0.6c0,0.2-0.1,0.4-0.5,0.5
		c-0.4,0.1-0.6,0.3-0.7,0.7l0.1,0l0.1,0l0.1,0l0.2-0.1l0-0.1l0-0.1l0.1,0l0.1,0v0l0,0.1l0,0.2C6.4,21.6,6.5,21.7,6.6,21.8"/>
	<path class="st1" d="M2.6,15.4L2.6,15.4v0.2l0,0.1c0,0.1,0,0.2,0.1,0.4l0.1,0.2v0l0,0.1l-0.1-0.1l-0.3-0.1H2.2l0,0.1l0.1,0.2
		l0.2,0.2l0.2,0.1l0,0.1l0,0l0,0H2.6l0,0c0,0,0,0.1,0.1,0.2l0.1,0.2l0.1,0.1l0.1,0.1L3,17.7l0,0H2.9l0,0.1c0,0.1,0.1,0.1,0.1,0.3
		c0.1,0.1,0.2,0.2,0.3,0.2h0.1l0.1,0.1l-0.1,0.1l-0.1,0.1l0,0.1l0.1,0.1l0.1,0.1l0.1-0.1l0.2-0.2c0.2-0.1,0.3-0.1,0.3-0.1l0-0.1
		C4,18.2,4,18.1,4,18L4,17.9l-0.1,0.1l-0.2,0.1c-0.2,0-0.6-0.4-0.7-0.9c0-0.1-0.1-0.2-0.1-0.4c0-0.1,0-0.3,0.1-0.4
		C3,16.2,3,16.1,3,16.1V16C3.1,15.8,2.9,15.6,2.6,15.4"/>
	<path class="st1" d="M3.2,16.4C3.1,16.5,3,16.7,3,16.8L3.1,17l0,0l0.1-0.1l0.1-0.1l0.1-0.1L3.2,16.4z"/>
	<path class="st1" d="M4,19.5L4,19.5L4,19.5c0.2,0.2,0.2,0.2,0.3,0.2l0.3-0.1l0.1-0.1l-0.1-0.1l-0.1-0.1l-0.2-0.1
		C4.2,19.4,4.1,19.4,4,19.5"/>
	<path class="st1" d="M5.7,20.8l0.1,0.1l0.1,0.1H6h0.1l0.2-0.1l0.1-0.1l0.1-0.1l-0.1,0l-0.1,0c-0.2-0.1-0.2-0.1-0.3-0.1
		C5.9,20.6,5.8,20.6,5.7,20.8"/>
	<path class="st1" d="M7.5,22.1C7.6,22,7.6,22,7.8,22c0.2,0,0.4-0.3,0.4-0.6l0,0l-0.1,0l-0.1,0.1l-0.2,0.1c-0.1,0.1-0.3,0.2-0.3,0.4
		L7.5,22.1z"/>
	<path class="st5" d="M4.4,16.1l0.1,0.1l0.2,0.1l0.1-0.1l0-0.1v-0.1c0-0.1,0-0.1-0.2-0.2l-0.1,0l-0.1-0.1l0,0v0l0,0.1L4.4,16.1z"/>
	<polygon class="st5" points="5.3,15.8 5.2,15.9 5.1,16 4.9,16 4.9,16.2 5,16.3 5,16.3 5.1,16.3 5.1,16.1 5.3,16 5.4,15.9 5.4,15.8 
			"/>
	<path class="st5" d="M5,16.6l0.1-0.1l0.1,0l0.1,0.1c0,0.1-0.1,0.2-0.2,0.3c-0.1,0.2-0.2,0.3-0.2,0.3c-0.1,0-0.2-0.2-0.4-0.4
		l-0.1-0.2l0.1-0.1l0.1,0l0.1,0.1l0.2,0.1L5,16.6z"/>
	<path class="st1" d="M4.8,16.8L4.8,16.8L4.8,16.8l-0.1,0.1l0.1,0.3l0.1,0c0.1,0,0.1-0.1,0.1-0.2l0-0.1v0l-0.1-0.1h0"/>
	<path class="st0" d="M21.1,18.6c0.1,0.2,0.3,0.2,0.4,0.2l0.2,0h0.1l0.1,0l0,0.1l-0.1,0.1l0,0.1l-0.1,0.1l-0.1,0.1l0,0v0.1v0
		c0,0.2-0.1,0.3-0.2,0.4l-0.1,0l0,0.1c0,0.1-0.1,0.2-0.1,0.2l-0.1,0.2c-0.1,0.1-0.1,0.2-0.2,0.3l-0.1,0.1l-0.2-0.2l0,0l-0.1,0.1
		l-0.1,0.1l-0.1,0.1l-0.1,0.1l-0.1,0c0,0-0.1-0.1-0.1-0.2l-0.1-0.2l0-0.2c0-0.1,0-0.2,0.1-0.2c-0.1,0-0.2,0-0.3,0.1l-0.1,0l0,0
		l0-0.1l0.1-0.2c0.1-0.2,0.3-0.4,0.5-0.4l0.2,0l0.1,0l0.1-0.1l-0.1-0.1c0,0-0.1,0-0.2-0.1c-0.1,0-0.2-0.1-0.3-0.2
		c-0.1-0.1-0.1-0.1-0.2-0.1l0,0.1v0.1V19c0,0.2-0.1,0.4-0.2,0.6L19.4,20c-0.1,0.2-0.1,0.3-0.1,0.4c0,0.1,0.1,0.2,0.1,0.3l0.1,0l0,0
		l0,0l0,0.1L19.4,21c-0.1,0.2-0.2,0.2-0.4,0.2c-0.1,0.2-0.2,0.3-0.5,0.4l0,0.1c-0.1,0.1-0.3,0.3-0.4,0.3h0c0,0.1-0.1,0.2-0.2,0.4
		l-0.2,0.1l0,0.1l-0.1,0.1c-0.1,0-0.1-0.1-0.2-0.2l-0.1,0l-0.1,0.1c0,0-0.1,0-0.2,0.1c-0.2,0-0.3,0.1-0.4,0.2l-0.1,0.1l0,0l-0.1-0.1
		c-0.1-0.1-0.1-0.3-0.1-0.4c0-0.2,0.1-0.4,0.4-0.7v-0.1c0-0.4,0.3-0.6,0.7-0.6h0.1l0.2,0h0c0.1,0,0.2-0.1,0.4-0.2
		c0.2-0.1,0.2-0.2,0.2-0.4c0-0.1,0-0.1-0.1-0.3c0-0.1-0.1-0.2-0.1-0.3c0-0.3,0.2-0.6,0.5-0.8l0.1-0.2l0,0l-0.1,0.1L18.7,19l-0.1,0.1
		l-0.1,0.1l-0.1,0.1l0,0.1v0.1l0,0.1l-0.1,0.1c-0.1,0.2-0.2,0.2-0.3,0.3c-0.1,0.2-0.2,0.3-0.4,0.4c-0.1,0.2-0.2,0.4-0.5,0.4
		c0,0.1-0.1,0.2-0.2,0.3L16.8,21l-0.1,0.1L16.5,21l-0.1-0.1l-0.1-0.1l-0.1-0.1h-0.1l-0.2,0l-0.3,0.2L15.7,21l0,0
		c-0.1,0-0.1-0.1-0.1-0.4c0-0.2,0-0.3,0.1-0.4l0.2-0.3l0.1-0.1l0-0.1l-0.1-0.1l-0.1,0l0,0l0-0.1l0.2-0.2c0.2-0.1,0.3-0.1,0.4-0.1
		c0.1,0,0.2,0.1,0.4,0.1l0.2,0.1l0.1,0c0.1,0,0.2-0.1,0.2-0.2c0.1-0.1,0.1-0.2,0.1-0.3c0-0.3-0.2-0.4-0.5-0.4
		c-0.1,0-0.2,0.1-0.4,0.1l-0.1,0.1L16.4,19L16.3,19c0,0-0.1-0.1-0.2-0.2L16,18.6c0-0.1-0.1-0.2-0.1-0.4V18c-0.1-0.1-0.1-0.2-0.1-0.4
		c0-0.1,0-0.1,0.1-0.2c-0.1-0.1-0.1-0.2-0.1-0.3V17l0-0.1v-0.1c-0.1-0.1-0.1-0.1-0.2-0.4c0-0.2-0.1-0.2-0.1-0.3l0-0.1
		c0,0,0.1-0.1,0.2-0.1h0.1l0-0.1l0.1-0.3c0-0.1,0.1-0.1,0.1-0.2l0-0.2L15.9,15l0-0.1l0,0c0.1,0,0.4,0.1,0.6,0.3
		c0.2,0.2,0.3,0.3,0.3,0.6V16c0.2,0.2,0.3,0.3,0.3,0.4c0,0.1,0,0.2-0.1,0.3c-0.2,0.2-0.2,0.3-0.2,0.5c0,0.4,0.1,0.6,0.3,0.6
		c0.2,0,0.3-0.2,0.4-0.5l0-0.2l0-0.2l0-0.2c0-0.1-0.1-0.2-0.2-0.4c-0.2-0.2-0.3-0.4-0.3-0.5c0-0.2,0.2-0.4,0.4-0.4l0.1,0
		c0-0.1,0-0.1,0.1-0.3c0.1-0.1,0.1-0.2,0.1-0.2l0.1,0l0.1,0.1l0.1,0.1l0.1,0.1c0.1-0.1,0.1-0.2,0.2-0.4l0.2-0.1l0.1,0l0.1,0.1
		l0.1,0.1c0.1,0.1,0.1,0.1,0.1,0.2l0.1,0l0.1-0.1l0.1-0.1l0.1,0l0,0.1l0.1,0.2l0.1,0.2l0,0.2v0.1h0.1c0.1,0,0.3,0.2,0.3,0.4
		c0,0.2-0.2,0.6-0.5,0.7l0,0.2c0,0.6,0.2,0.7,1,0.8c0.2,0,0.4,0.1,0.6,0.1c0,0,0.2,0.1,0.6,0.2c0.2,0.1,0.3,0.1,0.4,0.1l0.2-0.1
		c0-0.1-0.1-0.2-0.6-0.3l-0.6-0.2c-0.6-0.2-0.9-0.6-0.9-1.2c0-0.6,0.5-1.1,1.2-1.1c0.2,0,0.5,0.1,0.9,0.2c0.5,0.2,0.5,0.2,0.5,0.2
		c0.1,0,0.1-0.1,0.2-0.2c0-0.1,0-0.1,0.1-0.1s0.2,0.1,0.2,0.2c0.1,0.1,0.1,0.2,0.1,0.4c0,0.2-0.1,0.4-0.4,0.4
		c-0.2,0.2-0.4,0.3-0.6,0.3c-0.3,0-0.4-0.1-0.9-0.4c-0.2-0.1-0.2-0.1-0.4-0.1c-0.2,0-0.3,0.1-0.3,0.2c0,0.1,0.1,0.2,0.4,0.3
		c0.1,0,0.2,0.1,0.2,0.1H21c0.2,0,0.5,0.1,0.8,0.3c0.4,0.1,0.9,0.6,0.9,1c0,0.4-0.4,0.8-0.8,0.8C21.6,18.7,21.3,18.6,21.1,18.6"/>
	<path class="st1" d="M20.9,20.5L20.9,20.5l0.1-0.2l0.1-0.1c0.1-0.1,0.1-0.2,0.1-0.3l0-0.1l0-0.1l0,0l0,0l0,0l0.1,0.1l0.1,0.1
		l0.1-0.1l0-0.1l-0.1-0.2l0-0.1l0-0.1l0.1,0.1l0.1,0c0.1,0,0.1-0.1,0.1-0.2l0-0.1l0,0h0h-0.1c-0.1,0-0.3-0.1-0.4-0.2l-0.2-0.2
		l-0.2-0.2l-0.2-0.1l0-0.1l0.1,0c0,0,0.2,0,0.4,0.1c0.2,0.1,0.6,0.2,0.7,0.2c0.3,0,0.6-0.3,0.6-0.6c0-0.2-0.1-0.3-0.3-0.6l-0.1-0.1
		l0,0.1l0,0.1l0,0.1l0,0.1c0,0-0.1-0.1-0.1-0.2c-0.1-0.2-0.1-0.2-0.4-0.4l-0.2-0.1l0,0l0,0.1l0.1,0.1l0,0l-0.1,0.1
		c-0.1,0-0.1,0-0.2-0.2c-0.1-0.1-0.2-0.2-0.3-0.2l-0.1,0l0,0l-0.1,0l0,0.1l0,0l0,0c0,0-0.2-0.1-0.3-0.2c-0.1-0.1-0.2-0.3-0.2-0.4
		c0-0.2,0.3-0.5,0.6-0.5l0.2,0l0.2,0.1l0.3,0.2c0.2,0.1,0.4,0.2,0.6,0.2c0.1,0,0.1,0,0.2,0l0.1-0.1l0,0l0,0h-0.2
		c-0.1,0-0.3-0.1-0.4-0.2l-0.3-0.2L21,15.6l0,0l0,0h0.1l0.3,0.1c0.1,0,0.2,0.1,0.3,0.1c0.3,0.2,0.5,0.2,0.6,0.2
		c0.2,0,0.3-0.1,0.3-0.2l0-0.2l-0.1-0.1l0,0l0,0.1v0.1v0c0,0.1-0.1,0.2-0.2,0.2c-0.1,0-0.3-0.1-0.7-0.2c-0.4-0.1-0.6-0.2-0.8-0.2
		c-0.6,0-1,0.4-1,0.9c0,0.4,0.3,0.7,0.9,1l0.6,0.2c0.5,0.2,0.7,0.3,0.7,0.5c0,0.2-0.1,0.2-0.4,0.2c-0.1,0-0.2,0-0.5-0.1
		c-0.6-0.2-1-0.2-1.3-0.2c-0.6,0-0.9,0.1-1.2,0.4l-0.1,0.1l-0.1,0l-0.2-0.1l-0.2,0.1L18,18.5l-0.1,0l-0.2-0.2l-0.1-0.2v-0.2v-0.1
		l0-0.1l0-0.1l0,0l0.1,0.1v0.1v0c0,0.2,0.1,0.4,0.2,0.4c0.1,0,0.1-0.1,0.2-0.4l0.1-0.1c0,0,0.1,0,0.1,0.1l0.1,0.2l0.1,0.1
		c0.1,0,0.1-0.1,0.1-0.3l0.1-0.1l0,0l0.1,0.1l0.1,0.1l0.1,0l0.1,0l0.1-0.1L19,17.7c-0.1-0.1-0.1-0.1-0.1-0.2l-0.1-0.2l0-0.1h0h0
		l-0.2,0.1h-0.1l0,0l0.1-0.1c0.2-0.1,0.3-0.4,0.3-0.7c0-0.2,0.1-0.3,0.1-0.4l0.1-0.1l0,0.1l0,0.1l0,0.1v0l0,0l0.1,0l0.1-0.1l0.1-0.3
		l-0.1-0.2l-0.1-0.1h-0.1h-0.1L19,15.7v-0.1v-0.1l-0.1-0.2l0-0.1l0-0.1l-0.1,0l-0.1,0.1l-0.1,0.1c-0.1,0.1-0.1,0.1-0.2,0.1l-0.1,0v0
		l0-0.1c0-0.1-0.1-0.3-0.2-0.4C18.1,15,18,15.2,18,15.3v0.1l0,0.1l0,0l-0.1,0l-0.1-0.1l-0.1-0.1l-0.1-0.1l0,0.1
		c-0.1,0.1-0.1,0.2-0.1,0.3l0,0.1l-0.1,0c-0.1-0.1-0.1-0.1-0.2-0.1c-0.1,0-0.2,0.1-0.2,0.2l0.1,0.2c0.1,0.1,0.2,0.2,0.2,0.2v0v0
		v-0.1l0-0.1l0,0l0,0c0.1,0,0.1,0.2,0.2,0.6c0.1,0.3,0.1,0.6,0.3,0.7l0.1,0.1l0,0l-0.1,0l-0.1,0l-0.2,0.2l-0.1,0.4l-0.1,0.6
		c0,0.1,0,0.2,0,0.4c0,0.1,0.1,0.2,0.1,0.3c0,0.4-0.3,0.7-0.7,0.9l-0.5,0.1c-0.3,0.1-0.4,0.3-0.5,0.6c0.1-0.1,0.1-0.1,0.2-0.1l0.1,0
		l0.1,0l0.1-0.1l0.1-0.1l0.1-0.1l0,0l-0.1,0.1l-0.1,0.2c0,0.1,0,0.1,0.1,0.3l0-0.1l0.1-0.1c0.1-0.1,0.2-0.2,0.2-0.3
		c0-0.1,0-0.1,0-0.1l0,0.1l0,0l0.1,0l0.1,0l0.1-0.1l0.1-0.1l0-0.1v0l0-0.1l0.1,0.1l0.1,0l0,0l0.1,0l0.1-0.2v-0.1l0-0.1l0,0l0,0
		l0.1,0.1l0.1,0.1l0.1-0.1l0.1-0.1l0-0.1l0-0.1L18,19.2v-0.1c0-0.1,0-0.2,0.1-0.3l0.1-0.2l0-0.1l0,0v0.1v0.1v0.1l0.1,0l0.1,0
		l0.2-0.1l0.2-0.1c0.3-0.2,0.4-0.2,0.5-0.2c0.1,0,0.2,0,0.4,0.1l0.1,0l0.1,0l0-0.1l0-0.1l-0.1-0.1l0,0l0.1,0c0,0,0.1,0.1,0.2,0.3
		c0.1,0.2,0.3,0.4,0.5,0.4l0.3,0.1c0.1,0,0.1,0.1,0.1,0.2c0,0.2-0.1,0.4-0.3,0.5L20.3,20c-0.1,0.1-0.2,0.2-0.2,0.4
		c0,0.1,0,0.2,0.1,0.4l0.1-0.1l0.1-0.1l0.1-0.1l0.1-0.1l0.1-0.1l0.1-0.1l0,0.1v0v0C20.8,20.3,20.8,20.3,20.9,20.5"/>
	<path class="st1" d="M16.5,22.5c0-0.3,0.1-0.5,0.6-0.7c1-0.5,1.5-0.9,1.5-1.2c0-0.1,0-0.2-0.1-0.4c0-0.1-0.1-0.2-0.1-0.3
		c0-0.1,0.1-0.4,0.3-0.5l0.1-0.1l0.1-0.2v0v0l0.1-0.1h0.1h0.1l0.1,0l0,0.1l0.1,0.1l0.1,0l0.1,0l0.1,0l0.1,0.1c0,0.1-0.1,0.3-0.2,0.6
		c-0.3,0.4-0.4,0.6-0.4,0.8c0,0.2,0.1,0.3,0.2,0.5l0,0.1L19.3,21L19.2,21l-0.1,0.1L19,21.1l0-0.1l-0.1,0l0,0l0,0.1v0.1l-0.1,0.1
		l-0.1,0.1l-0.1,0l-0.1-0.1l-0.1-0.1l0,0l-0.1,0.1c0,0.2-0.1,0.2-0.1,0.3l-0.1,0.1l-0.1,0.1l-0.1,0L18,21.6l0,0c0,0-0.1,0.1-0.1,0.2
		c0,0.2-0.1,0.4-0.2,0.5c-0.1,0.1-0.1,0.1-0.2,0.2c-0.1-0.1-0.1-0.2-0.1-0.3l0-0.1l0.1-0.1l0,0l0,0l-0.1,0.1
		c-0.1,0.1-0.2,0.1-0.2,0.2c-0.1,0.2-0.1,0.3-0.3,0.3c-0.2,0.1-0.3,0.1-0.4,0.1V22.5z"/>
	<path class="st1" d="M16.1,15.3L16.1,15.3v0.2l0,0.1l0,0.2c0,0.1,0,0.2,0.1,0.3l0.1,0.2l0,0.1l0,0l-0.1-0.1
		c-0.1-0.1-0.1-0.1-0.2-0.1h-0.1c0.1,0.1,0.1,0.2,0.1,0.2c0.1,0.2,0.1,0.2,0.2,0.4c0.1,0.1,0.1,0.1,0.1,0.2l-0.1,0.1H16h0l-0.1,0.1
		l0.1,0.2l0.1,0.1l0.1,0.1l0,0.1l-0.1,0.1l-0.1,0l-0.1,0l-0.1,0.1l0,0.1l0,0.2l0.1,0.1l0.1,0.1l0.1,0.1l0,0.1l-0.1,0.1h-0.1h-0.1
		L16,18.4v0.1l0,0.1c0,0.1,0.1,0.2,0.1,0.2l0.1,0c0.1-0.1,0.3-0.1,0.4-0.1s0.3,0,0.4,0l0.1,0l0-0.1l0-0.1l0-0.2l0-0.2V18L17.1,18
		c-0.1,0.1-0.2,0.1-0.3,0.1c-0.3,0-0.5-0.4-0.5-1c0-0.2,0-0.6,0.1-1l0-0.2C16.5,15.7,16.3,15.5,16.1,15.3"/>
	<polygon class="st1" points="16.6,16.5 16.6,16.6 16.6,16.7 16.6,16.8 16.6,16.9 16.6,16.8 16.7,16.8 16.8,16.6 16.7,16.5 
		16.6,16.4 	"/>
	<path class="st1" d="M15.9,19.7l0.2,0.1c0.1,0.1,0.2,0.1,0.3,0.1h0.1l0.1,0l0.1,0l0.1,0l-0.1-0.1l-0.2-0.1l-0.2-0.1L15.9,19.7z"/>
	<path class="st1" d="M16.9,21.7c0-0.2,0.2-0.4,0.5-0.4c0.1,0,0.2,0,0.2,0.1c0,0-0.1,0.1-0.2,0.2c0,0-0.1,0.1-0.2,0.1
		c-0.1,0.1-0.2,0.1-0.3,0.2L16.9,21.7z"/>
	<path class="st1" d="M19.9,20l0.2-0.1h0.1l0.1-0.1l0.1-0.1c0.1-0.1,0.2-0.1,0.2-0.1c0,0-0.1-0.1-0.2-0.1C20.1,19.6,20,19.7,19.9,20
		"/>
	<path class="st5" d="M17.7,15.8l0.1,0.1l0.1,0.1C18,16,18.1,16,18.1,16v0.1l0,0.1l-0.1,0.1c-0.1,0-0.1-0.1-0.2-0.2L17.7,15.8
		L17.7,15.8L17.7,15.8"/>
	<polygon class="st5" points="18.6,15.8 18.5,15.9 18.3,16 18.3,16 18.3,16.1 18.3,16.2 18.3,16.3 18.4,16.4 18.4,16.4 18.4,16.3 
		18.5,16.2 18.7,16 18.7,15.9 18.7,15.9 18.7,15.8 	"/>
	<path class="st5" d="M17.9,16.5l0.1,0.1l0.1,0l0.2-0.1l0.1,0h0.1l0.1,0.1c0,0.1-0.1,0.2-0.2,0.4l-0.1,0.2l-0.2,0.1
		c-0.1,0-0.1-0.1-0.2-0.3c-0.1-0.2-0.1-0.3-0.1-0.4l0.1-0.1L17.9,16.5z"/>
	<path class="st1" d="M18,16.9V17l0.1,0.1c0.1,0,0.1-0.1,0.1-0.2l0-0.1l-0.1-0.1h0h-0.1h0L18,16.9"/>
	<path class="st0" d="M9.8,13.7h0.7v1.4h0.8v-1.4h2.1v1.4h0.9v-1.4H15v-3.6h-0.8l0,0C14,10,13.9,9.9,13.8,9.9s-0.3,0.1-0.4,0.2h-0.6
		c-0.1-0.1-0.2-0.2-0.4-0.2c-0.2,0-0.3,0.1-0.4,0.2h-0.6c-0.1-0.2-0.2-0.2-0.4-0.2s-0.3,0.1-0.4,0.2H9.8L9.8,13.7L9.8,13.7z"/>
	<rect x="10.1" y="10.5" class="st4" width="4.6" height="3"/>
	<path class="st1" d="M10.6,11.2c-0.1,0-0.2,0.1-0.2,0.2s0.1,0.2,0.2,0.2s0.2-0.1,0.2-0.2C10.8,11.3,10.7,11.2,10.6,11.2"/>
	<path class="st0" d="M10.6,11.6c-0.1,0-0.2-0.1-0.2-0.2s0.1-0.2,0.2-0.2s0.2,0.1,0.2,0.2S10.7,11.6,10.6,11.6 M10.6,11.2l-0.2,0.2
		l0.2,0.2l0.2-0.2L10.6,11.2z"/>
	<path class="st1" d="M14.2,11.2c-0.1,0-0.2,0.1-0.2,0.2s0.1,0.2,0.2,0.2s0.2-0.1,0.2-0.2C14.4,11.3,14.3,11.2,14.2,11.2"/>
	<path class="st0" d="M14.2,11.6c-0.1,0-0.2-0.1-0.2-0.2s0.1-0.2,0.2-0.2s0.2,0.1,0.2,0.2S14.3,11.6,14.2,11.6 M14.2,11.2L14,11.4
		l0.2,0.2l0.2-0.2L14.2,11.2z"/>
	<path class="st1" d="M10.6,12.8c-0.1,0-0.2,0.1-0.2,0.2c0,0.1,0.1,0.2,0.2,0.2s0.2-0.1,0.2-0.2C10.8,12.9,10.7,12.8,10.6,12.8"/>
	<path class="st0" d="M10.6,13.2c-0.1,0-0.2-0.1-0.2-0.2c0-0.1,0.1-0.2,0.2-0.2s0.2,0.1,0.2,0.2C10.8,13.1,10.7,13.2,10.6,13.2
		 M10.6,12.8L10.4,13c0,0.1,0.1,0.2,0.2,0.2l0.2-0.2L10.6,12.8z"/>
	<path class="st1" d="M14.2,12.8c-0.1,0-0.2,0.1-0.2,0.2c0,0.1,0.1,0.2,0.2,0.2s0.2-0.1,0.2-0.2C14.4,12.9,14.3,12.8,14.2,12.8"/>
	<path class="st0" d="M14.2,13.2c-0.1,0-0.2-0.1-0.2-0.2c0-0.1,0.1-0.2,0.2-0.2s0.2,0.1,0.2,0.2C14.5,13.1,14.3,13.2,14.2,13.2
		 M14.2,12.8L14,13l0.2,0.2l0.2-0.2L14.2,12.8z"/>
	<path class="st1" d="M11.3,12.2c0.3,0.4,0.7,0.5,1.1,0.5s0.7-0.1,1.1-0.5c-0.4-0.3-0.7-0.5-1.1-0.5S11.5,11.9,11.3,12.2"/>
	<path class="st0" d="M11.5,12.2c0.3-0.2,0.6-0.3,0.9-0.3c0.3,0,0.6,0.1,0.9,0.3c-0.3,0.2-0.5,0.4-0.9,0.4
		C12,12.5,11.7,12.4,11.5,12.2"/>
	<path class="st1" d="M11.9,12.1c0.2,0.1,0.3,0.1,0.5,0.1c0.2,0,0.4-0.1,0.5-0.1C12.7,12,12.5,12,12.4,12C12.2,12,12,12,11.9,12.1"
		/>
	<rect x="10" y="10.6" class="st0" width="4.8" height="0.1"/>
	<path class="st6" d="M10,10.6h4.8v0.1H10L10,10.6L10,10.6z M10,10.8h4.8v-0.2H10L10,10.8L10,10.8z"/>
	<path class="st1" d="M10.8,10.4v0.4v0.1c0,0.1,0.1,0.2,0.2,0.2c0.1,0,0.2-0.1,0.2-0.2v-0.1v-0.4c0-0.2-0.1-0.3-0.2-0.3l-0.1,0
		l-0.1,0l-0.1,0.1V10.4"/>
	<path class="st1" d="M12.2,10.8L12.2,10.8c0,0.2,0.1,0.2,0.2,0.2c0.1,0,0.2-0.1,0.2-0.2v-0.1v-0.4c0-0.2-0.1-0.3-0.2-0.3
		c-0.1,0-0.2,0.1-0.2,0.2"/>
	<path class="st1" d="M13.6,10.4v0.4v0.1c0,0.1,0.1,0.2,0.2,0.2c0.1,0,0.2-0.1,0.2-0.2v-0.1v-0.4c0-0.2-0.1-0.3-0.2-0.3l-0.1,0
		l-0.1,0l-0.1,0.1V10.4"/>
	<rect x="10.6" y="14.1" class="st1" width="0.4" height="0.5"/>
	<rect x="10.6" y="14.7" class="st1" width="0.4" height="0.2"/>
	<rect x="13.6" y="14.1" class="st1" width="0.4" height="0.5"/>
	<rect x="13.6" y="14.7" class="st1" width="0.4" height="0.2"/>
</g>
</svg>
