<svg xmlns="http://www.w3.org/2000/svg" version="1.1" xmlns:xlink="http://www.w3.org/1999/xlink" width="512" height="512" x="0" y="0" viewBox="0 0 468 468" style="enable-background:new 0 0 512 512" xml:space="preserve" class=""><rect width="468" height="468" rx="93.6" ry="93.6" fill="#fff7e6" shape="rounded"></rect><g transform="matrix(0.6,0,0,0.6,93.59980468750001,93.59979782104492)"><path d="M277.696 401.054h-25.687l-37.187-44.662h-57.375l-37.187 44.662H92.577a5.11 5.11 0 0 0 0 10.218h185.119a5.11 5.11 0 0 0 0-10.218zM334.421 156.564V68.683H36.786v240.704h266.923V176.998c0-11.268 9.167-20.435 20.435-20.435h10.277z" fill="#ffb200" opacity="1" data-original="#000000"></path><path d="M26.568 314.496V63.574a5.11 5.11 0 0 1 5.109-5.109H339.53a5.11 5.11 0 0 1 5.109 5.109v92.99h26.568V49.277c0-9.584-7.797-17.38-17.381-17.38H17.381C7.797 31.897 0 39.693 0 49.277v279.516c0 9.584 7.797 17.38 17.381 17.38H303.71v-26.568H31.677a5.108 5.108 0 0 1-5.109-5.109z" fill="#ffb200" opacity="1" data-original="#000000"></path><path d="M366.9 179.246h48.127c6.788 0 12.331-5.56 12.508-12.464h-73.144c.178 6.903 5.721 12.464 12.509 12.464z" fill="#ffb200" opacity="1" data-original="#000000"></path><path d="M457.784 166.782H437.75c-.182 12.538-10.302 22.682-22.723 22.682H366.9c-12.421 0-22.541-10.144-22.723-22.682h-20.034c-5.634 0-10.216 4.583-10.216 10.216v248.888c0 5.633 4.583 10.216 10.216 10.216h133.64c5.634 0 10.216-4.583 10.216-10.216V176.998c.001-5.633-4.582-10.216-10.215-10.216zM408.128 421.8h-34.329a5.11 5.11 0 0 1 0-10.218h34.329a5.11 5.11 0 0 1 0 10.218z" fill="#ffb200" opacity="1" data-original="#000000"></path></g></svg>