<svg xmlns="http://www.w3.org/2000/svg" version="1.1" xmlns:xlink="http://www.w3.org/1999/xlink" width="512" height="512" x="0" y="0" viewBox="0 0 24 24" style="enable-background:new 0 0 512 512" xml:space="preserve"><rect width="24" height="24" rx="4.8" ry="4.8" fill="#ffeceb" shape="rounded"></rect><g transform="matrix(0.6,0,0,0.6,4.798474502563477,4.800007629394532)"><path d="m9 21.62.33-2.57a5 5 0 0 1 1.43-2.9l5.68-5.69A5 5 0 0 1 19 9.13V6a5 5 0 0 0-5-5H6a5 5 0 0 0-5 5v12a5 5 0 0 0 5 5h3.18A2.94 2.94 0 0 1 9 21.62zM5 7h8a1 1 0 0 1 0 2H5a1 1 0 0 1 0-2zm0 4h6a1 1 0 0 1 0 2H5a1 1 0 0 1 0-2zm2 6H5a1 1 0 0 1 0-2h2a1 1 0 0 1 0 2zm15.12-.88-5.69 5.69a2.93 2.93 0 0 1-1.74.85l-2.56.34H12a1 1 0 0 1-1-1.13l.33-2.56a2.93 2.93 0 0 1 .85-1.74l5.69-5.69a3.08 3.08 0 0 1 4.24 0 3 3 0 0 1 .01 4.24z" fill="#e63835" opacity="1" data-original="#000000"></path></g></svg>