<svg xmlns="http://www.w3.org/2000/svg" version="1.1" xmlns:xlink="http://www.w3.org/1999/xlink" width="512" height="512" x="0" y="0" viewBox="0 0 512 512" style="enable-background:new 0 0 512 512" xml:space="preserve" class=""><rect width="512" height="512" rx="102.4" ry="102.4" fill="#e8edfb" shape="rounded"></rect><g transform="matrix(0.6,0,0,0.6,102.39999694824218,102.40020751953125)"><path d="M138.592 451.408H44.796a8 8 0 0 1-8-8v-93.796a8 8 0 0 1 16 0v85.796h85.796a8 8 0 0 1 0 16zM373.408 29h85.796v85.796a8 8 0 0 0 16 0V21a8 8 0 0 0-8-8h-93.796a8 8 0 0 0 0 16zm93.796 312.612a8 8 0 0 0-8 8v85.796h-85.796a8 8 0 0 0 0 16h93.796a8 8 0 0 0 8-8v-93.796a8 8 0 0 0-8-8zM44.796 122.796a8 8 0 0 0 8-8V29h85.796a8 8 0 0 0 0-16H44.796a8 8 0 0 0-8 8v93.796a8 8 0 0 0 8 8zm446.19 45.652h-82.685c2.468-22.73 1.578-40.333-2.613-53.828-7.344-23.65-23.986-33.027-39.417-39.666C336.911 43.065 294.82 23.318 256 23.318c-21.039 0-43.444 5.857-64.794 16.939-22.21 11.529-41.611 27.958-56.104 47.512-13.591 18.337-22.501 38.764-26.482 60.712-1.191 6.565-1.908 13.227-2.191 19.966H21.014a8 8 0 0 0 0 16h469.972a8 8 0 0 0 0-16zM83.762 256.019c3.097 31.162 21.168 66.155 45.771 72.854 11.432 32.195 28.409 59.49 49.272 79.152 22.951 21.631 49.645 33.064 77.194 33.064s54.243-11.433 77.198-33.064c20.866-19.663 37.853-46.959 49.298-79.161 24.589-6.719 42.646-41.696 45.742-72.846 2.312-23.262-4.504-39.128-18.703-43.532a29.945 29.945 0 0 0-8.441-1.347 561.088 561.088 0 0 0 2.204-10.692H108.366a174.893 174.893 0 0 0 2.059 10.703c-2.647.08-5.332.521-7.963 1.336-14.196 4.404-21.012 20.27-18.7 43.531zm375.829 227.155-134.179-28.413-1.912-18.662c-20.916 13.798-43.87 20.991-67.5 20.991s-46.586-7.193-67.5-20.992l-1.912 18.663-134.18 28.413a8 8 0 0 0 1.658 15.827h403.869a8 8 0 0 0 1.657-15.827z" fill="#1c51db" opacity="1" data-original="#000000" class=""></path></g></svg>