<?xml version="1.0" encoding="UTF-8"?>
<svg id="Layer_1" xmlns="http://www.w3.org/2000/svg" xmlns:xlink="http://www.w3.org/1999/xlink" version="1.1" viewBox="0 0 1596 316">
  <!-- Generator: Adobe Illustrator 29.2.1, SVG Export Plug-In . SVG Version: 2.1.0 Build 116)  -->
  <defs>
    <style>
      .st0 {
        fill: none;
      }

      .st1 {
        mask: url(#mask);
      }

      .st2 {
        fill: #e9e9ea;
      }

      .st3 {
        fill: #dcdedc;
      }

      .st4 {
        mask: url(#mask-2);
      }

      .st5 {
        mask: url(#mask-3);
      }

      .st6 {
        mask: url(#mask-1);
      }

      .st7 {
        fill: #252530;
      }

      .st8 {
        clip-path: url(#clippath-1);
      }

      .st9 {
        fill: #9132a2;
      }

      .st10 {
        fill: #fff;
      }

      .st11 {
        fill: #f2f3f2;
      }

      .st12 {
        fill: #f7f8f7;
      }

      .st13 {
        clip-path: url(#clippath);
      }

      .st14 {
        fill: #ff492c;
      }
    </style>
    <clipPath id="clippath">
      <rect class="st0" x="1014.5" y="20.7" width="243.2" height="274.2"/>
    </clipPath>
    <mask id="mask" x="1001.6" y="155.2" width="269.1" height="64.7" maskUnits="userSpaceOnUse">
      <g id="mask0_3776_36236">
        <path class="st10" d="M1249.4,168.2h-226.6l-8.3,19.4,8.3,19.4h226.6l8.3-19.4-8.3-19.4Z"/>
      </g>
    </mask>
    <mask id="mask-1" x="1097.3" y="7.7" width="77.6" height="80.2" maskUnits="userSpaceOnUse">
      <g id="mask1_3776_36236">
        <path class="st10" d="M1136.1,75l25.9-14.5V20.7h-51.7v39.8l25.9,14.5ZM1141.3,41c0-1.1.2-2.1.8-3.1.7-1,1.7-1.7,2.7-2.2l.6-.3c1.1-.5,1.3-1,1.3-1.5s-.6-1.1-1.5-1.1c-.5,0-1.1,0-1.6.4-.5.3-.8.7-1,1.2l-1.4-1.4c.3-.7.9-1.2,1.6-1.6.7-.4,1.5-.6,2.3-.6,1,0,1.9.2,2.7.8.4.2.7.6.9,1,.2.4.3.8.3,1.3,0,1.5-.9,2.4-2.6,3.2l-1,.4c-1,.5-1.5.9-1.6,1.7h5.2v2h-7.8v-.4ZM1147.7,44l3.9,6.5-3.9,6.5-3.9-6.5h-7.8l3.9-6.4h7.8ZM1136.9,31.1c1.1,0,2.2.1,3.2.3l-3.2,6.3c-2.4,0-4.7.9-6.5,2.5-1.8,1.7-2.8,4-2.8,6.4,0,2.4,1.1,4.7,2.8,6.4s4.1,2.6,6.5,2.5c2.2,0,4.4-.7,6.1-2.1l3.5,5.8c-2.8,2-6.2,3-9.6,3-4.2,0-8.3-1.5-11.3-4.4-3-2.9-4.8-6.9-4.9-11.1,0-4.2,1.9-8.2,4.9-11.1,3.1-2.9,7.1-4.5,11.3-4.4Z"/>
      </g>
    </mask>
    <clipPath id="clippath-1">
      <rect class="st0" x="1352.8" y="20.7" width="243.2" height="274.2"/>
    </clipPath>
    <mask id="mask-2" x="1339.9" y="155.2" width="269.1" height="64.7" maskUnits="userSpaceOnUse">
      <g id="mask2_3776_36236">
        <path class="st10" d="M1587.7,168.2h-226.6l-8.3,19.4,8.3,19.4h226.6l8.3-19.4-8.3-19.4Z"/>
      </g>
    </mask>
    <mask id="mask-3" x="1435.6" y="7.7" width="77.6" height="80.2" maskUnits="userSpaceOnUse">
      <g id="mask3_3776_36236">
        <path class="st10" d="M1474.4,75l25.9-14.5V20.7h-51.7v39.8l25.9,14.5ZM1479.6,41c0-1.1.2-2.1.8-3.1.7-1,1.7-1.7,2.7-2.2l.6-.3c1.1-.5,1.3-1,1.3-1.5s-.6-1.1-1.5-1.1c-.6,0-1.1,0-1.6.4-.5.3-.8.7-1,1.2l-1.4-1.4c.4-.7.9-1.2,1.6-1.6.7-.4,1.5-.6,2.3-.6,1,0,1.9.2,2.7.8.4.2.7.6.9,1,.2.4.3.8.3,1.3,0,1.5-.9,2.4-2.6,3.2l-1,.4c-1,.5-1.5.9-1.6,1.7h5.2v2h-7.8v-.4ZM1486,44l3.9,6.5-3.9,6.5-3.9-6.5h-7.8l3.9-6.4h7.8ZM1475.2,31.1c1.1,0,2.2.1,3.2.3l-3.2,6.3c-2.4,0-4.7.9-6.5,2.5-1.7,1.7-2.7,4-2.8,6.4,0,2.4,1.1,4.7,2.8,6.4s4.1,2.6,6.5,2.5c2.2,0,4.4-.7,6.1-2.1l3.5,5.8c-2.8,2-6.2,3-9.6,3-4.2,0-8.3-1.5-11.3-4.4-3.1-2.9-4.8-6.9-4.9-11.1,0-4.2,1.9-8.2,4.9-11.1,3-2.9,7.1-4.5,11.3-4.4Z"/>
      </g>
    </mask>
  </defs>
  <g>
    <path class="st10" d="M21,232.6l102.2,52,98.3-52V29.2H21v203.4Z"/>
    <path class="st11" d="M223.5,30L18.9,236.2l106.1,52.5,98.6-50.5V30Z"/>
    <path class="st3" d="M14.2,97v140l3.6,1.8,102.2,52,3.1,1.6,3.1-1.6,98.6-52,3.6-1.8V22.5H14.2v74.5ZM21,233.1V29.2h200.8v203.9l-98.6,52-102.2-52Z"/>
    <path class="st14" d="M121.3,32.6c1,0,2.1,0,3.1.3l-3.1,6c-4.7-.3-8.8,3.4-9.1,8-.3,4.7,3.4,8.8,8,9.1h1c2.1,0,4.1-.8,5.7-2.1l3.4,5.7c-2.6,1.8-5.7,2.8-9.1,2.8-8.3.3-15.3-6-15.5-14.2-.3-8.3,6-15.3,14.2-15.5h1.3ZM131.9,45.3l3.9,6.5-3.9,6.2-3.6-6.2h-7.5l3.9-6.5h7.2ZM125.7,42.9c0-1,.3-2.1.8-2.8.5-.8,1.6-1.6,2.3-2.1l.5-.3c1-.5,1.3-.8,1.3-1.3s-.8-1-1.3-1c-1,0-1.8.5-2.3,1.6l-1.3-1.3c.3-.5.8-1,1.3-1.6.8-.5,1.6-.5,2.3-.5s1.8.3,2.3.8c.5.5,1,1.3,1,2.1,0,1.3-.8,2.3-2.3,2.8l-.8.5c-.8.5-1.3.8-1.6,1.6h4.7v1.8l-7-.3ZM121.3,75.3l24.6-14V22.5h-49.4v38.5l24.8,14.2ZM233.4,166.9H9.3l-8.3,18.1,8.3,18.1h224.1l8-18.1-8-18.1Z"/>
    <path class="st7" d="M49.4,155.2c-.2,0-.3,0-.4-.2-.1-.1-.2-.3-.2-.4v-31.5c0-.2,0-.3.2-.4.1-.1.2-.2.4-.2h5.5c.2,0,.3,0,.4.2.1.1.2.3.2.4v26.2c0,.2,0,.2.2.2h15.2c.2,0,.3,0,.4.2.1.1.2.3.2.4v4.5c0,.2,0,.3-.2.4-.1.1-.3.2-.4.2h-21.5ZM96.2,140.8c.2,1.2.3,2.5.2,4,0,.4-.2.6-.6.6h-14.4c-.2,0-.3,0-.2.2,0,.6.3,1.2.5,1.9.8,1.7,2.5,2.6,4.9,2.6,2,0,3.6-.8,4.7-2.4.1-.2.3-.3.4-.3s.2,0,.3.2l3.3,3.3c.2.2.2.3.2.4s0,.2-.2.4c-1,1.3-2.3,2.2-4,2.9-1.6.7-3.4,1-5.3,1s-4.9-.6-6.8-1.8c-1.8-1.2-3.2-2.9-4-5.1-.7-1.6-1-3.6-1-6.1s.2-3.2.7-4.5c.7-2.2,2-4,3.8-5.3,1.8-1.3,3.9-1.9,6.4-1.9s5.6.9,7.5,2.7c1.9,1.8,3,4.2,3.4,7.2ZM85.4,136.5c-2,0-3.3.9-3.9,2.7-.1.4-.2.9-.3,1.5,0,.2,0,.2.2.2h8c.2,0,.3,0,.2-.2-.2-.9-.2-1.3-.2-1.3-.3-.9-.8-1.7-1.4-2.2-.7-.5-1.6-.8-2.6-.8ZM109.8,130.9c2,0,3.8.4,5.4,1.1,1.6.7,2.8,1.6,3.7,2.9.9,1.2,1.3,2.6,1.3,4v15.8c0,.2,0,.3-.2.4-.1.1-.2.2-.4.2h-5.5c-.2,0-.3,0-.4-.2-.1-.1-.2-.3-.2-.4v-1.5c0,0,0-.1,0-.2,0,0-.1,0-.2,0-1.3,1.7-3.4,2.6-6.3,2.6s-4.4-.6-5.9-1.8c-1.5-1.2-2.3-2.9-2.3-5.2s.8-4.2,2.5-5.6c1.7-1.3,4.1-2,7.2-2h4.7c.2,0,.2,0,.2-.2v-1c0-1-.3-1.8-.9-2.4-.6-.6-1.6-.9-2.8-.9s-1.7.2-2.4.5-1.1.8-1.2,1.4c0,.3-.3.5-.6.5l-5.6-.8c-.4,0-.6-.2-.5-.4.1-1.3.6-2.5,1.6-3.5.9-1.1,2.1-1.9,3.6-2.5,1.5-.6,3.2-.9,5-.9ZM108.9,150.7c1.3,0,2.5-.4,3.4-1.1.9-.7,1.4-1.6,1.4-2.7v-1.7c0-.2,0-.2-.2-.2h-3.3c-1.4,0-2.5.3-3.3.8-.8.5-1.2,1.3-1.2,2.2s.3,1.5.9,2c.6.5,1.4.7,2.4.7ZM139.7,123.2c0-.2,0-.3.2-.4.1-.1.2-.2.4-.2h5.5c.2,0,.3,0,.4.2.1.1.2.3.2.4v31.5c0,.2,0,.3-.2.4-.1.1-.2.2-.4.2h-5.5c-.2,0-.3,0-.4-.2-.1-.1-.2-.3-.2-.4v-1.5c0,0,0-.1-.1-.2s-.1,0-.2,0c-1.3,1.7-3.1,2.6-5.4,2.6s-4-.6-5.6-1.8c-1.6-1.2-2.7-2.9-3.4-5-.5-1.6-.8-3.5-.8-5.6s.3-4.1.8-5.8c.7-2,1.9-3.6,3.4-4.7,1.5-1.2,3.4-1.8,5.7-1.8s4,.8,5.2,2.3c0,.1.1.1.2.1,0,0,.1,0,.1-.2v-10ZM138.7,148c.6-1.1.9-2.7.9-4.7s-.3-3.7-1-4.9c-.7-1.2-1.7-1.8-3.1-1.8s-2.6.6-3.3,1.8c-.8,1.2-1.2,2.9-1.2,4.9s.3,3.4,1,4.7c.8,1.3,1.9,2,3.4,2s2.5-.7,3.3-2ZM172.4,140.8c.2,1.2.2,2.5.2,4,0,.4-.2.6-.6.6h-14.4c-.2,0-.2,0-.2.2,0,.6.2,1.2.5,1.9.8,1.7,2.5,2.6,4.9,2.6,2,0,3.6-.8,4.7-2.4.1-.2.3-.3.4-.3s.2,0,.3.2l3.3,3.3c.2.2.2.3.2.4s0,.2-.2.4c-1,1.3-2.3,2.2-4,2.9-1.6.7-3.4,1-5.3,1s-4.9-.6-6.8-1.8c-1.8-1.2-3.2-2.9-4-5.1-.7-1.6-1-3.6-1-6.1s.2-3.2.7-4.5c.7-2.2,2-4,3.8-5.3,1.8-1.3,3.9-1.9,6.4-1.9s5.6.9,7.5,2.7c1.9,1.8,3,4.2,3.4,7.2ZM161.5,136.5c-2,0-3.3.9-3.9,2.7-.1.4-.2.9-.3,1.5,0,.2,0,.2.2.2h8c.2,0,.3,0,.2-.2-.2-.9-.2-1.3-.2-1.3-.3-.9-.8-1.7-1.4-2.2-.7-.5-1.6-.8-2.6-.8ZM188.6,131c1.1,0,2,.2,2.6.6.3.1.4.4.3.7l-1,5.3c0,.4-.2.5-.6.3-.5-.2-1-.2-1.6-.2s-.6,0-1,.1c-1.1,0-2.1.5-2.8,1.2-.8.7-1.2,1.7-1.2,2.9v12.7c0,.2,0,.3-.2.4-.1.1-.3.2-.4.2h-5.4c-.2,0-.3,0-.4-.2-.1-.1-.2-.3-.2-.4v-22.8c0-.2,0-.3.2-.4.1-.1.3-.2.4-.2h5.4c.2,0,.3,0,.4.2.1.1.2.2.2.4v1.8c0,0,0,.1,0,.2,0,0,.1,0,.2,0,1.3-1.9,3-2.8,5.1-2.8Z"/>
    <path class="st10" d="M80.7,195.1c-.2,0-.3,0-.4-.3l-4.7-17.5h0c0-.3,0-.3.3-.3h2.5c.2,0,.3,0,.4.3l2.9,11.8c0,0,0,0,0,0s0,0,0,0l2.8-11.8c0-.2.2-.3.3-.3h2.5c.2,0,.3,0,.4.3l3,11.8c0,0,0,0,0,0s0,0,0,0l2.9-11.8c0-.2.2-.3.4-.3h2.4c.2,0,.3.1.3.3l-4.5,17.5c0,.2-.2.3-.4.3h-2.4c-.2,0-.3,0-.4-.3l-3-12.3c0,0,0,0,0-.1,0,0,0,0,0,.1l-2.9,12.3c0,.2-.2.3-.3.3h-2.3ZM99.9,195.1c0,0-.2,0-.2-.1,0,0,0-.1,0-.2v-17.5c0,0,0-.2,0-.2,0,0,.1-.1.2-.1h2.4c0,0,.2,0,.2.1,0,0,.1.1.1.2v17.5c0,0,0,.2-.1.2,0,0-.1.1-.2.1h-2.4ZM116.9,177.3c0,0,0-.2,0-.2,0,0,.1-.1.2-.1h2.4c0,0,.2,0,.2.1,0,0,.1.1.1.2v17.5c0,0,0,.2-.1.2,0,0-.1.1-.2.1h-2.3c-.2,0-.3,0-.4-.2l-7.5-12.2c0,0,0,0-.1,0,0,0,0,0,0,.1v12.1c0,0,0,.2,0,.2,0,0-.1.1-.2.1h-2.4c0,0-.2,0-.2-.1,0,0,0-.1,0-.2v-17.5c0,0,0-.2,0-.2,0,0,.1-.1.2-.1h2.3c.2,0,.3,0,.4.2l7.4,12.2c0,0,0,0,.1,0,0,0,0,0,0-.1v-12.1ZM135.6,177c0,0,.2,0,.2.1,0,0,.1.1.1.2v2c0,0,0,.2-.1.2,0,0-.1.1-.2.1h-4.8c0,0-.1,0-.1.1v15.1c0,0,0,.2,0,.2s-.1.1-.2.1h-2.4c0,0-.2,0-.2-.1,0,0-.1-.1-.1-.2v-15.1c0,0,0-.1-.1-.1h-4.6c0,0-.2,0-.2-.1,0,0,0-.1,0-.2v-2c0,0,0-.2,0-.2s.1-.1.2-.1h12.6ZM150.9,179.2c0,0,0,.2-.1.2,0,0-.1.1-.2.1h-8.8c0,0-.1,0-.1.1v4.8c0,0,0,.1.1.1h5.9c0,0,.2,0,.2,0,0,0,0,.1,0,.2v2c0,0,0,.2,0,.2,0,0-.1,0-.2,0h-5.9c0,0-.1,0-.1.1v5c0,0,0,.1.1.1h8.8c0,0,.2,0,.2.1,0,0,.1.1.1.2v2c0,0,0,.2-.1.2,0,0-.1.1-.2.1h-11.6c0,0-.2,0-.2-.1s0-.1,0-.2v-17.5c0,0,0-.2,0-.2s.1-.1.2-.1h11.6c0,0,.2,0,.2.1,0,0,.1.1.1.2v2ZM164.1,195.1c-.2,0-.3,0-.4-.2l-3.4-7.5c0,0,0-.1-.2-.1h-3.1c0,0-.1,0-.1.1v7.3c0,0,0,.2-.1.2,0,0-.1.1-.2.1h-2.4c0,0-.2,0-.2-.1s0-.1,0-.2v-17.5c0,0,0-.2,0-.2s.1-.1.2-.1h7.1c1.1,0,2,.2,2.8.6.8.4,1.4,1.1,1.9,1.9.4.8.7,1.7.7,2.8s-.3,2.2-.9,3c-.6.8-1.4,1.4-2.5,1.8,0,0,0,0,0,0,0,0,0,0,0,.1l3.6,7.5c0,0,0,.1,0,.2,0,.1,0,.2-.3.2h-2.5ZM157.1,179.5c0,0-.1,0-.1.1v5.1c0,0,0,.1.1.1h3.9c.8,0,1.5-.3,2-.8.5-.5.8-1.1.8-1.9s-.2-1.5-.8-2c-.5-.5-1.2-.8-2-.8h-3.9Z"/>
    <path class="st7" d="M87.6,241.8c0,0,0,.1,0,.2,0,0,0,0,.2,0h10.2c.1,0,.2,0,.3.1.1,0,.2.2.2.3v3.6c0,.1,0,.2-.2.3,0,0-.2.1-.3.1h-16.9c-.1,0-.3,0-.3-.1,0,0-.1-.2-.1-.3v-3.5c0-.2,0-.4.2-.6,1.2-1.2,2.5-2.5,3.8-3.9,1.3-1.4,2.1-2.3,2.4-2.6.7-.8,1.4-1.6,2.1-2.4,2.3-2.5,3.4-4.4,3.4-5.6s-.3-1.6-.9-2.2c-.6-.6-1.4-.8-2.4-.8s-1.8.3-2.4.8c-.6.6-1,1.3-1,2.3v.9c0,.1,0,.2-.1.3,0,0-.2.1-.3.1h-4.4c-.1,0-.2,0-.3-.1-.1,0-.2-.2-.2-.3v-1.8c0-1.3.5-2.5,1.3-3.6.8-1,1.8-1.8,3.1-2.4,1.3-.6,2.7-.8,4.3-.8s3.3.3,4.6,1c1.3.7,2.3,1.5,3,2.7.7,1.1,1.1,2.4,1.1,3.8s-.3,2.1-.8,3.2c-.5,1.1-1.3,2.3-2.4,3.6-.8,1-1.6,1.9-2.5,2.9-.9.9-2.2,2.3-4,4.1l-.6.6ZM110.5,247c-2.8,0-4.9-.8-6.5-2.3-1.6-1.5-2.4-3.6-2.4-6.3v-9.9c0-2.6.8-4.7,2.4-6.2,1.6-1.5,3.8-2.3,6.5-2.3s4.9.8,6.5,2.3c1.6,1.5,2.4,3.6,2.4,6.2v9.9c0,2.7-.8,4.8-2.4,6.3-1.6,1.5-3.8,2.3-6.5,2.3ZM110.5,242.4c1.1,0,2-.3,2.7-1,.7-.7,1-1.6,1-2.8v-10.3c0-1.1-.3-2.1-1-2.7-.7-.7-1.5-1-2.7-1s-2,.3-2.6,1c-.7.7-1,1.6-1,2.7v10.3c0,1.2.3,2.1,1,2.8.7.7,1.5,1,2.6,1ZM130,241.8c0,0,0,.1,0,.2,0,0,0,0,.2,0h10.2c.1,0,.2,0,.3.1,0,0,.1.2.1.3v3.6c0,.1,0,.2-.1.3,0,0-.2.1-.3.1h-16.9c-.1,0-.2,0-.3-.1,0,0-.1-.2-.1-.3v-3.5c0-.2,0-.4.2-.6,1.2-1.2,2.5-2.5,3.8-3.9,1.3-1.4,2.1-2.3,2.4-2.6.7-.8,1.4-1.6,2.1-2.4,2.3-2.5,3.4-4.4,3.4-5.6s-.3-1.6-.9-2.2c-.6-.6-1.5-.8-2.5-.8s-1.8.3-2.4.8c-.6.6-.9,1.3-.9,2.3v.9c0,.1,0,.2-.1.3,0,0-.2.1-.3.1h-4.4c-.1,0-.2,0-.3-.1,0,0-.1-.2-.1-.3v-1.8c0-1.3.5-2.5,1.3-3.6.8-1,1.8-1.8,3.1-2.4,1.3-.6,2.7-.8,4.3-.8s3.3.3,4.6,1c1.3.7,2.3,1.5,3.1,2.7.7,1.1,1.1,2.4,1.1,3.8s-.3,2.1-.8,3.2c-.5,1.1-1.3,2.3-2.4,3.6-.8,1-1.6,1.9-2.5,2.9-.9.9-2.2,2.3-4,4.1l-.6.6ZM160.7,234.6c.4,1.2.6,2.4.6,3.6s-.2,2.4-.6,3.5c-.6,1.6-1.6,2.9-3,3.8-1.5.9-3.2,1.4-5.1,1.4s-3.6-.5-5-1.4c-1.4-.9-2.5-2.2-3.1-3.7-.3-.7-.4-1.3-.6-2.1h0c0-.4.1-.5.4-.5h4.6c.2,0,.4.1.5.4,0,.2,0,.3.1.4,0,.1,0,.2.1.3.3.7.6,1.2,1.1,1.5s1.1.5,1.8.5,1.3-.2,1.8-.6c.5-.4.9-.9,1.2-1.6.2-.5.4-1.2.4-2s-.1-1.4-.3-1.9c-.2-.7-.5-1.2-1-1.5-.5-.4-1.1-.5-1.8-.5s-1.4.2-2,.5c-.6.3-1,.8-1.2,1.3,0,.2-.2.4-.5.4h-4.6c-.1,0-.3,0-.3-.1,0,0-.1-.2-.1-.3v-15.1c0-.1,0-.2.1-.3,0,0,.2-.1.3-.1h15.5c.1,0,.2,0,.3.1,0,0,.1.2.1.3v3.6c0,.1,0,.2-.1.3,0,0-.2.1-.3.1h-10.5c-.1,0-.2,0-.2.2v5.5c0,.2,0,.2.2.1,1.1-.7,2.4-1.1,3.9-1.1s3.3.4,4.6,1.3c1.3.9,2.3,2.1,2.8,3.6Z"/>
  </g>
  <g>
    <path class="st10" d="M359.3,232.6l102.2,52,98.3-52V29.2h-200.5v203.4Z"/>
    <path class="st11" d="M561.8,30l-204.6,206.2,106.1,52.5,98.6-50.5V30Z"/>
    <path class="st3" d="M352.5,97v140l3.6,1.8,102.2,52,3.1,1.6,3.1-1.6,98.6-52,3.6-1.8V22.5h-214.2v74.5ZM359.3,233.1V29.2h200.8v203.9l-98.6,52-102.2-52Z"/>
    <path class="st14" d="M459.6,32.6c1,0,2.1,0,3.1.3l-3.1,6c-4.7-.3-8.8,3.4-9.1,8-.3,4.7,3.4,8.8,8,9.1h1c2.1,0,4.1-.8,5.7-2.1l3.4,5.7c-2.6,1.8-5.7,2.8-9.1,2.8-8.3.3-15.3-6-15.5-14.2-.3-8.3,6-15.3,14.2-15.5h1.3ZM470.2,45.3l3.9,6.5-3.9,6.2-3.6-6.2h-7.5l3.9-6.5h7.2ZM464,42.9c0-1,.3-2.1.8-2.8.5-.8,1.6-1.6,2.3-2.1l.5-.3c1-.5,1.3-.8,1.3-1.3s-.8-1-1.3-1c-1,0-1.8.5-2.3,1.6l-1.3-1.3c.3-.5.8-1,1.3-1.6.8-.5,1.6-.5,2.3-.5s1.8.3,2.3.8c.5.5,1,1.3,1,2.1,0,1.3-.8,2.3-2.3,2.8l-.8.5c-.8.5-1.3.8-1.6,1.6h4.7v1.8l-7-.3ZM459.6,75.3l24.6-14V22.5h-49.4v38.5l24.8,14.2ZM571.7,166.9h-224.1l-8.3,18.1,8.3,18.1h224.1l8-18.1-8-18.1Z"/>
    <path class="st7" d="M387.7,155.2c-.2,0-.3,0-.4-.2-.1-.1-.2-.3-.2-.4v-31.5c0-.2,0-.3.2-.4.1-.1.2-.2.4-.2h5.5c.2,0,.3,0,.4.2s.2.3.2.4v26.2c0,.2,0,.2.2.2h15.2c.2,0,.3,0,.4.2.1.1.2.3.2.4v4.5c0,.2,0,.3-.2.4-.1.1-.3.2-.4.2h-21.5ZM434.5,140.8c.2,1.2.2,2.5.2,4,0,.4-.2.6-.6.6h-14.4c-.2,0-.2,0-.2.2,0,.6.2,1.2.5,1.9.8,1.7,2.5,2.6,4.9,2.6,2,0,3.6-.8,4.7-2.4.1-.2.3-.3.4-.3s.2,0,.3.2l3.3,3.3c.2.2.2.3.2.4s0,.2-.2.4c-1,1.3-2.3,2.2-4,2.9-1.6.7-3.4,1-5.3,1s-4.9-.6-6.8-1.8c-1.8-1.2-3.2-2.9-4-5.1-.7-1.6-1-3.6-1-6.1s.2-3.2.7-4.5c.7-2.2,2-4,3.8-5.3,1.8-1.3,3.9-1.9,6.4-1.9s5.6.9,7.5,2.7c1.9,1.8,3,4.2,3.4,7.2ZM423.7,136.5c-2,0-3.3.9-3.9,2.7-.1.4-.2.9-.3,1.5,0,.2,0,.2.2.2h8c.2,0,.2,0,.2-.2-.2-.9-.2-1.3-.2-1.3-.3-.9-.8-1.7-1.4-2.2-.7-.5-1.6-.8-2.6-.8ZM448.1,130.9c2,0,3.8.4,5.4,1.1,1.6.7,2.8,1.6,3.7,2.9.9,1.2,1.3,2.6,1.3,4v15.8c0,.2,0,.3-.2.4-.1.1-.2.2-.4.2h-5.5c-.2,0-.3,0-.4-.2-.1-.1-.2-.3-.2-.4v-1.5c0,0,0-.1,0-.2,0,0-.1,0-.2,0-1.3,1.7-3.4,2.6-6.3,2.6s-4.4-.6-5.9-1.8c-1.5-1.2-2.3-2.9-2.3-5.2s.8-4.2,2.5-5.6c1.7-1.3,4.1-2,7.2-2h4.7c.2,0,.2,0,.2-.2v-1c0-1-.3-1.8-.9-2.4-.6-.6-1.6-.9-2.8-.9s-1.7.2-2.4.5-1.1.8-1.2,1.4c0,.3-.3.5-.6.5l-5.6-.8c-.4,0-.6-.2-.5-.4.1-1.3.6-2.5,1.6-3.5.9-1.1,2.1-1.9,3.6-2.5,1.5-.6,3.2-.9,5-.9ZM447.2,150.7c1.3,0,2.5-.4,3.4-1.1.9-.7,1.4-1.6,1.4-2.7v-1.7c0-.2,0-.2-.2-.2h-3.3c-1.4,0-2.5.3-3.3.8-.8.5-1.2,1.3-1.2,2.2s.3,1.5.9,2c.6.5,1.4.7,2.4.7ZM478,123.2c0-.2,0-.3.2-.4.1-.1.2-.2.4-.2h5.5c.2,0,.3,0,.4.2.1.1.2.3.2.4v31.5c0,.2,0,.3-.2.4-.1.1-.2.2-.4.2h-5.5c-.2,0-.3,0-.4-.2-.1-.1-.2-.3-.2-.4v-1.5c0,0,0-.1-.1-.2s-.1,0-.2,0c-1.3,1.7-3.1,2.6-5.4,2.6s-4-.6-5.6-1.8c-1.6-1.2-2.7-2.9-3.4-5-.5-1.6-.8-3.5-.8-5.6s.3-4.1.8-5.8c.7-2,1.9-3.6,3.4-4.7,1.5-1.2,3.4-1.8,5.7-1.8s4,.8,5.2,2.3c0,.1.1.1.2.1,0,0,.1,0,.1-.2v-10ZM477,148c.6-1.1.9-2.7.9-4.7s-.3-3.7-1-4.9c-.7-1.2-1.7-1.8-3.1-1.8s-2.6.6-3.3,1.8c-.8,1.2-1.2,2.9-1.2,4.9s.3,3.4,1,4.7c.8,1.3,1.9,2,3.4,2s2.5-.7,3.3-2ZM510.7,140.8c.2,1.2.2,2.5.2,4,0,.4-.2.6-.6.6h-14.4c-.2,0-.2,0-.2.2,0,.6.2,1.2.5,1.9.8,1.7,2.5,2.6,4.9,2.6,2,0,3.6-.8,4.7-2.4.1-.2.3-.3.4-.3s.2,0,.3.2l3.3,3.3c.2.2.2.3.2.4s0,.2-.2.4c-1,1.3-2.3,2.2-4,2.9-1.6.7-3.4,1-5.3,1s-4.9-.6-6.8-1.8c-1.8-1.2-3.2-2.9-4-5.1-.7-1.6-1-3.6-1-6.1s.2-3.2.7-4.5c.7-2.2,2-4,3.8-5.3,1.8-1.3,3.9-1.9,6.4-1.9s5.6.9,7.5,2.7c1.9,1.8,3,4.2,3.4,7.2ZM499.8,136.5c-2,0-3.3.9-3.9,2.7-.1.4-.2.9-.3,1.5,0,.2,0,.2.2.2h8c.2,0,.2,0,.2-.2-.2-.9-.2-1.3-.2-1.3-.3-.9-.8-1.7-1.4-2.2-.7-.5-1.6-.8-2.6-.8ZM526.9,131c1.1,0,2,.2,2.6.6.3.1.4.4.3.7l-1,5.3c0,.4-.2.5-.6.3-.5-.2-1-.2-1.6-.2s-.6,0-1,.1c-1.1,0-2.1.5-2.8,1.2-.8.7-1.2,1.7-1.2,2.9v12.7c0,.2,0,.3-.2.4-.1.1-.3.2-.4.2h-5.4c-.2,0-.3,0-.4-.2-.1-.1-.2-.3-.2-.4v-22.8c0-.2,0-.3.2-.4.1-.1.3-.2.4-.2h5.4c.2,0,.3,0,.4.2.1.1.2.2.2.4v1.8c0,0,0,.1,0,.2,0,0,.1,0,.2,0,1.3-1.9,3-2.8,5.1-2.8Z"/>
    <path class="st10" d="M412.7,179.2c0,0,0,.2,0,.2s-.1.1-.2.1h-8.8c0,0-.1,0-.1.1v4.8c0,0,0,.1.1.1h5.9c0,0,.2,0,.2,0,0,0,0,.1,0,.2v2c0,0,0,.2,0,.2,0,0-.1,0-.2,0h-5.9c0,0-.1,0-.1.1v5c0,0,0,.1.1.1h8.8c0,0,.2,0,.2.1s0,.1,0,.2v2c0,0,0,.2,0,.2,0,0-.1.1-.2.1h-11.6c0,0-.2,0-.2-.1,0,0-.1-.1-.1-.2v-17.5c0,0,0-.2.1-.2,0,0,.1-.1.2-.1h11.6c0,0,.2,0,.2.1,0,0,0,.1,0,.2v2ZM421.8,181.6c1.4,0,2.5.4,3.4,1.2.8.8,1.2,2,1.2,3.4v8.5c0,0,0,.2-.1.2,0,0-.1.1-.2.1h-2.4c0,0-.2,0-.2-.1,0,0,0-.1,0-.2v-7.9c0-.8-.2-1.4-.7-1.9-.4-.5-1-.7-1.8-.7s-1.3.2-1.8.7c-.4.5-.7,1.1-.7,1.9v7.9c0,0,0,.2,0,.2,0,0-.1.1-.2.1h-2.4c0,0-.2,0-.2-.1,0,0-.1-.1-.1-.2v-12.6c0,0,0-.2.1-.2s.1,0,.2,0h2.4c0,0,.2,0,.2,0,0,0,0,.1,0,.2v.8c0,0,0,0,0,.1,0,0,0,0,0,0,.7-.9,1.8-1.4,3.2-1.4ZM436.5,184c0,0,0,.2-.1.2,0,0-.1.1-.2.1h-2.6c0,0-.1,0-.1.1v6.2c0,.7.1,1.1.4,1.4.3.3.8.4,1.4.4h.8c0,0,.2,0,.2,0,0,0,.1.1.1.2v1.9c0,.2-.1.3-.3.3h-1.3c-1.4,0-2.4-.2-3.1-.7-.7-.5-1-1.3-1-2.6v-7.4c0,0,0-.1-.1-.1h-1.5c0,0-.2,0-.2-.1s0-.1,0-.2v-1.8c0,0,0-.2,0-.2,0,0,.1,0,.2,0h1.5c0,0,.1,0,.1-.1v-3c0,0,0-.2,0-.2,0,0,.1,0,.2,0h2.2c0,0,.2,0,.2,0,0,0,.1.1.1.2v3c0,0,0,.1.1.1h2.6c0,0,.2,0,.2,0s.1.1.1.2v1.8ZM450.1,187c0,.4.1.9.1,1.4v.8c0,.2-.1.3-.3.3h-8.1c0,0-.1,0-.1.1,0,.6.1,1,.2,1.2.4,1.2,1.4,1.9,3,1.9,1.2,0,2.1-.5,2.8-1.4,0-.1.2-.2.3-.2s.1,0,.2,0l1.6,1.3c.2.1.2.3,0,.4-.5.8-1.2,1.3-2.1,1.8-.9.4-1.9.6-3,.6s-2.5-.3-3.4-.9c-.9-.6-1.6-1.4-2-2.5-.4-.9-.6-2.2-.6-3.9s.1-1.8.3-2.4c.3-1.2,1-2.2,2-2.9.9-.7,2.1-1,3.4-1,3.4,0,5.3,1.8,5.7,5.3ZM444.3,184.2c-.6,0-1.2.2-1.6.5-.4.3-.7.8-.9,1.3-.1.3-.2.7-.2,1.1,0,0,0,.1.1.1h5.3c0,0,.1,0,.1-.1,0-.4,0-.8-.2-1-.2-.6-.5-1.1-.9-1.4-.5-.3-1-.5-1.7-.5ZM459.1,181.7c.6,0,1,.1,1.4.3.1,0,.2.2.2.4l-.4,2.3c0,.2-.1.3-.4.2-.3,0-.6-.1-.9-.1s-.4,0-.5,0c-.7,0-1.3.3-1.8.8-.5.5-.7,1.1-.7,1.9v7.3c0,0,0,.2,0,.2,0,0-.1.1-.2.1h-2.4c0,0-.2,0-.2-.1,0,0-.1-.1-.1-.2v-12.6c0,0,0-.2.1-.2s.1,0,.2,0h2.4c0,0,.2,0,.2,0,0,0,0,.1,0,.2v1.2c0,0,0,.1,0,.1,0,0,0,0,.1,0,.7-1.1,1.7-1.7,3-1.7ZM473.8,185.3c.3.9.5,2,.5,3.2s-.1,2.3-.4,3.2c-.4,1.1-1,2-1.8,2.7-.8.6-1.9,1-3.2,1s-2.2-.4-2.9-1.3c0,0,0,0-.1,0,0,0,0,0,0,.1v5.6c0,0,0,.2,0,.2,0,0-.1.1-.2.1h-2.4c0,0-.2,0-.2-.1,0,0-.1-.1-.1-.2v-17.5c0,0,0-.2.1-.2,0,0,.1,0,.2,0h2.4c0,0,.2,0,.2,0,0,0,0,.1,0,.2v.8c0,0,0,0,0,.1,0,0,0,0,.1,0,.8-.9,1.8-1.3,3-1.3s2.3.3,3.1,1c.8.6,1.5,1.5,1.8,2.7ZM470.5,191.6c.5-.8.8-1.8.8-3.2s-.2-2.2-.6-3c-.5-.8-1.2-1.3-2.2-1.3s-1.6.4-2,1.2c-.4.7-.6,1.7-.6,3s.2,2.4.6,3.1c.4.8,1.1,1.1,1.9,1.1s1.6-.4,2.1-1.1ZM483.4,181.7c.6,0,1,.1,1.4.3.1,0,.2.2.2.4l-.4,2.3c0,.2-.1.3-.4.2-.3,0-.6-.1-.9-.1s-.4,0-.5,0c-.7,0-1.3.3-1.8.8-.5.5-.7,1.1-.7,1.9v7.3c0,0,0,.2,0,.2,0,0-.1.1-.2.1h-2.4c0,0-.2,0-.2-.1,0,0-.1-.1-.1-.2v-12.6c0,0,0-.2.1-.2s.1,0,.2,0h2.4c0,0,.2,0,.2,0,0,0,0,.1,0,.2v1.2c0,0,0,.1,0,.1,0,0,0,0,.1,0,.7-1.1,1.7-1.7,3-1.7ZM488.6,180c-.5,0-1-.2-1.3-.5-.3-.3-.5-.8-.5-1.3s.2-1,.5-1.3c.3-.3.8-.5,1.3-.5s1,.2,1.3.5c.3.3.5.8.5,1.3s-.2,1-.5,1.3c-.3.3-.8.5-1.3.5ZM487.4,195.1c0,0-.2,0-.2-.1,0,0-.1-.1-.1-.2v-12.6c0,0,0-.2.1-.2,0,0,.1-.1.2-.1h2.4c0,0,.2,0,.2.1,0,0,0,.1,0,.2v12.6c0,0,0,.2,0,.2,0,0-.1.1-.2.1h-2.4ZM498.4,195.2c-1.1,0-2-.2-2.9-.5-.8-.3-1.4-.8-1.9-1.3-.4-.6-.7-1.2-.7-1.9v-.2c0,0,0-.2,0-.2,0,0,.1,0,.2,0h2.3c0,0,.2,0,.2,0,0,0,0,.1,0,.2h0c0,.5.2.9.7,1.2.5.3,1.1.5,1.8.5s1.3-.1,1.7-.4c.4-.3.6-.7.6-1.1s-.2-.7-.5-.9c-.3-.2-.9-.4-1.7-.6l-1-.3c-.9-.3-1.6-.5-2.2-.8-.6-.3-1.1-.7-1.5-1.2-.4-.5-.6-1.1-.6-1.9,0-1.2.5-2.2,1.4-2.9.9-.7,2.2-1.1,3.8-1.1s2,.2,2.8.5c.8.3,1.4.8,1.8,1.4.4.6.6,1.3.6,2s0,.2,0,.2c0,0-.1,0-.2,0h-2.2c0,0-.2,0-.2,0,0,0,0-.1,0-.2,0-.4-.2-.8-.6-1.1-.4-.3-1.1-.5-1.8-.5s-1.2.1-1.6.4c-.4.3-.6.6-.6,1.1s.2.7.6.9c.4.2,1.1.5,2,.7l.6.2c.9.3,1.7.6,2.3.8.6.3,1.1.7,1.6,1.2.4.5.6,1.2.6,2,0,1.2-.5,2.2-1.4,2.9-1,.7-2.3,1.1-3.9,1.1ZM517.4,187c0,.4.1.9.1,1.4v.8c0,.2-.1.3-.3.3h-8.1c0,0-.1,0-.1.1,0,.6.1,1,.2,1.2.4,1.2,1.4,1.9,3,1.9,1.2,0,2.1-.5,2.8-1.4,0-.1.2-.2.3-.2s.1,0,.2,0l1.6,1.3c.2.1.2.3,0,.4-.5.8-1.3,1.3-2.1,1.8-.9.4-1.9.6-2.9.6s-2.5-.3-3.4-.9c-.9-.6-1.6-1.4-2-2.5-.4-.9-.6-2.2-.6-3.9s.1-1.8.3-2.4c.3-1.2,1-2.2,1.9-2.9,1-.7,2.1-1,3.5-1,3.4,0,5.3,1.8,5.7,5.3ZM511.7,184.2c-.6,0-1.2.2-1.6.5-.4.3-.7.8-.9,1.3-.1.3-.2.7-.2,1.1,0,0,0,.1.1.1h5.3c0,0,.1,0,.1-.1,0-.4,0-.8-.2-1-.2-.6-.5-1.1-.9-1.4-.4-.3-1-.5-1.7-.5Z"/>
    <path class="st7" d="M418.9,231.6c-.2,0-.3,0-.4-.3l-4.6-17.5h0c0-.3,0-.3.3-.3h3.2c.2,0,.3,0,.3.3l2.5,10.5c0,0,0,.1,0,.1s0,0,0-.1l2.4-10.5c0-.2.2-.3.3-.3h3.1c.2,0,.3,0,.4.3l2.6,10.5c0,0,0,0,0,.1,0,0,0,0,0-.1l2.4-10.5c0-.2.2-.3.3-.3h3.1c.2,0,.3.1.3.3l-4.2,17.5c0,.2-.2.3-.4.3h-3.1c-.2,0-.3,0-.3-.3l-2.6-11.2c0,0,0-.1,0-.1s0,0,0,.1l-2.5,11.2c0,.2-.1.3-.3.3h-2.9ZM437.9,231.6c0,0-.2,0-.2-.1,0,0,0-.1,0-.2v-17.5c0,0,0-.2,0-.2,0,0,.1-.1.2-.1h3c0,0,.2,0,.2.1,0,0,.1.1.1.2v17.5c0,0,0,.2-.1.2,0,0-.1.1-.2.1h-3ZM454.8,213.8c0,0,0-.2,0-.2,0,0,.1-.1.2-.1h3c0,0,.2,0,.2.1,0,0,.1.1.1.2v17.5c0,0,0,.2-.1.2,0,0-.1.1-.2.1h-2.9c-.2,0-.3,0-.4-.2l-6.7-11.1c0,0,0,0-.1,0,0,0,0,0,0,.1v10.9c0,0,0,.2,0,.2,0,0-.1.1-.2.1h-3c0,0-.2,0-.2-.1,0,0,0-.1,0-.2v-17.5c0,0,0-.2,0-.2,0,0,.1-.1.2-.1h2.9c.2,0,.3,0,.4.2l6.7,11c0,0,0,0,.1,0,0,0,0,0,0-.1v-10.9ZM474.1,213.4c0,0,.2,0,.2.1,0,0,.1.1.1.2v2.5c0,0,0,.2-.1.2,0,0-.1.1-.2.1h-4.6c0,0-.1,0-.1.1v14.5c0,0,0,.2-.1.2,0,0-.1.1-.2.1h-3c0,0-.2,0-.2-.1,0,0,0-.1,0-.2v-14.5c0,0,0-.1-.1-.1h-4.5c0,0-.2,0-.2-.1,0,0,0-.1,0-.2v-2.5c0,0,0-.2,0-.2,0,0,.1-.1.2-.1h13ZM489.3,216.3c0,0,0,.2,0,.2,0,0-.1.1-.2.1h-8.5c0,0-.1,0-.1.1v4c0,0,0,.1.1.1h5.6c0,0,.2,0,.2,0,0,0,.1.1.1.2v2.5c0,0,0,.2-.1.2,0,0-.1,0-.2,0h-5.6c0,0-.1,0-.1.1v4.2c0,0,0,.1.1.1h8.5c0,0,.2,0,.2,0,0,0,0,.1,0,.2v2.5c0,0,0,.2,0,.2,0,0-.1.1-.2.1h-12c0,0-.2,0-.2-.1s0-.1,0-.2v-17.5c0,0,0-.2,0-.2,0,0,.1-.1.2-.1h12c0,0,.2,0,.2.1,0,0,0,.1,0,.2v2.5ZM501.8,231.6c-.2,0-.3,0-.4-.2l-3.2-7.2c0,0,0-.1-.2-.1h-2.4c0,0-.1,0-.1.1v7.1c0,0,0,.2-.1.2,0,0-.1.1-.2.1h-3c0,0-.2,0-.2-.1,0,0,0-.1,0-.2v-17.5c0,0,0-.2,0-.2,0,0,.1-.1.2-.1h7.4c1.1,0,2.1.2,2.9.7.8.4,1.5,1.1,1.9,1.9.5.8.7,1.8.7,2.9s-.3,2.2-.9,3c-.6.8-1.4,1.4-2.5,1.8,0,0-.1,0,0,.2l3.5,7.3c0,0,0,.1,0,.2,0,.1,0,.2-.3.2h-3.2ZM495.6,216.6c0,0-.1,0-.1.1v4.4c0,0,0,.1.1.1h3.4c.7,0,1.3-.2,1.8-.6.5-.4.7-1,.7-1.7s-.2-1.3-.7-1.7c-.4-.4-1-.6-1.8-.6h-3.4ZM436.5,252.6s0,0,0,.1c0,0,0,0,.1,0h7c0,0,.2,0,.2,0,0,0,0,.1,0,.2v2.5c0,0,0,.2,0,.2,0,0-.1.1-.2.1h-11.6c0,0-.2,0-.2-.1,0,0,0-.1,0-.2v-2.4c0-.2,0-.3.2-.4.8-.8,1.7-1.7,2.6-2.7.9-1,1.4-1.6,1.7-1.8.5-.6,1-1.1,1.5-1.6,1.6-1.7,2.4-3,2.4-3.9s-.2-1.1-.6-1.5c-.4-.4-1-.6-1.7-.6s-1.2.2-1.7.6c-.4.4-.6.9-.6,1.6v.6c0,0,0,.2-.1.2,0,0-.1,0-.2,0h-3.1c0,0-.2,0-.2,0,0,0-.1-.1-.1-.2v-1.2c0-.9.3-1.8.9-2.5.5-.7,1.2-1.2,2.1-1.6.9-.4,1.9-.6,3-.6s2.3.2,3.2.7c.9.5,1.6,1.1,2.1,1.9.5.8.7,1.6.7,2.6s-.2,1.5-.5,2.2c-.4.8-.9,1.6-1.6,2.5-.5.7-1.1,1.3-1.7,2s-1.5,1.6-2.8,2.8l-.4.4ZM452.3,256.2c-1.9,0-3.4-.5-4.5-1.6-1.1-1.1-1.7-2.5-1.7-4.3v-6.8c0-1.8.6-3.2,1.7-4.3,1.1-1.1,2.6-1.6,4.5-1.6s3.4.5,4.5,1.6c1.1,1.1,1.7,2.5,1.7,4.3v6.8c0,1.8-.6,3.3-1.7,4.3-1.1,1.1-2.6,1.6-4.5,1.6ZM452.3,253c.8,0,1.4-.2,1.9-.7.4-.5.7-1.1.7-1.9v-7.1c0-.8-.2-1.4-.7-1.9-.5-.5-1.1-.7-1.9-.7s-1.4.2-1.8.7c-.5.5-.7,1.1-.7,1.9v7.1c0,.8.2,1.4.7,1.9.4.5,1.1.7,1.8.7ZM465.7,252.6s0,0,0,.1c0,0,0,0,.1,0h7c0,0,.2,0,.2,0,0,0,0,.1,0,.2v2.5c0,0,0,.2,0,.2,0,0-.1.1-.2.1h-11.6c0,0-.2,0-.2-.1,0,0-.1-.1-.1-.2v-2.4c0-.2,0-.3.2-.4.8-.8,1.7-1.7,2.6-2.7.9-1,1.4-1.6,1.7-1.8.5-.6,1-1.1,1.5-1.6,1.6-1.7,2.4-3,2.4-3.9s-.2-1.1-.6-1.5c-.4-.4-1-.6-1.7-.6s-1.2.2-1.7.6c-.4.4-.6.9-.6,1.6v.6c0,0,0,.2,0,.2,0,0-.1,0-.2,0h-3.1c0,0-.2,0-.2,0s-.1-.1-.1-.2v-1.2c0-.9.3-1.8.9-2.5.5-.7,1.3-1.2,2.1-1.6.9-.4,1.9-.6,3-.6s2.3.2,3.2.7c.9.5,1.6,1.1,2.1,1.9.5.8.7,1.6.7,2.6s-.2,1.5-.5,2.2-.9,1.6-1.6,2.5c-.5.7-1.1,1.3-1.7,2-.6.7-1.5,1.6-2.8,2.8l-.4.4ZM486.9,247.6c.3.8.4,1.7.4,2.5s-.1,1.7-.4,2.4c-.4,1.1-1.1,2-2.1,2.6-1,.6-2.2,1-3.5,1s-2.5-.3-3.4-.9c-1-.6-1.7-1.5-2.1-2.6-.2-.4-.3-.9-.4-1.4h0c0-.2.1-.3.3-.3h3.1c.2,0,.3,0,.3.3,0,.1,0,.2,0,.3,0,0,0,.1,0,.2.2.4.4.8.8,1,.3.2.8.4,1.2.4s.9-.1,1.3-.4c.4-.3.6-.6.8-1.1.2-.3.3-.8.3-1.3s0-.9-.2-1.3c-.1-.4-.4-.8-.7-1-.4-.2-.8-.4-1.3-.4s-.9.1-1.3.3c-.4.2-.7.5-.8.9,0,.2-.2.3-.3.3h-3.2c0,0-.2,0-.2-.1,0,0-.1-.1-.1-.2v-10.4c0,0,0-.2.1-.2,0,0,.1-.1.2-.1h10.7c0,0,.2,0,.2.1s0,.1,0,.2v2.5c0,0,0,.2,0,.2,0,0-.1.1-.2.1h-7.2c0,0-.1,0-.1.1v3.8c0,.1,0,.1.1,0,.8-.5,1.7-.8,2.7-.8s2.3.3,3.2.9c.9.6,1.5,1.5,1.9,2.5Z"/>
  </g>
  <g class="st13">
    <g>
      <path class="st10" d="M1138.2,287.2l-106.6-53.2V56.6c8.6-1,16.7-4.4,23.4-9.9,6.7-5.4,11.8-12.7,14.5-20.9h132.8c2.8,8.3,7.9,15.6,14.7,21,6.8,5.5,15.1,8.9,23.7,9.8v177.3l-102.7,53.2Z"/>
      <path class="st12" d="M1032.6,234l105.4,53.2,101.6-53.2V56.7c-8.4-1.2-16.5-4.4-23.3-9.5l-183.7,186.9Z"/>
      <path class="st2" d="M1244.8,51.7h-.3c-9.1,0-17.8-3.1-24.9-8.7s-12-13.5-14.1-22.3h-139.2c-2,8.8-7,16.6-14,22.2-7,5.6-15.8,8.7-24.8,8.8v186.9l3.7,1.9,103.9,52.9,3.1,1.6,3.1-1.6,100-52.9,3.6-1.9V51.7ZM1138,287.2l-105.4-53.2V56.6c8.5-1,16.6-4.5,23.2-9.9,6.6-5.4,11.6-12.7,14.3-20.8h131.4c2.7,8.2,7.8,15.5,14.5,21,6.8,5.5,14.9,8.9,23.6,9.8v177.3l-101.6,53.2Z"/>
      <g class="st1">
        <path class="st9" d="M1001.6,155.2h269.1v64.7h-269.1v-64.7Z"/>
      </g>
      <g class="st6">
        <path class="st9" d="M1097.3,7.7h77.6v80.2h-77.6V7.7Z"/>
      </g>
      <path class="st7" d="M1063.9,159.1c-.2,0-.3,0-.4-.2,0-.1-.2-.3-.2-.4v-31.5c0-.2,0-.3.2-.4,0-.1.2-.2.4-.2h5.5c.2,0,.3,0,.4.2.1.1.2.3.2.4v26.2c0,.2,0,.2.2.2h15.2c.2,0,.3,0,.4.2,0,.1.2.3.2.4v4.5c0,.2,0,.3-.2.4-.1.1-.3.2-.4.2h-21.5ZM1110.7,144.7c.2,1.2.2,2.5.2,4,0,.4-.2.6-.6.6h-14.4c-.2,0-.2,0-.2.2,0,.6.2,1.2.5,1.9.8,1.7,2.5,2.6,4.9,2.6,2,0,3.5-.8,4.7-2.4.1-.2.2-.3.4-.3s.2,0,.3.2l3.3,3.3c.2.2.2.3.2.4s0,.2-.2.4c-1,1.3-2.3,2.2-4,2.9-1.6.7-3.4,1-5.3,1s-4.9-.6-6.8-1.8c-1.8-1.2-3.2-2.9-4-5.1-.7-1.6-1-3.6-1-6.1s.2-3.2.7-4.5c.7-2.2,2-4,3.8-5.3,1.8-1.3,3.9-1.9,6.4-1.9s5.6.9,7.5,2.7c1.9,1.8,3,4.2,3.4,7.2ZM1099.9,140.4c-2,0-3.3.9-3.9,2.7-.1.4-.2.9-.3,1.5,0,.2,0,.2.2.2h8c.2,0,.2,0,.2-.2-.2-.9-.2-1.3-.2-1.3-.3-.9-.8-1.7-1.5-2.2-.7-.5-1.6-.8-2.6-.8ZM1124.3,134.8c2,0,3.8.4,5.4,1.1,1.6.7,2.8,1.6,3.7,2.9.9,1.2,1.3,2.6,1.3,4v15.8c0,.2,0,.3-.2.4-.1.1-.2.2-.4.2h-5.5c-.2,0-.3,0-.4-.2-.1-.1-.2-.3-.2-.4v-1.5c0,0,0-.1,0-.2,0,0-.1,0-.2,0-1.3,1.7-3.4,2.6-6.3,2.6s-4.4-.6-5.9-1.8c-1.5-1.2-2.2-2.9-2.2-5.2s.8-4.2,2.5-5.6c1.7-1.3,4.1-2,7.2-2h4.7c.2,0,.2,0,.2-.2v-1c0-1-.3-1.8-.9-2.4-.6-.6-1.5-.9-2.8-.9s-1.7.2-2.4.5c-.6.3-1.1.8-1.2,1.4,0,.3-.3.5-.6.5l-5.6-.8c-.4,0-.6-.2-.5-.4.1-1.3.6-2.5,1.5-3.5.9-1.1,2.1-1.9,3.7-2.5,1.5-.6,3.2-.9,5-.9ZM1123.4,154.6c1.3,0,2.5-.4,3.4-1.1.9-.7,1.4-1.6,1.4-2.7v-1.7c0-.2,0-.2-.2-.2h-3.3c-1.4,0-2.5.3-3.3.8-.8.5-1.2,1.3-1.2,2.2s.3,1.5.9,2c.6.5,1.4.7,2.4.7ZM1154.2,127.1c0-.2,0-.3.1-.4.1-.1.2-.2.4-.2h5.5c.2,0,.3,0,.4.2.1.1.2.3.2.4v31.5c0,.2,0,.3-.2.4,0,.1-.2.2-.4.2h-5.5c-.2,0-.3,0-.4-.2,0-.1-.1-.3-.1-.4v-1.5c0,0,0-.1-.1-.2,0,0-.1,0-.2,0-1.3,1.7-3.1,2.6-5.3,2.6s-4.1-.6-5.6-1.8c-1.6-1.2-2.7-2.9-3.4-5-.5-1.6-.8-3.5-.8-5.6s.3-4.1.8-5.8c.7-2,1.8-3.6,3.4-4.7,1.5-1.2,3.4-1.8,5.7-1.8s4,.8,5.2,2.3c0,.1.1.1.2.1,0,0,.1,0,.1-.2v-10ZM1153.2,151.9c.6-1.1.9-2.7.9-4.7s-.3-3.7-1-4.9c-.7-1.2-1.7-1.8-3.1-1.8s-2.6.6-3.3,1.8c-.8,1.2-1.2,2.9-1.2,4.9s.3,3.4,1,4.7c.8,1.3,1.9,2,3.4,2s2.5-.7,3.3-2ZM1186.9,144.7c.2,1.2.2,2.5.2,4,0,.4-.2.6-.6.6h-14.4c-.2,0-.2,0-.2.2,0,.6.2,1.2.5,1.9.8,1.7,2.5,2.6,4.9,2.6,2,0,3.6-.8,4.7-2.4.1-.2.3-.3.4-.3s.2,0,.3.2l3.3,3.3c.2.2.2.3.2.4s0,.2-.2.4c-1,1.3-2.3,2.2-4,2.9-1.6.7-3.4,1-5.3,1s-4.9-.6-6.8-1.8c-1.8-1.2-3.2-2.9-4-5.1-.7-1.6-1-3.6-1-6.1s.2-3.2.7-4.5c.7-2.2,2-4,3.8-5.3,1.8-1.3,3.9-1.9,6.4-1.9s5.6.9,7.5,2.7c1.9,1.8,3,4.2,3.4,7.2ZM1176.1,140.4c-2,0-3.3.9-3.9,2.7-.1.4-.2.9-.3,1.5,0,.2,0,.2.2.2h8c.2,0,.2,0,.2-.2-.2-.9-.2-1.3-.2-1.3-.3-.9-.8-1.7-1.5-2.2-.7-.5-1.6-.8-2.6-.8ZM1203.1,134.9c1.1,0,2,.2,2.6.6.2.1.3.4.3.7l-1,5.3c0,.4-.2.5-.7.3-.5-.2-1-.2-1.6-.2s-.6,0-1,.1c-1.1,0-2.1.5-2.8,1.2-.8.7-1.2,1.7-1.2,2.9v12.7c0,.2,0,.3-.2.4-.1.1-.3.2-.4.2h-5.4c-.2,0-.3,0-.4-.2,0-.1-.2-.3-.2-.4v-22.8c0-.2,0-.3.2-.4.1-.1.3-.2.4-.2h5.4c.2,0,.3,0,.4.2,0,.1.2.2.2.4v1.8c0,0,0,.1,0,.2,0,0,.1,0,.2,0,1.3-1.9,3-2.8,5.1-2.8Z"/>
      <path class="st7" d="M1093.6,98.3c0,0,0,.2,0,.2,0,0-.1,0-.2,0h-8c0,0-.1,0-.1.1v4.4c0,0,0,.1.1.1h5.3c0,0,.1,0,.2,0,0,0,.1.1.1.2v1.8c0,0,0,.2-.1.2,0,0-.1,0-.2,0h-5.3c0,0-.1,0-.1.1v4.5c0,0,0,.1.1.1h8c0,0,.1,0,.2,0,0,0,0,.1,0,.2v1.8c0,0,0,.2,0,.2,0,0-.1,0-.2,0h-10.5c0,0-.2,0-.2,0,0,0,0-.1,0-.2v-15.7c0,0,0-.2,0-.2,0,0,.1,0,.2,0h10.5c0,0,.1,0,.2,0,0,0,0,.1,0,.2v1.8ZM1101.8,100.5c1.3,0,2.3.4,3,1.1.8.7,1.1,1.8,1.1,3.1v7.6c0,0,0,.2,0,.2,0,0-.1,0-.2,0h-2.2c0,0-.2,0-.2,0,0,0,0-.1,0-.2v-7.1c0-.7-.2-1.3-.6-1.7-.4-.4-1-.7-1.6-.7s-1.2.2-1.6.6c-.4.4-.6,1-.6,1.7v7.1c0,0,0,.2,0,.2,0,0-.1,0-.2,0h-2.1c0,0-.1,0-.2,0,0,0,0-.1,0-.2v-11.3c0,0,0-.2,0-.2,0,0,.1,0,.2,0h2.1c0,0,.2,0,.2,0,0,0,0,.1,0,.2v.8s0,0,0,0c0,0,0,0,0,0,.6-.8,1.6-1.2,2.9-1.2ZM1115,102.6c0,0,0,.1,0,.2,0,0-.1,0-.2,0h-2.3c0,0-.1,0-.1.1v5.6c0,.6.1,1,.4,1.3.3.3.7.4,1.2.4h.7c0,0,.2,0,.2,0,0,0,0,.1,0,.2v1.7c0,.2,0,.3-.3.3h-1.2c-1.2,0-2.1-.2-2.7-.6-.6-.4-.9-1.2-.9-2.4v-6.7c0,0,0-.1,0-.1h-1.4c0,0-.1,0-.2,0,0,0,0-.1,0-.2v-1.6c0,0,0-.2,0-.2,0,0,.1,0,.2,0h1.4c0,0,0,0,0-.1v-2.7c0,0,0-.1,0-.2,0,0,.1-.1.2-.1h2c0,0,.2,0,.2.1,0,0,0,.1,0,.2v2.7c0,0,0,.1.1.1h2.3c0,0,.2,0,.2,0,0,0,0,.1,0,.2v1.6ZM1127.3,105.3c0,.4,0,.8,0,1.3v.7c0,.2-.1.3-.3.3h-7.3c0,0-.1,0-.1.1,0,.5.1.9.2,1,.4,1.1,1.3,1.7,2.7,1.7,1,0,1.9-.4,2.5-1.3,0-.1.1-.2.2-.2s.1,0,.2,0l1.4,1.2c.1.1.2.2,0,.4-.5.7-1.1,1.2-1.9,1.6-.8.4-1.7.6-2.7.6s-2.3-.3-3.1-.8c-.8-.6-1.5-1.3-1.8-2.3-.4-.8-.5-2-.5-3.5s0-1.6.3-2.2c.3-1.1.9-1.9,1.8-2.6.9-.6,1.9-.9,3.1-.9,3,0,4.8,1.6,5.2,4.8ZM1122.1,102.8c-.6,0-1.1.1-1.4.4-.4.3-.7.7-.8,1.2,0,.3-.2.6-.2,1,0,0,0,.1.1.1h4.7c0,0,.1,0,.1-.1,0-.4,0-.7-.1-.9-.1-.6-.4-1-.8-1.3-.4-.3-.9-.5-1.5-.5ZM1135.4,100.5c.5,0,.9,0,1.3.3.1,0,.2.2.2.4l-.4,2.1c0,.2-.1.2-.3.2-.2,0-.5-.1-.8-.1s-.3,0-.5,0c-.6,0-1.2.2-1.6.7-.4.4-.7,1-.7,1.7v6.6c0,0,0,.2,0,.2,0,0-.1,0-.2,0h-2.1c0,0-.2,0-.2,0,0,0,0-.1,0-.2v-11.3c0,0,0-.2,0-.2,0,0,.1,0,.2,0h2.1c0,0,.2,0,.2,0,0,0,0,.1,0,.2v1c0,0,0,.1,0,.1,0,0,0,0,0,0,.6-1,1.6-1.5,2.7-1.5ZM1148.7,103.7c.3.8.4,1.8.4,2.9s-.1,2.1-.4,2.8c-.3,1-.9,1.8-1.7,2.4-.7.6-1.7.9-2.8.9s-2-.4-2.7-1.2c0,0,0,0,0,0,0,0,0,0,0,.1v5c0,0,0,.2,0,.2,0,0-.1,0-.2,0h-2.1c0,0-.1,0-.2,0,0,0,0-.1,0-.2v-15.7c0,0,0-.2,0-.2,0,0,.1,0,.2,0h2.1c0,0,.2,0,.2,0,0,0,0,.1,0,.2v.7c0,0,0,0,0,0,0,0,0,0,0,0,.7-.8,1.6-1.2,2.7-1.2s2,.3,2.8.9c.8.6,1.3,1.4,1.7,2.4ZM1145.6,109.4c.5-.7.7-1.6.7-2.8s-.2-2-.6-2.7c-.4-.8-1.1-1.1-2-1.1s-1.4.4-1.8,1.1c-.4.6-.5,1.5-.5,2.7s.2,2.2.6,2.8c.4.7,1,1,1.8,1s1.5-.3,1.9-1ZM1157.2,100.5c.5,0,.9,0,1.3.3.1,0,.2.2.2.4l-.4,2.1c0,.2-.1.2-.3.2-.2,0-.5-.1-.8-.1s-.3,0-.5,0c-.6,0-1.2.2-1.6.7-.4.4-.6,1-.6,1.7v6.6c0,0,0,.2,0,.2,0,0-.1,0-.2,0h-2.1c0,0-.2,0-.2,0,0,0,0-.1,0-.2v-11.3c0,0,0-.2,0-.2,0,0,.1,0,.2,0h2.1c0,0,.2,0,.2,0,0,0,0,.1,0,.2v1c0,0,0,.1,0,.1,0,0,0,0,0,0,.6-1,1.6-1.5,2.7-1.5ZM1162,99c-.5,0-.9-.2-1.2-.5-.3-.3-.5-.7-.5-1.2s.1-.9.5-1.2c.3-.3.7-.5,1.2-.5s.9.2,1.2.5c.3.3.5.7.5,1.2s-.2.9-.5,1.2c-.3.3-.7.5-1.2.5ZM1160.8,112.5c0,0-.1,0-.2,0,0,0,0-.1,0-.2v-11.4c0,0,0-.2,0-.2,0,0,.1,0,.2,0h2.1c0,0,.2,0,.2,0,0,0,0,.1,0,.2v11.4c0,0,0,.2,0,.2,0,0-.1,0-.2,0h-2.1ZM1170.8,112.7c-1,0-1.8-.1-2.6-.4-.7-.3-1.3-.7-1.7-1.2s-.6-1.1-.6-1.7v-.2c0,0,0-.1,0-.2,0,0,.1,0,.2,0h2.1c0,0,.1,0,.2,0,0,0,.1.1.1.2h0c0,.4.2.8.6,1.1.4.3,1,.4,1.6.4s1.1-.1,1.5-.4c.4-.3.6-.6.6-1s-.2-.6-.5-.8c-.3-.2-.8-.4-1.5-.6l-.9-.3c-.8-.2-1.5-.5-2-.8-.6-.3-1-.6-1.4-1.1-.4-.4-.6-1-.6-1.8,0-1.1.4-1.9,1.3-2.6.8-.6,2-1,3.4-1s1.8.1,2.5.4c.7.3,1.2.7,1.6,1.3.4.5.6,1.1.6,1.8s0,.2,0,.2c0,0-.1,0-.2,0h-2c0,0-.2,0-.2,0,0,0,0-.1,0-.2,0-.4-.2-.7-.6-1-.4-.3-.9-.4-1.6-.4s-1.1.1-1.5.3-.6.5-.6.9.2.7.6.9c.4.2,1,.4,1.8.6h.5c.8.4,1.5.6,2.1.9.5.3,1,.6,1.4,1.1.4.4.6,1,.6,1.8,0,1.1-.4,1.9-1.3,2.6-.9.6-2,.9-3.5.9ZM1187.9,105.3c0,.4,0,.8,0,1.3v.7c0,.2-.1.3-.3.3h-7.3c0,0-.1,0-.1.1,0,.5.1.9.2,1,.4,1.1,1.3,1.7,2.7,1.7,1.1,0,1.9-.4,2.5-1.3,0-.1.1-.2.2-.2s0,0,.1,0l1.5,1.2c.1.1.2.2,0,.4-.5.7-1.1,1.2-1.9,1.6-.8.4-1.7.6-2.7.6s-2.2-.3-3.1-.8c-.8-.6-1.5-1.3-1.9-2.3-.3-.8-.5-2-.5-3.5s0-1.6.3-2.2c.3-1.1.9-1.9,1.8-2.6.9-.6,1.9-.9,3.1-.9,3.1,0,4.8,1.6,5.2,4.8ZM1182.7,102.8c-.6,0-1.1.1-1.4.4-.4.3-.6.7-.8,1.2,0,.3-.1.6-.2,1,0,0,0,.1,0,.1h4.7c0,0,.1,0,.1-.1,0-.4,0-.7-.1-.9-.1-.6-.4-1-.8-1.3-.4-.3-.9-.5-1.5-.5Z"/>
      <path class="st10" d="M1124.3,197.4c-.2,0-.3,0-.3-.3l-.8-2.8c0,0,0-.1-.1-.1h-6.8c0,0,0,0-.1.1l-.9,2.8c0,.2-.2.3-.3.3h-2.6c0,0-.2,0-.2-.1,0,0,0-.1,0-.3l5.6-17.5c0-.2.2-.3.3-.3h3.2c.2,0,.3,0,.3.3l5.6,17.5s0,0,0,.1c0,.2-.1.2-.3.2h-2.6ZM1116.9,191.8c0,.1,0,.2.1.2h5.3c0,0,.1,0,0-.2l-2.7-8.7c0,0,0-.1,0-.1s0,0,0,.1l-2.6,8.7ZM1134.5,197.6c-1.1,0-2-.2-2.8-.5-.8-.3-1.5-.8-1.9-1.3-.4-.6-.7-1.2-.7-1.9v-.2c0,0,0-.2.1-.2,0,0,.1,0,.2,0h2.3c0,0,.2,0,.2,0,0,0,0,.1,0,.2h0c0,.5.2.9.7,1.2.5.3,1.1.5,1.8.5s1.2-.1,1.7-.4c.4-.3.7-.7.7-1.1s-.2-.7-.5-.9c-.4-.2-.9-.4-1.7-.6l-1-.3c-.9-.3-1.6-.5-2.2-.8-.6-.3-1.1-.7-1.5-1.2-.4-.5-.6-1.1-.6-1.9,0-1.2.5-2.2,1.4-2.9,1-.7,2.2-1.1,3.8-1.1s2,.2,2.8.5c.8.3,1.4.8,1.8,1.4.4.6.7,1.3.7,2s0,.2,0,.2c0,0-.2,0-.2,0h-2.2c0,0-.2,0-.2,0,0,0,0-.1,0-.2,0-.4-.2-.8-.7-1.1-.4-.3-1.1-.5-1.8-.5s-1.2.1-1.7.4c-.4.3-.6.6-.6,1.1s.2.7.6.9c.4.2,1.1.5,2,.7l.6.2c.9.3,1.7.6,2.3.8.6.3,1.1.7,1.6,1.2.4.5.7,1.2.7,2,0,1.2-.5,2.2-1.5,2.9-1,.7-2.2,1.1-3.8,1.1ZM1144,182.4c-.5,0-1-.2-1.3-.5-.3-.3-.5-.8-.5-1.3s.2-1,.5-1.3c.4-.3.8-.5,1.3-.5s1,.2,1.3.5c.4.3.5.8.5,1.3s-.2,1-.5,1.3c-.3.3-.8.5-1.3.5ZM1142.8,197.4c0,0-.2,0-.2-.1,0,0,0-.1,0-.2v-12.6c0,0,0-.2,0-.2,0,0,.1-.1.2-.1h2.4c0,0,.2,0,.2.1,0,0,0,.1,0,.2v12.6c0,0,0,.2,0,.2,0,0-.1.1-.2.1h-2.4ZM1154,184c1.1,0,2,.2,2.9.6.8.4,1.5.9,1.9,1.6.5.7.7,1.4.7,2.3v8.7c0,0,0,.2,0,.2,0,0-.1.1-.2.1h-2.4c0,0-.2,0-.2-.1,0,0-.1-.1-.1-.2v-.8c0,0,0,0,0-.1,0,0,0,0,0,0-.8.9-2.1,1.4-3.7,1.4s-2.4-.3-3.2-1c-.8-.7-1.3-1.6-1.3-2.9s.5-2.4,1.4-3.2c.9-.7,2.2-1.1,4-1.1h2.8c0,0,.1,0,.1-.1v-.6c0-.7-.2-1.2-.6-1.6-.4-.4-1-.5-1.8-.5s-1.2.1-1.6.4c-.4.2-.7.5-.8,1,0,.2-.2.3-.4.3l-2.5-.3c0,0-.2,0-.2,0,0,0,0-.1,0-.2.1-1.1.7-1.9,1.7-2.6,1-.7,2.2-1,3.7-1ZM1153.4,195.2c.8,0,1.6-.2,2.2-.7.6-.4.9-1,.9-1.7v-1.2c0,0,0-.1-.1-.1h-2.2c-.9,0-1.6.2-2.2.5-.5.3-.8.8-.8,1.5s.2,1,.6,1.3c.4.3.9.5,1.6.5Z"/>
      <path class="st7" d="M1095.1,233.9c-.2,0-.3,0-.4-.3l-4.6-17.5h0c0-.3,0-.3.3-.3h3.2c.2,0,.3,0,.3.3l2.5,10.5c0,0,0,.1,0,.1s0,0,0-.1l2.4-10.5c0-.2.2-.3.3-.3h3.1c.2,0,.3,0,.4.3l2.6,10.5c0,0,0,0,0,.1,0,0,0,0,0-.1l2.4-10.5c0-.2.2-.3.3-.3h3.1c.2,0,.3.1.3.3l-4.2,17.5c0,.2-.2.3-.4.3h-3.1c-.2,0-.3,0-.3-.3l-2.6-11.2c0,0,0-.1,0-.1s0,0,0,.1l-2.4,11.2c0,.2-.2.3-.3.3h-2.9ZM1114.1,233.9c0,0-.2,0-.2-.1,0,0,0-.1,0-.2v-17.5c0,0,0-.2,0-.2,0,0,.2-.1.2-.1h3c0,0,.2,0,.2.1,0,0,.1.1.1.2v17.5c0,0,0,.2-.1.2,0,0-.1.1-.2.1h-3ZM1131,216.1c0,0,0-.2,0-.2,0,0,.1-.1.2-.1h3c0,0,.2,0,.2.1,0,0,0,.1,0,.2v17.5c0,0,0,.2,0,.2,0,0-.1.1-.2.1h-2.9c-.2,0-.3,0-.4-.2l-6.7-11.1c0,0,0,0,0,0,0,0,0,0,0,.1v10.9c0,0,0,.2,0,.2,0,0-.1.1-.2.1h-3c0,0-.2,0-.2-.1,0,0,0-.1,0-.2v-17.5c0,0,0-.2,0-.2,0,0,.2-.1.2-.1h2.9c.2,0,.3,0,.4.2l6.7,11c0,0,0,0,.1,0,0,0,0,0,0-.1v-10.9ZM1150.3,215.8c0,0,.2,0,.2.1,0,0,0,.1,0,.2v2.5c0,0,0,.2,0,.2,0,0-.1.1-.2.1h-4.6c0,0-.1,0-.1.1v14.5c0,0,0,.2,0,.2,0,0-.1.1-.2.1h-3c0,0-.2,0-.2-.1,0,0,0-.1,0-.2v-14.5c0,0,0-.1-.1-.1h-4.5c0,0-.2,0-.2-.1,0,0,0-.1,0-.2v-2.5c0,0,0-.2,0-.2,0,0,.2-.1.2-.1h13ZM1165.5,218.6c0,0,0,.2,0,.2,0,0-.2.1-.2.1h-8.5c0,0-.1,0-.1.1v4c0,0,0,.1.1.1h5.6c0,0,.2,0,.2,0,0,0,0,.1,0,.2v2.5c0,0,0,.2,0,.2,0,0-.1,0-.2,0h-5.6c0,0-.1,0-.1.1v4.2c0,0,0,.1.1.1h8.5c0,0,.2,0,.2,0,0,0,0,.1,0,.2v2.5c0,0,0,.2,0,.2,0,0-.2.1-.2.1h-12c0,0-.2,0-.2-.1,0,0,0-.1,0-.2v-17.5c0,0,0-.2,0-.2,0,0,.2-.1.2-.1h12c0,0,.2,0,.2.1,0,0,0,.1,0,.2v2.5ZM1178,233.9c-.2,0-.3,0-.4-.2l-3.2-7.2c0,0,0-.1-.2-.1h-2.4c0,0-.1,0-.1.1v7.1c0,0,0,.2-.1.2,0,0-.1.1-.2.1h-3c0,0-.2,0-.2-.1,0,0,0-.1,0-.2v-17.5c0,0,0-.2,0-.2,0,0,.2-.1.2-.1h7.4c1.1,0,2.1.2,2.9.7.8.4,1.5,1.1,1.9,1.9.5.8.7,1.8.7,2.9s-.3,2.2-.9,3c-.6.8-1.4,1.4-2.5,1.8,0,0-.1,0,0,.2l3.5,7.3c0,0,0,.1,0,.2,0,.1,0,.2-.3.2h-3.2ZM1171.8,218.9c0,0-.1,0-.1.1v4.4c0,0,0,.1.1.1h3.4c.7,0,1.3-.2,1.8-.6.5-.4.7-1,.7-1.7s-.2-1.3-.7-1.7c-.4-.4-1-.6-1.8-.6h-3.4Z"/>
      <path class="st7" d="M1112.7,254.9s0,0,0,.1c0,0,0,0,.1,0h7c0,0,.2,0,.2,0,0,0,0,.1,0,.2v2.5c0,0,0,.2,0,.2,0,0-.1.1-.2.1h-11.6c0,0-.2,0-.2-.1,0,0,0-.1,0-.2v-2.4c0-.2,0-.3.2-.4.8-.8,1.7-1.7,2.6-2.7.9-1,1.4-1.6,1.7-1.8.5-.6,1-1.1,1.5-1.6,1.6-1.7,2.3-3,2.3-3.9s-.2-1.1-.6-1.5c-.4-.4-1-.6-1.7-.6s-1.2.2-1.7.6c-.4.4-.6.9-.6,1.6v.6c0,0,0,.2-.1.2,0,0-.1,0-.2,0h-3.1c0,0-.2,0-.2,0,0,0,0-.1,0-.2v-1.2c0-.9.3-1.8.9-2.5.5-.7,1.2-1.3,2.1-1.6.9-.4,1.9-.6,3-.6s2.3.2,3.2.7c.9.5,1.6,1.1,2.1,1.9.5.8.7,1.6.7,2.6s-.2,1.5-.5,2.2-.9,1.6-1.6,2.5c-.5.7-1.1,1.3-1.7,2-.6.7-1.6,1.6-2.8,2.8l-.4.4ZM1128.5,258.5c-1.9,0-3.4-.5-4.5-1.6-1.1-1.1-1.7-2.5-1.7-4.3v-6.8c0-1.8.5-3.2,1.7-4.3,1.1-1.1,2.6-1.6,4.5-1.6s3.4.5,4.5,1.6c1.1,1.1,1.7,2.5,1.7,4.3v6.8c0,1.8-.6,3.3-1.7,4.3-1.1,1.1-2.6,1.6-4.5,1.6ZM1128.5,255.4c.8,0,1.4-.2,1.9-.7.4-.5.7-1.1.7-1.9v-7.1c0-.8-.2-1.4-.7-1.9-.5-.5-1.1-.7-1.9-.7s-1.4.2-1.8.7c-.5.5-.7,1.1-.7,1.9v7.1c0,.8.2,1.4.7,1.9.4.5,1.1.7,1.8.7ZM1141.9,254.9s0,0,0,.1c0,0,0,0,0,0h7c0,0,.2,0,.2,0,0,0,0,.1,0,.2v2.5c0,0,0,.2,0,.2,0,0-.1.1-.2.1h-11.6c0,0-.1,0-.2-.1,0,0,0-.1,0-.2v-2.4c0-.2,0-.3.2-.4.8-.8,1.7-1.7,2.6-2.7.9-1,1.4-1.6,1.7-1.8.5-.6,1-1.1,1.5-1.6,1.6-1.7,2.4-3,2.4-3.9s-.2-1.1-.7-1.5c-.4-.4-1-.6-1.7-.6s-1.2.2-1.7.6c-.4.4-.7.9-.7,1.6v.6c0,0,0,.2,0,.2,0,0-.1,0-.2,0h-3.1c0,0-.2,0-.2,0,0,0,0-.1,0-.2v-1.2c0-.9.3-1.8.9-2.5.5-.7,1.2-1.3,2.1-1.6.9-.4,1.9-.6,3-.6s2.3.2,3.2.7c.9.5,1.6,1.1,2.1,1.9.5.8.7,1.6.7,2.6s-.2,1.5-.6,2.2c-.4.8-.9,1.6-1.6,2.5-.5.7-1.1,1.3-1.7,2-.6.7-1.5,1.6-2.8,2.8l-.4.4ZM1163.1,250c.3.8.4,1.7.4,2.5s-.1,1.7-.4,2.4c-.4,1.1-1.1,2-2.1,2.6-1,.6-2.2,1-3.5,1s-2.5-.3-3.4-.9c-1-.6-1.7-1.5-2.1-2.6-.2-.4-.3-.9-.4-1.4h0c0-.2.1-.3.3-.3h3.1c.2,0,.3,0,.3.3,0,.1,0,.2,0,.3,0,0,0,.1,0,.2.2.4.4.8.8,1,.3.2.8.4,1.2.4s.9-.1,1.3-.4c.4-.3.6-.6.8-1.1.2-.3.3-.8.3-1.3s0-.9-.2-1.3c-.1-.4-.4-.8-.7-1-.4-.2-.8-.4-1.3-.4s-.9.1-1.3.3c-.4.2-.7.5-.8.9,0,.2-.2.3-.3.3h-3.2c0,0-.2,0-.2-.1,0,0-.1-.1-.1-.2v-10.4c0,0,0-.2.1-.2,0,0,.1-.1.2-.1h10.7c0,0,.2,0,.2.1,0,0,0,.1,0,.2v2.5c0,0,0,.2,0,.2,0,0-.1.1-.2.1h-7.2c0,0-.1,0-.1.1v3.8c0,.1,0,.1.1,0,.8-.5,1.7-.8,2.7-.8s2.3.3,3.2.9c.9.6,1.5,1.5,1.9,2.5Z"/>
    </g>
  </g>
  <g class="st8">
    <g>
      <path class="st10" d="M1476.5,287.2l-106.6-53.2V56.6c8.6-1,16.7-4.4,23.4-9.9,6.7-5.4,11.8-12.7,14.5-20.9h132.8c2.8,8.3,7.9,15.6,14.7,21,6.8,5.5,15.1,8.9,23.7,9.8v177.3l-102.7,53.2Z"/>
      <path class="st12" d="M1370.9,234l105.4,53.2,101.6-53.2V56.7c-8.5-1.2-16.5-4.4-23.3-9.5l-183.7,186.9Z"/>
      <path class="st2" d="M1583.1,51.7h-.3c-9.1,0-17.8-3.1-24.9-8.7-7.1-5.6-12.1-13.5-14.1-22.3h-139.2c-2,8.8-7,16.6-14,22.2-7,5.6-15.8,8.7-24.8,8.8v186.9l3.7,1.9,103.8,52.9,3.1,1.6,3.1-1.6,100-52.9,3.6-1.9V51.7ZM1476.3,287.2l-105.4-53.2V56.6c8.5-1,16.6-4.5,23.2-9.9,6.6-5.4,11.6-12.7,14.3-20.8h131.4c2.7,8.2,7.8,15.5,14.5,21,6.8,5.5,14.9,8.9,23.6,9.8v177.3l-101.6,53.2Z"/>
      <g class="st4">
        <path class="st9" d="M1339.9,155.2h269.1v64.7h-269.1v-64.7Z"/>
      </g>
      <g class="st5">
        <path class="st9" d="M1435.6,7.7h77.6v80.2h-77.6V7.7Z"/>
      </g>
      <path class="st7" d="M1402.2,155.5c-.2,0-.3,0-.4-.2-.1-.1-.2-.3-.2-.4v-31.5c0-.2,0-.3.2-.4,0-.1.2-.2.4-.2h5.5c.2,0,.3,0,.4.2.1.1.2.3.2.4v26.2c0,.2,0,.2.2.2h15.2c.2,0,.3,0,.4.2.1.1.2.3.2.4v4.5c0,.2,0,.3-.2.4-.1.1-.3.2-.4.2h-21.5ZM1449,141.1c.2,1.2.2,2.5.2,4,0,.4-.2.6-.6.6h-14.4c-.2,0-.2,0-.2.2,0,.6.2,1.2.5,1.9.8,1.7,2.4,2.6,4.9,2.6,2,0,3.6-.8,4.7-2.4.1-.2.2-.3.4-.3s.2,0,.3.2l3.3,3.3c.2.2.2.3.2.4s0,.2-.2.4c-1,1.3-2.3,2.2-4,2.9-1.6.7-3.4,1-5.3,1s-4.9-.6-6.8-1.8c-1.8-1.2-3.2-2.9-4-5.1-.7-1.6-1-3.6-1-6.1s.2-3.2.7-4.5c.7-2.2,2-4,3.8-5.3,1.8-1.3,3.9-1.9,6.4-1.9s5.6.9,7.5,2.7c1.9,1.8,3,4.2,3.4,7.2ZM1438.2,136.8c-2,0-3.3.9-3.9,2.7-.1.4-.2.9-.3,1.5,0,.2,0,.2.2.2h8.1c.2,0,.2,0,.2-.2-.2-.9-.2-1.3-.2-1.3-.3-.9-.8-1.7-1.4-2.2-.7-.5-1.6-.8-2.6-.8ZM1462.6,131.2c2,0,3.8.4,5.4,1.1,1.6.7,2.8,1.6,3.7,2.9.9,1.2,1.3,2.6,1.3,4v15.8c0,.2,0,.3-.2.4,0,.1-.2.2-.4.2h-5.5c-.2,0-.3,0-.4-.2-.1-.1-.2-.3-.2-.4v-1.5c0,0,0-.1,0-.2,0,0-.1,0-.2,0-1.3,1.7-3.4,2.6-6.3,2.6s-4.4-.6-5.9-1.8c-1.5-1.2-2.2-2.9-2.2-5.2s.8-4.2,2.5-5.6c1.7-1.3,4.1-2,7.2-2h4.7c.2,0,.2,0,.2-.2v-1c0-1-.3-1.8-.9-2.4-.6-.6-1.6-.9-2.8-.9s-1.7.2-2.4.5-1,.8-1.2,1.4c0,.3-.3.5-.6.5l-5.6-.8c-.4,0-.6-.2-.5-.4.1-1.3.6-2.5,1.6-3.5.9-1.1,2.1-1.9,3.7-2.5,1.5-.6,3.2-.9,5-.9ZM1461.7,151c1.3,0,2.5-.4,3.4-1.1.9-.7,1.4-1.6,1.4-2.7v-1.7c0-.2,0-.2-.2-.2h-3.3c-1.4,0-2.5.3-3.3.8-.8.5-1.2,1.3-1.2,2.2s.3,1.5.9,2c.6.5,1.4.7,2.4.7ZM1492.5,123.5c0-.2,0-.3.2-.4.1-.1.2-.2.4-.2h5.5c.2,0,.3,0,.4.2,0,.1.2.3.2.4v31.5c0,.2,0,.3-.2.4,0,.1-.2.2-.4.2h-5.5c-.2,0-.3,0-.4-.2,0-.1-.2-.3-.2-.4v-1.5c0,0,0-.1,0-.2,0,0-.1,0-.2,0-1.3,1.7-3.1,2.6-5.3,2.6s-4.1-.6-5.6-1.8c-1.6-1.2-2.7-2.9-3.4-5-.5-1.6-.8-3.5-.8-5.6s.3-4.1.8-5.8c.7-2,1.8-3.6,3.4-4.7,1.5-1.2,3.4-1.8,5.7-1.8s4,.8,5.2,2.3c0,.1.1.1.2.1,0,0,0,0,0-.2v-10ZM1491.5,148.2c.6-1.1.9-2.7.9-4.7s-.3-3.7-1-4.9c-.7-1.2-1.7-1.8-3.1-1.8s-2.6.6-3.3,1.8c-.8,1.2-1.2,2.9-1.2,4.9s.3,3.4,1,4.7c.8,1.3,1.9,2,3.4,2s2.5-.7,3.3-2ZM1525.2,141.1c.2,1.2.2,2.5.2,4,0,.4-.2.6-.6.6h-14.4c-.2,0-.2,0-.2.2,0,.6.2,1.2.5,1.9.8,1.7,2.5,2.6,4.9,2.6,2,0,3.5-.8,4.7-2.4.1-.2.3-.3.4-.3s.2,0,.3.2l3.3,3.3c.2.2.2.3.2.4s0,.2-.2.4c-1,1.3-2.3,2.2-4,2.9-1.6.7-3.4,1-5.3,1s-4.9-.6-6.8-1.8c-1.8-1.2-3.2-2.9-4-5.1-.6-1.6-1-3.6-1-6.1s.2-3.2.7-4.5c.7-2.2,2-4,3.8-5.3,1.8-1.3,3.9-1.9,6.4-1.9s5.6.9,7.5,2.7c1.9,1.8,3,4.2,3.4,7.2ZM1514.3,136.8c-2,0-3.3.9-3.9,2.7-.1.4-.2.9-.3,1.5,0,.2,0,.2.2.2h8c.2,0,.2,0,.2-.2-.2-.9-.2-1.3-.2-1.3-.3-.9-.8-1.7-1.4-2.2-.7-.5-1.6-.8-2.6-.8ZM1541.4,131.2c1.1,0,2,.2,2.6.6.2.1.3.4.3.7l-1,5.3c0,.4-.2.5-.7.3-.5-.2-1-.2-1.6-.2s-.6,0-1,.1c-1.1,0-2.1.5-2.8,1.2-.8.7-1.2,1.7-1.2,2.9v12.7c0,.2,0,.3-.2.4-.1.1-.3.2-.4.2h-5.4c-.2,0-.3,0-.4-.2,0-.1-.1-.3-.1-.4v-22.8c0-.2,0-.3.1-.4.1-.1.3-.2.4-.2h5.4c.2,0,.3,0,.4.2,0,.1.2.2.2.4v1.8c0,0,0,.1,0,.2,0,0,.1,0,.2,0,1.3-1.9,3-2.8,5.1-2.8Z"/>
      <path class="st10" d="M1447.8,197.4c0,0-.2,0-.2-.1,0,0-.1-.1-.1-.2v-17.5c0,0,0-.2.1-.2,0,0,.1-.1.2-.1h2.4c0,0,.2,0,.2.1,0,0,0,.1,0,.2v17.5c0,0,0,.2,0,.2,0,0-.1.1-.2.1h-2.4ZM1460.3,184c1.4,0,2.5.4,3.4,1.2.8.8,1.2,2,1.2,3.4v8.5c0,0,0,.2,0,.2,0,0-.2.1-.2.1h-2.4c0,0-.2,0-.2-.1,0,0,0-.1,0-.2v-7.9c0-.8-.2-1.4-.7-1.9-.4-.5-1-.7-1.8-.7s-1.3.2-1.8.7c-.5.5-.7,1.1-.7,1.9v7.9c0,0,0,.2,0,.2,0,0-.2.1-.2.1h-2.4c0,0-.2,0-.2-.1,0,0-.1-.1-.1-.2v-12.6c0,0,0-.2.1-.2,0,0,.1,0,.2,0h2.4c0,0,.2,0,.2,0,0,0,0,.1,0,.2v.8c0,0,0,0,0,.1,0,0,0,0,0,0,.7-.9,1.8-1.4,3.2-1.4ZM1476.1,179.6c0,0,0-.2,0-.2,0,0,.1-.1.2-.1h2.4c0,0,.2,0,.2.1,0,0,0,.1,0,.2v17.5c0,0,0,.2,0,.2,0,0-.2.1-.2.1h-2.4c0,0-.2,0-.2-.1,0,0,0-.1,0-.2v-.8c0,0,0,0,0-.1,0,0,0,0-.1,0-.8.9-1.8,1.3-3,1.3s-2.3-.3-3.1-1c-.8-.6-1.5-1.5-1.8-2.7-.3-1-.5-2-.5-3.2s.2-2.3.4-3.2c.4-1.1,1-2,1.8-2.7.8-.6,1.9-1,3.2-1s2.2.4,2.9,1.3c0,0,0,0,.1,0,0,0,0,0,0-.1v-5.6ZM1475.5,193.8c.4-.7.6-1.7.6-3s-.2-2.4-.6-3.1c-.5-.8-1.1-1.1-2-1.1s-1.6.4-2.1,1.1c-.5.8-.8,1.8-.8,3.2s.2,2.2.6,3c.5.8,1.2,1.2,2.2,1.2s1.6-.4,2.1-1.2ZM1484.1,182.4c-.5,0-1-.2-1.3-.5-.3-.3-.5-.8-.5-1.3s.2-1,.5-1.3c.3-.3.8-.5,1.3-.5s1,.2,1.3.5c.3.3.5.8.5,1.3s-.2,1-.5,1.3c-.3.3-.8.5-1.3.5ZM1482.8,197.4c0,0-.1,0-.2-.1,0,0-.1-.1-.1-.2v-12.6c0,0,0-.2.1-.2,0,0,.1-.1.2-.1h2.4c0,0,.2,0,.2.1,0,0,0,.1,0,.2v12.6c0,0,0,.2,0,.2,0,0-.1.1-.2.1h-2.4ZM1494,184c1.1,0,2,.2,2.9.6.8.4,1.5.9,1.9,1.6.4.7.7,1.4.7,2.3v8.7c0,0,0,.2,0,.2,0,0-.1.1-.2.1h-2.4c0,0-.2,0-.2-.1,0,0,0-.1,0-.2v-.8c0,0,0,0,0-.1,0,0,0,0-.1,0-.8.9-2.1,1.4-3.7,1.4s-2.4-.3-3.2-1c-.8-.7-1.2-1.6-1.2-2.9s.5-2.4,1.4-3.2c.9-.7,2.3-1.1,4-1.1h2.8c0,0,.1,0,.1-.1v-.6c0-.7-.2-1.2-.6-1.6-.4-.4-1-.5-1.8-.5s-1.2.1-1.6.4c-.4.2-.6.5-.8,1,0,.2-.2.3-.4.3l-2.5-.3c0,0-.2,0-.2,0,0,0,0-.1,0-.2.1-1.1.7-1.9,1.7-2.6,1-.7,2.2-1,3.7-1ZM1493.4,195.2c.8,0,1.6-.2,2.2-.7.6-.4.9-1,.9-1.7v-1.2c0,0,0-.1-.1-.1h-2.2c-.9,0-1.6.2-2.2.5-.5.3-.8.8-.8,1.5s.2,1,.6,1.3c.4.3.9.5,1.6.5Z"/>
      <path class="st7" d="M1433.4,233.9c-.2,0-.3,0-.4-.3l-4.6-17.5h0c0-.3,0-.3.3-.3h3.2c.2,0,.3,0,.3.3l2.5,10.5c0,0,0,.1,0,.1s0,0,0-.1l2.4-10.5c0-.2.2-.3.3-.3h3.1c.2,0,.3,0,.4.3l2.6,10.5c0,0,0,0,0,.1,0,0,0,0,0-.1l2.4-10.5c0-.2.2-.3.3-.3h3c.2,0,.3.1.3.3l-4.2,17.5c0,.2-.2.3-.4.3h-3.1c-.2,0-.3,0-.3-.3l-2.6-11.2c0,0,0-.1,0-.1s0,0,0,.1l-2.4,11.2c0,.2-.2.3-.3.3h-2.9ZM1452.4,233.9c0,0-.2,0-.2-.1,0,0,0-.1,0-.2v-17.5c0,0,0-.2,0-.2,0,0,.1-.1.2-.1h3c0,0,.2,0,.2.1,0,0,.1.1.1.2v17.5c0,0,0,.2-.1.2,0,0-.1.1-.2.1h-3ZM1469.3,216.1c0,0,0-.2,0-.2,0,0,.2-.1.2-.1h3c0,0,.2,0,.2.1,0,0,0,.1,0,.2v17.5c0,0,0,.2,0,.2,0,0-.1.1-.2.1h-2.9c-.2,0-.3,0-.4-.2l-6.7-11.1c0,0,0,0,0,0,0,0,0,0,0,.1v10.9c0,0,0,.2,0,.2,0,0-.1.1-.2.1h-3c0,0-.2,0-.2-.1,0,0,0-.1,0-.2v-17.5c0,0,0-.2,0-.2,0,0,.2-.1.2-.1h2.9c.2,0,.3,0,.4.2l6.7,11c0,0,0,0,.1,0,0,0,0,0,0-.1v-10.9ZM1488.6,215.8c0,0,.2,0,.2.1,0,0,0,.1,0,.2v2.5c0,0,0,.2,0,.2,0,0-.1.1-.2.1h-4.6c0,0-.1,0-.1.1v14.5c0,0,0,.2,0,.2,0,0-.1.1-.2.1h-3c0,0-.2,0-.2-.1,0,0,0-.1,0-.2v-14.5c0,0,0-.1-.1-.1h-4.5c0,0-.2,0-.2-.1,0,0,0-.1,0-.2v-2.5c0,0,0-.2,0-.2,0,0,.2-.1.2-.1h13ZM1503.8,218.6c0,0,0,.2,0,.2,0,0-.2.1-.2.1h-8.5c0,0-.1,0-.1.1v4c0,0,0,.1.1.1h5.6c0,0,.2,0,.2,0,0,0,0,.1,0,.2v2.5c0,0,0,.2,0,.2,0,0-.1,0-.2,0h-5.6c0,0-.1,0-.1.1v4.2c0,0,0,.1.1.1h8.5c0,0,.2,0,.2,0,0,0,0,.1,0,.2v2.5c0,0,0,.2,0,.2,0,0-.2.1-.2.1h-12c0,0-.2,0-.2-.1,0,0,0-.1,0-.2v-17.5c0,0,0-.2,0-.2,0,0,.2-.1.2-.1h12c0,0,.2,0,.2.1,0,0,0,.1,0,.2v2.5ZM1516.3,233.9c-.2,0-.3,0-.4-.2l-3.2-7.2c0,0,0-.1-.2-.1h-2.4c0,0-.1,0-.1.1v7.1c0,0,0,.2,0,.2,0,0-.1.1-.2.1h-3c0,0-.2,0-.2-.1,0,0,0-.1,0-.2v-17.5c0,0,0-.2,0-.2,0,0,.1-.1.2-.1h7.4c1.1,0,2.1.2,2.9.7.8.4,1.5,1.1,1.9,1.9.5.8.7,1.8.7,2.9s-.3,2.2-.9,3c-.6.8-1.4,1.4-2.5,1.8,0,0-.1,0,0,.2l3.5,7.3c0,0,0,.1,0,.2,0,.1,0,.2-.3.2h-3.2ZM1510.1,218.9c0,0-.1,0-.1.1v4.4c0,0,0,.1.1.1h3.4c.7,0,1.3-.2,1.8-.6.5-.4.7-1,.7-1.7s-.2-1.3-.7-1.7c-.5-.4-1-.6-1.8-.6h-3.4Z"/>
      <path class="st7" d="M1451,254.9s0,0,0,.1c0,0,0,0,.1,0h7c0,0,.2,0,.2,0,0,0,0,.1,0,.2v2.5c0,0,0,.2,0,.2,0,0-.2.1-.2.1h-11.6c0,0-.2,0-.2-.1,0,0,0-.1,0-.2v-2.4c0-.2,0-.3.2-.4.8-.8,1.7-1.7,2.6-2.7.9-1,1.4-1.6,1.7-1.8.5-.6,1-1.1,1.5-1.6,1.6-1.7,2.3-3,2.3-3.9s-.2-1.1-.6-1.5c-.4-.4-1-.6-1.7-.6s-1.2.2-1.7.6c-.4.4-.6.9-.6,1.6v.6c0,0,0,.2-.1.2,0,0-.1,0-.2,0h-3c0,0-.2,0-.2,0,0,0,0-.1,0-.2v-1.2c0-.9.3-1.8.9-2.5.5-.7,1.2-1.3,2.1-1.6.9-.4,1.9-.6,3-.6s2.3.2,3.2.7c.9.5,1.6,1.1,2.1,1.9.5.8.7,1.6.7,2.6s-.2,1.5-.5,2.2-.9,1.6-1.6,2.5c-.5.7-1.1,1.3-1.7,2-.6.7-1.6,1.6-2.8,2.8l-.4.4ZM1466.8,258.5c-1.9,0-3.4-.5-4.5-1.6-1.1-1.1-1.7-2.5-1.7-4.3v-6.8c0-1.8.6-3.2,1.7-4.3,1.1-1.1,2.6-1.6,4.5-1.6s3.4.5,4.5,1.6c1.1,1.1,1.7,2.5,1.7,4.3v6.8c0,1.8-.5,3.3-1.7,4.3-1.1,1.1-2.6,1.6-4.5,1.6ZM1466.8,255.4c.8,0,1.4-.2,1.9-.7.4-.5.7-1.1.7-1.9v-7.1c0-.8-.2-1.4-.7-1.9-.5-.5-1.1-.7-1.9-.7s-1.4.2-1.8.7c-.5.5-.7,1.1-.7,1.9v7.1c0,.8.2,1.4.7,1.9.4.5,1.1.7,1.8.7ZM1480.2,254.9s0,0,0,.1c0,0,0,0,0,0h7c0,0,.2,0,.2,0,0,0,0,.1,0,.2v2.5c0,0,0,.2,0,.2,0,0-.2.1-.2.1h-11.6c0,0-.2,0-.2-.1,0,0-.1-.1-.1-.2v-2.4c0-.2,0-.3.2-.4.8-.8,1.7-1.7,2.6-2.7.9-1,1.4-1.6,1.7-1.8.5-.6,1-1.1,1.5-1.6,1.6-1.7,2.4-3,2.4-3.9s-.2-1.1-.7-1.5c-.4-.4-1-.6-1.7-.6s-1.2.2-1.7.6c-.4.4-.7.9-.7,1.6v.6c0,0,0,.2,0,.2,0,0-.1,0-.2,0h-3c0,0-.2,0-.2,0,0,0,0-.1,0-.2v-1.2c0-.9.3-1.8.9-2.5.5-.7,1.2-1.3,2.1-1.6.9-.4,1.9-.6,3-.6s2.3.2,3.2.7c.9.5,1.6,1.1,2.1,1.9.5.8.7,1.6.7,2.6s-.2,1.5-.6,2.2c-.4.8-.9,1.6-1.6,2.5-.5.7-1.1,1.3-1.7,2-.6.7-1.5,1.6-2.8,2.8l-.4.4ZM1501.4,250c.3.8.4,1.7.4,2.5s-.1,1.7-.4,2.4c-.4,1.1-1.1,2-2.1,2.6-1,.6-2.2,1-3.5,1s-2.5-.3-3.4-.9c-1-.6-1.7-1.5-2.1-2.6-.2-.4-.3-.9-.4-1.4h0c0-.2,0-.3.3-.3h3.1c.2,0,.3,0,.3.3,0,.1,0,.2,0,.3,0,0,0,.1,0,.2.2.4.4.8.8,1,.3.2.8.4,1.2.4s.9-.1,1.3-.4c.4-.3.6-.6.8-1.1.2-.3.3-.8.3-1.3s0-.9-.2-1.3c-.1-.4-.4-.8-.7-1-.4-.2-.8-.4-1.3-.4s-.9.1-1.4.3c-.4.2-.7.5-.8.9,0,.2-.2.3-.3.3h-3.2c0,0-.2,0-.2-.1,0,0-.1-.1-.1-.2v-10.4c0,0,0-.2.1-.2,0,0,.1-.1.2-.1h10.7c0,0,.2,0,.2.1,0,0,0,.1,0,.2v2.5c0,0,0,.2,0,.2,0,0-.1.1-.2.1h-7.2c0,0-.1,0-.1.1v3.8c0,.1,0,.1.1,0,.8-.5,1.7-.8,2.7-.8s2.3.3,3.2.9c.9.6,1.5,1.5,1.9,2.5Z"/>
    </g>
  </g>
  <g>
    <path class="st10" d="M697.4,232.2l102.3,52.1,98.4-52.1V28.6h-200.7v203.6Z"/>
    <path class="st11" d="M900.2,29.4l-204.9,206.4,106.2,52.6,98.7-50.5V29.4Z"/>
    <path class="st3" d="M690.7,96.5v140.1l3.6,1.8,102.3,52.1,3.1,1.6,3.1-1.6,98.7-52.1,3.6-1.8V21.9h-214.4v74.6ZM697.4,232.7V28.6h201v204.1l-98.7,52.1-102.3-52.1Z"/>
    <path class="st14" d="M797.9,32c1,0,2.1,0,3.1.3l-3.1,6c-4.7-.3-8.8,3.4-9.1,8-.3,4.7,3.4,8.8,8,9.1h1c2.1,0,4.1-.8,5.7-2.1l3.4,5.7c-2.6,1.8-5.7,2.8-9.1,2.8-8.3.3-15.3-6-15.5-14.2-.3-8.3,6-15.3,14.2-15.5,0,0,1.3,0,1.3,0ZM808.6,44.7l3.9,6.5-3.9,6.2-3.6-6.2h-7.5l3.9-6.5h7.3ZM802.3,42.3c0-1,.3-2.1.8-2.8s1.6-1.6,2.3-2.1l.5-.3c1-.5,1.3-.8,1.3-1.3s-.8-1-1.3-1c-1,0-1.8.5-2.3,1.6l-1.3-1.3c.3-.5.8-1,1.3-1.6.8-.5,1.6-.5,2.3-.5s1.8.3,2.3.8,1,1.3,1,2.1c0,1.3-.8,2.3-2.3,2.8l-.8.5c-.8.5-1.3.8-1.6,1.6h4.7v1.8s-7-.3-7-.3ZM797.9,74.7l24.6-14V21.9h-49.5v38.6s24.9,14.2,24.9,14.2ZM910.1,166.4h-224.3l-8.3,18.1,8.3,18.1h224.3l8-18.1-8-18.1Z"/>
    <path class="st7" d="M742,154.7c-.1,0-.2,0-.3-.1,0,0-.1-.2-.1-.3v-24.5c0-.1,0-.2.1-.3s.2-.1.3-.1h4.2c.1,0,.2,0,.3.1,0,0,.1.2.1.3v20.4c0,.1,0,.2.2.2h11.9c.1,0,.2,0,.3.1,0,0,.1.2.1.3v3.5c0,.1,0,.2-.1.3,0,0-.2.1-.3.1h-16.7ZM778.5,143.5c.1.9.2,1.9.1,3.1,0,.3-.2.4-.5.4h-11.2c-.1,0-.2,0-.1.2,0,.5.2,1,.4,1.5.6,1.3,1.9,2,3.9,2,1.5,0,2.8-.6,3.7-1.9.1-.1.2-.2.3-.2s.1,0,.2.2l2.6,2.6c.1.1.2.2.2.3s0,.1-.1.3c-.8,1-1.8,1.8-3.1,2.3-1.3.5-2.6.8-4.1.8s-3.8-.5-5.3-1.4c-1.4-.9-2.5-2.3-3.1-4-.5-1.2-.8-2.8-.8-4.7s.2-2.5.5-3.5c.6-1.7,1.5-3.1,2.9-4.1,1.4-1,3-1.5,4.9-1.5s4.4.7,5.8,2.1c1.5,1.4,2.3,3.3,2.7,5.6ZM770,140.2c-1.5,0-2.5.7-3,2.1,0,.3-.2.7-.3,1.2,0,.1,0,.2.2.2h6.3c.1,0,.2,0,.1-.2-.1-.7-.2-1-.2-1-.2-.7-.6-1.3-1.1-1.7-.5-.4-1.2-.6-2-.6ZM789,135.8c1.6,0,3,.3,4.2.8,1.2.5,2.2,1.3,2.9,2.2.7.9,1,2,1,3.2v12.3c0,.1,0,.2-.1.3s-.2.1-.3.1h-4.2c-.1,0-.2,0-.3-.1s-.1-.2-.1-.3v-1.2c0,0,0-.1,0-.2,0,0,0,0-.1,0-1,1.3-2.7,2-4.9,2s-3.4-.5-4.6-1.4c-1.2-.9-1.7-2.3-1.7-4.1s.7-3.3,2-4.3c1.3-1,3.2-1.6,5.6-1.6h3.7c.1,0,.2,0,.2-.2v-.8c0-.8-.2-1.4-.7-1.9-.5-.4-1.2-.6-2.2-.6-.7,0-1.4.1-1.9.4s-.8.6-1,1.1c0,.3-.2.4-.5.4l-4.4-.6c-.3,0-.4-.2-.4-.3.1-1,.5-1.9,1.2-2.7s1.6-1.5,2.8-1.9c1.2-.5,2.5-.7,3.9-.7ZM788.3,151.2c1,0,1.9-.3,2.6-.8.7-.6,1.1-1.3,1.1-2.1v-1.3c0-.1,0-.2-.2-.2h-2.6c-1.1,0-1.9.2-2.5.6-.6.4-.9,1-.9,1.7s.2,1.2.7,1.6c.4.4,1.1.5,1.8.5ZM812.3,129.8c0-.1,0-.2.1-.3s.2-.1.3-.1h4.2c.1,0,.2,0,.3.1s.1.2.1.3v24.5c0,.1,0,.2-.1.3s-.2.1-.3.1h-4.2c-.1,0-.2,0-.3-.1s-.1-.2-.1-.3v-1.2c0,0,0-.1,0-.1,0,0-.1,0-.2,0-1,1.3-2.4,2-4.2,2s-3.1-.5-4.4-1.4c-1.2-.9-2.1-2.2-2.6-3.9-.4-1.3-.6-2.7-.6-4.4s.2-3.2.7-4.5c.6-1.6,1.4-2.8,2.6-3.7,1.2-.9,2.7-1.4,4.5-1.4s3.1.6,4,1.8c0,0,.1,0,.2,0,0,0,0,0,0-.2,0,0,0-7.7,0-7.7ZM811.5,149.1c.5-.9.7-2.1.7-3.7,0-1.6-.3-2.9-.8-3.8-.6-.9-1.4-1.4-2.4-1.4s-2,.5-2.6,1.4c-.6.9-.9,2.2-.9,3.9,0,1.5.3,2.7.8,3.6.6,1,1.5,1.6,2.7,1.6s1.9-.5,2.5-1.6ZM837.8,143.5c.1.9.2,1.9.1,3.1,0,.3-.2.4-.5.4h-11.2c-.1,0-.2,0-.1.2,0,.5.2,1,.4,1.5.6,1.3,1.9,2,3.9,2,1.5,0,2.8-.6,3.7-1.9.1-.1.2-.2.3-.2s.1,0,.2.2l2.6,2.6c.1.1.2.2.2.3,0,0,0,.1-.1.3-.8,1-1.8,1.8-3.1,2.3-1.3.5-2.6.8-4.1.8s-3.8-.5-5.3-1.4c-1.4-.9-2.5-2.3-3.1-4-.5-1.2-.8-2.8-.8-4.7,0-1.3.2-2.5.5-3.5.6-1.7,1.5-3.1,2.9-4.1,1.4-1,3-1.5,4.9-1.5s4.4.7,5.8,2.1c1.5,1.4,2.3,3.3,2.7,5.6ZM829.3,140.2c-1.5,0-2.5.7-3,2.1,0,.3-.2.7-.3,1.2,0,.1,0,.2.2.2h6.3c.1,0,.2,0,.1-.2-.1-.7-.2-1-.2-1-.2-.7-.6-1.3-1.1-1.7-.5-.4-1.2-.6-2-.6ZM850.3,135.8c.9,0,1.6.2,2.1.5.2.1.3.3.2.5l-.8,4.1c0,.3-.2.4-.5.3-.4-.1-.8-.2-1.3-.2s-.5,0-.8,0c-.9,0-1.6.4-2.2,1-.6.6-.9,1.3-.9,2.3v9.9c0,.1,0,.2-.1.3,0,0-.2.1-.3.1h-4.2c-.1,0-.2,0-.3-.1s-.1-.2-.1-.3v-17.8c0-.1,0-.2.1-.3s.2-.1.3-.1h4.2c.1,0,.2,0,.3.1,0,0,.1.2.1.3v1.4c0,0,0,.1,0,.2s0,0,.1,0c1-1.5,2.3-2.2,4-2.2ZM725.5,93.4c.1-.2.3-.3.5-.3h4.2c.1,0,.2,0,.3.1,0,0,.1.2.1.3v24.5c0,.1,0,.2-.1.3s-.2.1-.3.1h-4.2c-.1,0-.2,0-.3-.1,0,0-.1-.2-.1-.3v-16c0-.1,0-.2,0-.2s0,0-.1.1l-3.9,6c-.1.2-.3.3-.5.3h-2.1c-.2,0-.4,0-.5-.3l-3.9-6c0,0,0,0-.1,0,0,0,0,0,0,.2v16c0,.1,0,.2-.1.3,0,0-.2.1-.3.1h-4.2c-.1,0-.2,0-.3-.1s-.1-.2-.1-.3v-24.5c0-.1,0-.2.1-.3s.2-.1.3-.1h4.2c.2,0,.4,0,.5.3l5.4,8.4c0,.2.1.2.2,0,0,0,5.5-8.4,5.5-8.4ZM743,118.8c-2,0-3.8-.5-5.2-1.6-1.5-1.1-2.4-2.5-3-4.4-.3-1.1-.5-2.4-.5-3.7,0-1.4.2-2.7.5-3.9.6-1.8,1.6-3.2,3-4.2,1.5-1,3.2-1.5,5.2-1.5s3.7.5,5.1,1.5c1.4,1,2.4,2.4,3,4.2.4,1.2.6,2.5.6,3.8s-.2,2.5-.5,3.7c-.5,1.9-1.5,3.4-3,4.5-1.5,1.1-3.2,1.6-5.2,1.6ZM743,114.4c.8,0,1.5-.2,2-.7.6-.5.9-1.1,1.2-2,.2-.8.3-1.6.3-2.5s0-1.9-.3-2.6c-.3-.8-.7-1.5-1.2-1.9-.6-.4-1.3-.7-2-.7s-1.5.2-2,.7c-.5.5-.9,1.1-1.2,1.9-.2.6-.3,1.5-.3,2.6s0,1.9.3,2.5c.2.8.6,1.5,1.2,2,.6.5,1.3.7,2.1.7ZM775.7,99.5c1.9,0,3.3.6,4.4,1.7,1.1,1.1,1.6,2.7,1.6,4.8v12c0,.1,0,.2-.1.3s-.2.1-.3.1h-4.2c-.1,0-.2,0-.3-.1,0,0-.1-.2-.1-.3v-10.9c0-1-.3-1.8-.8-2.4-.5-.6-1.2-.9-2-.9s-1.5.3-2.1.9c-.5.6-.8,1.4-.8,2.3v10.9c0,.1,0,.2-.1.3s-.2.1-.3.1h-4.2c-.1,0-.2,0-.3-.1s-.1-.2-.1-.3v-10.9c0-1-.3-1.7-.8-2.3-.5-.6-1.2-.9-2-.9s-1.4.2-1.9.7c-.5.5-.8,1.1-.9,1.9v11.5c0,.1,0,.2-.1.3s-.2.1-.3.1h-4.2c-.1,0-.2,0-.3-.1,0,0-.1-.2-.1-.3v-17.8c0-.1,0-.2.1-.3,0,0,.2-.1.3-.1h4.2c.1,0,.2,0,.3.1s.1.2.1.3v1.4c0,0,0,.1,0,.1,0,0,0,0,.1,0,1-1.5,2.5-2.2,4.6-2.2s2.3.3,3.2.8c.9.5,1.6,1.2,2.1,2.2,0,.1.2.1.3,0,.5-1,1.3-1.7,2.1-2.2.9-.5,1.9-.7,3.1-.7ZM801.6,107.2c.2.9.2,1.9.2,3.1,0,.3-.2.4-.5.4h-11.2c-.1,0-.2,0-.1.2,0,.5.2,1,.4,1.5.6,1.3,1.9,2,3.8,2,1.6,0,2.8-.6,3.7-1.9,0-.1.2-.2.3-.2s.2,0,.3.2l2.6,2.6c.1.1.2.2.2.3,0,0,0,.1-.2.3-.8,1-1.8,1.8-3.1,2.3-1.2.5-2.6.8-4.1.8s-3.9-.5-5.3-1.4c-1.4-.9-2.5-2.3-3.1-4-.5-1.2-.8-2.8-.8-4.7s.2-2.5.5-3.5c.6-1.7,1.5-3.1,2.9-4.1,1.4-1,3-1.5,4.9-1.5s4.4.7,5.8,2.1c1.5,1.4,2.4,3.3,2.7,5.6ZM793.2,103.9c-1.5,0-2.5.7-3,2.1-.1.3-.2.7-.3,1.2,0,.1,0,.2.2.2h6.3c.2,0,.2,0,.2-.2-.1-.7-.2-1-.2-1-.2-.7-.6-1.3-1.1-1.7-.6-.4-1.2-.6-2-.6ZM814.7,99.5c1.9,0,3.5.6,4.7,1.8,1.2,1.2,1.8,2.8,1.8,4.8v11.9c0,.1,0,.2-.1.3s-.2.1-.3.1h-4.2c-.1,0-.2,0-.3-.1s-.1-.2-.1-.3v-10.8c0-1-.3-1.8-.8-2.4-.5-.6-1.3-.9-2.1-.9s-1.6.3-2.1.9c-.6.6-.8,1.4-.8,2.4v10.8c0,.1,0,.2-.1.3s-.2.1-.3.1h-4.2c-.1,0-.2,0-.3-.1s-.1-.2-.1-.3v-17.8c0-.1,0-.2.1-.3s.2-.1.3-.1h4.2c.1,0,.2,0,.3.1s.1.2.1.3v1.3c0,0,0,.1,0,.2,0,0,0,0,.1,0,1-1.4,2.5-2.1,4.4-2.1ZM835.5,103.5c0,.1,0,.2-.1.3s-.2.1-.3.1h-3.5c-.1,0-.2,0-.2.2v7.7c0,.8.2,1.4.5,1.8.3.4.9.6,1.6.6h1.2c.1,0,.2,0,.3.1s.1.2.1.3v3.4c0,.3-.1.4-.4.5-1,0-1.7,0-2.2,0-2,0-3.5-.3-4.5-1-1-.7-1.5-1.9-1.5-3.8v-9.7c0-.1,0-.2-.2-.2h-2.1c-.1,0-.2,0-.3-.1s-.1-.2-.1-.3v-3.2c0-.1,0-.2.1-.3s.2-.1.3-.1h2.1c.1,0,.2,0,.2-.2v-4.3c0-.1,0-.2.1-.3s.2-.1.3-.1h4.1c.1,0,.2,0,.3.1,0,0,.1.2.1.3v4.3c0,.1,0,.2.2.2h3.5c.1,0,.2,0,.3.1s.1.2.1.3c0,0,0,3.2,0,3.2ZM849.4,100.3c0-.1,0-.2.1-.3,0,0,.2-.1.3-.1h4.2c.1,0,.2,0,.3.1,0,0,.1.2.1.3v17.8c0,.1,0,.2-.1.3,0,0-.2.1-.3.1h-4.2c-.1,0-.2,0-.3-.1,0,0-.1-.2-.1-.3v-1.2c0,0,0-.1,0-.1,0,0-.1,0-.2,0-1,1.3-2.5,2-4.5,2-1.8,0-3.4-.6-4.5-1.7-1.2-1.1-1.8-2.7-1.8-4.7v-12.1c0-.1,0-.2.1-.3s.2-.1.3-.1h4.2c.1,0,.2,0,.3.1,0,0,.1.2.1.3v10.9c0,1,.3,1.8.8,2.4.5.6,1.2.9,2.1.9s1.5-.3,2-.8c.5-.5.9-1.1,1-1.9,0,0,0-11.4,0-11.4ZM879,99.5c1.9,0,3.3.6,4.4,1.7,1.1,1.1,1.6,2.7,1.6,4.8v12c0,.1,0,.2-.1.3,0,0-.2.1-.3.1h-4.2c-.1,0-.2,0-.3-.1,0,0-.1-.2-.1-.3v-10.9c0-1-.3-1.8-.8-2.4-.5-.6-1.2-.9-2-.9s-1.5.3-2.1.9c-.5.6-.8,1.4-.8,2.3v10.9c0,.1,0,.2-.1.3s-.2.1-.3.1h-4.2c-.1,0-.2,0-.3-.1,0,0-.1-.2-.1-.3v-10.9c0-1-.3-1.7-.8-2.3-.5-.6-1.2-.9-2-.9s-1.4.2-1.9.7c-.5.5-.8,1.1-.9,1.9v11.5c0,.1,0,.2-.1.3s-.2.1-.3.1h-4.2c-.1,0-.2,0-.3-.1,0,0-.1-.2-.1-.3v-17.8c0-.1,0-.2.1-.3,0,0,.2-.1.3-.1h4.2c.1,0,.2,0,.3.1s.1.2.1.3v1.4c0,0,0,.1,0,.1,0,0,0,0,.1,0,1-1.5,2.5-2.2,4.6-2.2s2.3.3,3.2.8c.9.5,1.6,1.2,2.1,2.2,0,.1.2.1.3,0,.5-1,1.3-1.7,2.1-2.2.9-.5,1.9-.7,3.1-.7h0Z"/>
    <path class="st10" d="M757.3,194.6c-.2,0-.3,0-.4-.3l-4.7-17.5h0c0-.3,0-.3.3-.3h2.5c.2,0,.3,0,.4.3l3,11.8c0,0,0,0,0,0s0,0,0,0l2.8-11.8c0-.2.2-.3.3-.3h2.5c.2,0,.3,0,.4.3l3,11.8c0,0,0,0,0,0s0,0,0,0l2.9-11.8c0-.2.2-.3.4-.3h2.4c.2,0,.3.1.3.3l-4.5,17.5c0,.2-.2.3-.4.3h-2.4c-.2,0-.3,0-.4-.3l-3-12.4c0,0,0,0,0-.1,0,0,0,0,0,.1l-2.9,12.4c0,.2-.2.3-.3.3h-2.3ZM776.5,194.6c0,0-.2,0-.2-.1,0,0,0-.1,0-.2v-17.5c0,0,0-.2,0-.2,0,0,.1-.1.2-.1h2.4c0,0,.2,0,.2.1,0,0,.1.1.1.2v17.5c0,0,0,.2-.1.2,0,0-.1.1-.2.1h-2.4ZM793.5,176.8c0,0,0-.2,0-.2s.1-.1.2-.1h2.4c0,0,.2,0,.2.1,0,0,.1.1.1.2v17.5c0,0,0,.2-.1.2,0,0-.1.1-.2.1h-2.3c-.2,0-.3,0-.4-.2l-7.5-12.2c0,0,0,0-.1,0,0,0,0,0,0,.1v12.1c0,0,0,.2,0,.2,0,0-.1.1-.2.1h-2.4c0,0-.2,0-.2-.1,0,0,0-.1,0-.2v-17.5c0,0,0-.2,0-.2,0,0,.1-.1.2-.1h2.3c.2,0,.3,0,.4.2l7.4,12.2c0,0,0,0,.1,0,0,0,0,0,0-.1,0,0,0-12.1,0-12.1ZM812.2,176.5c0,0,.2,0,.2.1,0,0,.1.1.1.2v2c0,0,0,.2-.1.2,0,0-.1.1-.2.1h-4.8c0,0-.1,0-.1.1v15.1c0,0,0,.2,0,.2,0,0-.1.1-.2.1h-2.4c0,0-.2,0-.2-.1,0,0-.1-.1-.1-.2v-15.1c0,0,0-.1-.1-.1h-4.6c0,0-.2,0-.2-.1,0,0,0-.1,0-.2v-2c0,0,0-.2,0-.2,0,0,.1-.1.2-.1h12.6ZM827.5,178.8c0,0,0,.2-.1.2,0,0-.1.1-.2.1h-8.8c0,0-.1,0-.1.1v4.8c0,0,0,.1.1.1h5.9c0,0,.2,0,.2,0,0,0,0,.1,0,.2v2c0,0,0,.2,0,.2,0,0-.1,0-.2,0h-5.9c0,0-.1,0-.1.1v5c0,0,0,.1.1.1h8.8c0,0,.2,0,.2.1,0,0,.1.1.1.2v2c0,0,0,.2-.1.2,0,0-.1.1-.2.1h-11.7c0,0-.2,0-.2-.1,0,0,0-.1,0-.2v-17.5c0,0,0-.2,0-.2,0,0,.1-.1.2-.1h11.7c0,0,.2,0,.2.1,0,0,.1.1.1.2v2h0ZM840.8,194.6c-.2,0-.3,0-.4-.2l-3.4-7.5c0,0,0-.1-.2-.1h-3.1c0,0-.1,0-.1.1v7.4c0,0,0,.2-.1.2,0,0-.1.1-.2.1h-2.4c0,0-.2,0-.2-.1,0,0,0-.1,0-.2v-17.5c0,0,0-.2,0-.2,0,0,.1-.1.2-.1h7.1c1.1,0,2,.2,2.8.6.8.4,1.4,1.1,1.9,1.9.4.8.7,1.7.7,2.8s-.3,2.2-.9,3c-.6.8-1.5,1.4-2.5,1.8,0,0,0,0,0,0,0,0,0,0,0,.1l3.7,7.5c0,0,0,.1,0,.2,0,.1,0,.2-.3.2h-2.5ZM833.7,179.1c0,0-.1,0-.1.1v5.2c0,0,0,.1.1.1h3.9c.8,0,1.5-.3,2-.8.5-.5.8-1.1.8-1.9,0-.8-.3-1.5-.8-2-.5-.5-1.2-.8-2-.8h-3.9Z"/>
    <path class="st7" d="M764.2,241.4c0,0,0,.1,0,.2,0,0,0,0,.2,0h10.2c.1,0,.2,0,.3.1.1,0,.2.2.2.3v3.7c0,.1,0,.2-.2.3,0,0-.2.1-.3.1h-16.9c-.1,0-.3,0-.3-.1,0,0-.1-.2-.1-.3v-3.5c0-.2,0-.4.2-.6,1.2-1.2,2.5-2.5,3.8-3.9,1.3-1.4,2.1-2.3,2.4-2.6.7-.8,1.4-1.6,2.1-2.4,2.3-2.5,3.4-4.4,3.4-5.6s-.3-1.6-.9-2.2c-.6-.6-1.4-.8-2.4-.8s-1.8.3-2.4.8c-.6.6-1,1.3-1,2.3v.9c0,.1,0,.2-.1.3s-.2.1-.3.1h-4.4c-.1,0-.2,0-.3-.1-.1,0-.2-.2-.2-.3v-1.8c0-1.3.5-2.5,1.3-3.6.8-1,1.8-1.8,3.1-2.4,1.3-.6,2.7-.8,4.4-.8s3.3.3,4.6,1c1.3.7,2.3,1.5,3,2.7.7,1.1,1.1,2.4,1.1,3.8s-.3,2.1-.8,3.2c-.5,1.1-1.3,2.3-2.4,3.6-.8,1-1.6,1.9-2.5,2.9-.9.9-2.2,2.3-4,4.1l-.6.6h0ZM787.1,246.6c-2.8,0-4.9-.8-6.5-2.3-1.6-1.5-2.4-3.6-2.4-6.3v-9.9c0-2.6.8-4.7,2.4-6.2,1.6-1.5,3.8-2.3,6.5-2.3s4.9.8,6.6,2.3c1.6,1.5,2.4,3.6,2.4,6.2v9.9c0,2.7-.8,4.8-2.4,6.3-1.6,1.5-3.8,2.3-6.6,2.3ZM787.1,242c1.1,0,2-.3,2.7-1,.7-.7,1-1.6,1-2.8v-10.3c0-1.1-.3-2.1-1-2.7-.7-.7-1.5-1-2.7-1s-2,.3-2.6,1c-.7.7-1,1.6-1,2.7v10.3c0,1.2.3,2.1,1,2.8.7.7,1.5,1,2.6,1ZM806.6,241.4c0,0,0,.1,0,.2,0,0,0,0,.2,0h10.2c.1,0,.2,0,.3.1,0,0,.1.2.1.3v3.7c0,.1,0,.2-.1.3,0,0-.2.1-.3.1h-16.9c-.1,0-.2,0-.3-.1,0,0-.1-.2-.1-.3v-3.5c0-.2,0-.4.2-.6,1.2-1.2,2.5-2.5,3.8-3.9,1.3-1.4,2.1-2.3,2.4-2.6.7-.8,1.4-1.6,2.1-2.4,2.3-2.5,3.4-4.4,3.4-5.6,0-.9-.3-1.6-.9-2.2-.6-.6-1.5-.8-2.5-.8s-1.8.3-2.4.8c-.6.6-.9,1.3-.9,2.3v.9c0,.1,0,.2-.1.3s-.2.1-.3.1h-4.4c-.1,0-.2,0-.3-.1s-.1-.2-.1-.3v-1.8c0-1.3.5-2.5,1.3-3.6.8-1,1.8-1.8,3.1-2.4,1.3-.6,2.7-.8,4.3-.8s3.3.3,4.6,1c1.3.7,2.3,1.5,3.1,2.7.7,1.1,1.1,2.4,1.1,3.8s-.3,2.1-.8,3.2c-.5,1.1-1.3,2.3-2.4,3.6-.8,1-1.6,1.9-2.5,2.9-.9.9-2.2,2.3-4,4.1l-.6.6h0ZM837.3,234.2c.4,1.2.6,2.4.6,3.6s-.2,2.4-.6,3.5c-.6,1.6-1.6,2.9-3,3.8-1.5.9-3.2,1.4-5.1,1.4s-3.6-.5-5-1.4c-1.5-.9-2.5-2.2-3.1-3.7-.3-.7-.4-1.3-.6-2.1h0c0-.4.1-.5.4-.5h4.6c.2,0,.4.1.5.4,0,.2,0,.3.1.4s0,.2.1.3c.3.7.6,1.2,1.1,1.5.5.3,1.1.5,1.8.5.7,0,1.3-.2,1.8-.6.5-.4.9-.9,1.2-1.6.2-.5.4-1.2.4-2s-.1-1.4-.3-1.9c-.2-.7-.5-1.2-1-1.5-.5-.4-1.1-.5-1.8-.5s-1.4.2-2,.5c-.6.3-1,.8-1.2,1.3,0,.2-.2.4-.5.4h-4.6c-.1,0-.3,0-.3-.1,0,0-.1-.2-.1-.3v-15.2c0-.1,0-.2.1-.3s.2-.1.3-.1h15.5c.1,0,.2,0,.3.1s.1.2.1.3v3.7c0,.1,0,.2-.1.3,0,0-.2.1-.3.1h-10.5c-.1,0-.2,0-.2.2v5.5c0,.2,0,.2.2.1,1.1-.7,2.4-1.1,3.9-1.1s3.3.4,4.6,1.3c1.3.9,2.3,2.1,2.8,3.7Z"/>
  </g>
</svg>