<svg xmlns="http://www.w3.org/2000/svg" version="1.1" xmlns:xlink="http://www.w3.org/1999/xlink" width="512" height="512" x="0" y="0" viewBox="0 0 512 512" style="enable-background:new 0 0 512 512" xml:space="preserve" class=""><rect width="512" height="512" rx="102.4" ry="102.4" fill="#e8edfb" shape="rounded"></rect><g transform="matrix(0.6,0,0,0.6,102.4,102.4)"><path d="M407 256c-69.307 0-125.911-52.685-133.484-120H45c-24.814 0-45 20.186-45 45v270c0 24.814 20.186 45 45 45h392c24.814 0 45-20.186 45-45V233.147C460.529 247.552 434.742 256 407 256zm-60 30c8.284 0 15 6.716 15 15s-6.716 15-15 15-15-6.716-15-15 6.716-15 15-15zm-60 0c8.284 0 15 6.716 15 15s-6.716 15-15 15-15-6.716-15-15 6.716-15 15-15zm-77 135c0 8.291-6.709 15-15 15H75c-8.291 0-15-6.709-15-15v-30c0-25.845 13.141-48.68 33.096-62.173C81.96 317.928 75 302.782 75 286c0-33.091 26.909-60 60-60s60 26.909 60 60c0 16.782-6.96 31.928-18.096 42.827C196.859 342.32 210 365.155 210 391v30zm197 15H287c-8.291 0-15-6.709-15-15s6.709-15 15-15h120c8.291 0 15 6.709 15 15s-6.709 15-15 15zm0-60H287c-8.291 0-15-6.709-15-15s6.709-15 15-15h120c8.291 0 15 6.709 15 15s-6.709 15-15 15zm0-60c-8.284 0-15-6.716-15-15s6.716-15 15-15 15 6.716 15 15-6.716 15-15 15z" fill="#1c51db" opacity="1" data-original="#000000" class=""></path><path d="M135 256c-16.538 0-30 13.462-30 30s13.462 30 30 30 30-13.462 30-30-13.462-30-30-30zM135 346c-24.814 0-45 20.186-45 45v15h90v-15c0-24.814-20.186-45-45-45zM406 16c-57.891 0-104 47.109-104 105s47.109 105 105 105 105-47.109 105-105S463.891 16 406 16zm56.605 85.605-60 60c-5.859 5.859-15.352 5.859-21.211 0l-30-30c-5.859-5.859-5.859-15.352 0-21.211 5.859-5.859 15.352-5.859 21.211 0L392 129.789l49.395-49.395c5.859-5.859 15.352-5.859 21.211 0s5.859 15.352-.001 21.211z" fill="#1c51db" opacity="1" data-original="#000000" class=""></path></g></svg>