<svg xmlns="http://www.w3.org/2000/svg" version="1.1" xmlns:xlink="http://www.w3.org/1999/xlink" width="512" height="512" x="0" y="0" viewBox="0 0 60 60" style="enable-background:new 0 0 512 512" xml:space="preserve" class=""><rect width="60" height="60" rx="12" ry="12" fill="#ebfcf8" shape="rounded"></rect><g transform="matrix(0.6,0,0,0.6,11.998006057739257,12)"><path d="M43.5 25.01h-.79v-7.29C42.71 10.7 37.01 5 29.99 5c-7.01 0-12.72 5.7-12.72 12.72v7.29h-.78a5.13 5.13 0 0 0-5.12 5.12v19.75c0 2.82 2.3 5.12 5.12 5.12H43.5c2.82 0 5.12-2.3 5.12-5.12V30.13c.01-2.82-2.3-5.12-5.12-5.12zM32.9 44.5v2.01c0 1.6-1.31 2.9-2.91 2.9s-2.9-1.3-2.9-2.9V44.5a5.684 5.684 0 0 1-2.77-4.86c0-3.13 2.55-5.67 5.67-5.67 3.13 0 5.68 2.54 5.68 5.67 0 2-1.07 3.84-2.77 4.86zm7.81-19.49H19.27v-7.29C19.27 11.81 24.08 7 29.99 7c5.92 0 10.72 4.81 10.72 10.72z" fill="#35cda3" opacity="1" data-original="#000000" class=""></path></g></svg>