<svg xmlns="http://www.w3.org/2000/svg" version="1.1" xmlns:xlink="http://www.w3.org/1999/xlink" width="512" height="512" x="0" y="0" viewBox="0 0 50 50" style="enable-background:new 0 0 512 512" xml:space="preserve" class=""><rect width="50" height="50" rx="10" ry="10" fill="#e8edfb" shape="rounded"></rect><g transform="matrix(0.6,0,0,0.6,10.00505657196045,10.005000162124634)"><path d="M46.6 10.3c-.1-1.5-1.5-2.6-3-2.4-8.1 1.1-14.1-3-16.9-5.5-1-.9-2.5-.9-3.4 0C20.5 4.8 14.5 9 6.4 7.9c-1.5-.2-2.9.9-3 2.4-.4 8.2.2 31.2 21.6 38 21.4-6.8 22.1-29.8 21.6-38zM25 37.2c-6.8 0-12.2-5.5-12.2-12.2S18.2 12.8 25 12.8 37.2 18.2 37.2 25 31.8 37.2 25 37.2z" fill="#1c51db" opacity="1" data-original="#000000" class=""></path><path d="M22.6 21.9c0-.8.4-1.4.9-1.9.4-.3.9-.5 1.4-.5 1.1 0 2.4.9 2.4 2.4v1.9h-4.8v-1.9zm7.3 2.8c-.2-.3-.4-.5-.7-.7-.2-.1-.4-.2-.6-.2v-1.9c0-1.7-1.4-3.6-3.6-3.6-2 0-3.6 1.6-3.6 3.6v1.9c-.2 0-.4.1-.6.2-.3.2-.6.4-.8.7s-.2.6-.2.9v4.2c0 1.1.9 1.8 1.8 1.8h6.8c.4 0 .7-.1 1-.3s.5-.3.6-.6c.2-.3.3-.6.3-1v-4.2c-.1-.2-.2-.5-.4-.8zm-4.4 3.1.1.8c0 .3-.2.5-.5.5h-.3c-.3 0-.5-.2-.5-.5l.1-.8c-.3-.2-.4-.5-.4-.8 0-.5.4-.9.9-.9s.9.4.9.9c.1.3 0 .6-.3.8z" fill="#1c51db" opacity="1" data-original="#000000" class=""></path></g></svg>