<svg xmlns="http://www.w3.org/2000/svg" version="1.1" xmlns:xlink="http://www.w3.org/1999/xlink" width="512" height="512" x="0" y="0" viewBox="0 0 32 32" style="enable-background:new 0 0 512 512" xml:space="preserve" class=""><rect width="32" height="32" rx="6.4" ry="6.4" fill="#e8edfb" shape="rounded"></rect><g transform="matrix(0.6,0,0,0.6,6.4,6.557574844360351)"><path d="M10.987 24.707a.993.993 0 0 1-1.146.829C6.913 25.066 2 23.853 2 21c0-1.875 2.303-3.237 5.571-4.063a14.836 14.836 0 0 0 2.775 1.48C6.323 19.047 4 20.246 4 21c0 .493 1.551 1.822 6.158 2.562.546.086.917.6.829 1.145zM18 25.948v2.69a.15.15 0 0 1-.256.106L14 25l3.744-3.744a.15.15 0 0 1 .256.106v2.585c6.246-.307 10-1.988 10-2.947 0-.754-2.323-1.953-6.346-2.583a14.894 14.894 0 0 0 2.775-1.48C27.697 17.763 30 19.125 30 21c0 2.967-5.756 4.651-12 4.948zM16 4C7.692 4 4 11 4 11s3.692 7 12 7 12-7 12-7-3.692-7-12-7zm0 12a5 5 0 1 1 .001-10.001A5 5 0 0 1 16 16z" fill="#1c51db" opacity="1" data-original="#000000" class=""></path><path d="M18.857 10.131c.084.276.143.564.143.869a3 3 0 1 1-3-3c.305 0 .593.059.869.143a1.498 1.498 0 1 0 1.988 1.988z" fill="#1c51db" opacity="1" data-original="#000000" class=""></path></g></svg>